{"glyphs":{"0":{"ha":772,"x_min":44,"x_max":728,"o":"m 386 -26 q 128 97 213 -26 q 44 481 44 221 q 128 863 44 739 q 386 986 213 986 q 644 863 560 986 q 728 481 728 739 q 644 97 728 221 q 386 -26 560 -26 m 528 479 q 513 697 528 621 q 468 801 499 772 q 385 831 438 831 q 303 801 333 831 q 259 697 274 772 q 244 481 244 621 q 259 265 244 340 q 304 159 274 189 q 386 129 335 129 q 468 158 438 129 q 513 263 499 188 q 528 479 528 339 z "},"1":{"ha":772,"x_min":96,"x_max":525,"o":"m 331 0 l 331 679 l 96 679 l 96 815 l 118 815 q 298 860 236 815 q 365 986 360 906 l 525 986 l 525 0 l 331 0 z "},"2":{"ha":772,"x_min":36,"x_max":710,"o":"m 504 354 q 282 172 293 213 l 710 172 l 710 0 l 36 0 q 61 151 40 96 q 149 293 92 235 q 310 424 207 351 q 442 528 394 485 q 514 682 514 593 q 477 781 514 740 q 378 822 440 822 q 270 780 304 822 q 236 646 236 738 l 236 638 l 47 638 q 133 895 47 804 q 371 986 218 986 q 543 948 467 986 q 664 840 619 910 q 708 675 708 769 q 670 519 708 593 q 504 354 632 444 z "},"3":{"ha":772,"x_min":38,"x_max":717,"o":"m 568 524 l 568 521 q 678 437 639 496 q 717 292 717 378 q 674 128 717 200 q 554 15 631 56 q 381 -26 478 -26 q 128 56 219 -26 q 38 303 38 139 l 226 303 q 264 174 226 218 q 371 129 301 129 q 474 172 432 129 q 517 292 517 214 q 467 397 517 363 q 318 432 418 432 l 296 432 l 296 571 l 331 571 q 453 603 415 571 q 492 703 492 636 q 459 796 492 761 q 368 831 426 831 q 269 790 303 831 q 235 675 235 750 l 235 669 l 54 669 q 142 905 56 824 q 379 986 229 986 q 536 953 467 986 q 646 859 606 921 q 686 713 686 797 q 655 599 686 649 q 568 524 624 550 z "},"4":{"ha":772,"x_min":38,"x_max":731,"o":"m 731 369 l 731 218 l 621 218 l 621 0 l 426 0 l 426 218 l 38 218 l 38 386 l 400 986 l 621 986 l 621 369 l 731 369 m 431 793 l 428 793 l 181 369 l 426 369 q 431 793 426 556 z "},"5":{"ha":772,"x_min":38,"x_max":717,"o":"m 276 806 l 242 592 q 326 635 293 625 q 417 646 358 646 q 567 608 499 646 q 676 497 636 569 q 717 328 717 425 q 674 146 717 226 q 553 19 632 65 q 371 -26 475 -26 q 134 52 225 -26 q 38 264 43 131 l 232 264 q 369 129 249 129 q 478 181 439 129 q 517 314 517 232 q 478 440 517 390 q 372 490 439 490 q 292 471 325 490 q 242 419 258 451 l 68 428 l 136 969 l 678 969 l 678 806 l 276 806 z "},"6":{"ha":772,"x_min":43,"x_max":722,"o":"m 396 831 q 281 764 321 831 q 233 558 240 697 l 236 556 q 421 638 289 638 q 577 598 508 638 q 684 489 646 558 q 722 333 722 419 q 682 147 722 229 q 569 19 642 65 q 400 -26 496 -26 q 133 94 222 -26 q 43 469 43 215 q 135 860 43 733 q 408 986 226 986 q 703 736 671 981 l 510 736 q 476 806 504 781 q 396 831 449 831 m 528 317 q 487 438 528 393 q 385 482 446 482 q 278 437 319 482 q 238 313 238 392 q 280 181 238 232 q 392 129 322 129 q 491 179 454 129 q 528 317 528 229 z "},"7":{"ha":772,"x_min":35,"x_max":733,"o":"m 374 0 l 174 0 q 280 418 183 203 q 525 797 376 633 l 35 797 l 39 969 l 733 969 l 733 819 q 476 425 572 647 q 374 0 381 203 z "},"8":{"ha":772,"x_min":44,"x_max":728,"o":"m 581 531 q 694 433 660 489 q 728 293 728 378 q 687 133 728 207 q 569 17 646 60 q 386 -26 492 -26 q 203 12 281 -26 q 85 119 126 50 q 44 278 44 188 q 83 430 44 371 q 194 524 122 489 q 75 717 75 583 q 115 858 75 797 q 226 953 156 919 q 382 986 296 986 q 547 953 476 986 q 656 861 618 919 q 694 729 694 803 q 581 531 694 593 m 508 708 q 476 797 508 763 q 393 831 443 831 q 295 797 329 831 q 261 708 261 764 q 297 623 261 660 q 388 586 332 586 q 476 620 444 586 q 508 708 508 654 m 528 285 q 489 396 528 353 q 382 439 450 439 q 283 397 321 439 q 244 286 244 356 q 283 172 244 214 q 388 129 321 129 q 490 173 453 129 q 528 285 528 217 z "},"9":{"ha":772,"x_min":42,"x_max":725,"o":"m 367 -26 q 156 43 240 -26 q 61 228 71 113 l 254 228 q 291 153 261 178 q 368 129 321 129 q 487 203 443 129 q 531 404 531 278 l 528 407 q 340 324 472 324 q 185 364 253 324 q 79 475 117 404 q 42 633 42 546 q 131 892 42 799 q 378 986 219 986 q 635 867 546 986 q 725 488 725 747 q 629 106 725 238 q 367 -26 533 -26 m 525 644 q 488 778 525 731 q 376 826 450 826 q 276 783 315 826 q 236 660 236 740 q 381 479 236 479 q 484 523 443 479 q 525 644 525 567 z "},"\r":{"ha":386,"x_min":0,"x_max":0,"o":""}," ":{"ha":386,"x_min":0,"x_max":0,"o":""},"!":{"ha":463,"x_min":125,"x_max":339,"o":"m 283 276 l 181 276 l 125 743 l 125 997 l 339 997 l 339 743 l 283 276 m 131 0 l 131 196 l 333 196 l 333 0 l 131 0 z "},"\"":{"ha":658,"x_min":136,"x_max":522,"o":"m 136 621 l 136 997 l 272 997 l 272 621 l 136 621 m 386 621 l 386 997 l 522 997 l 522 621 l 386 621 z "},"#":{"ha":772,"x_min":25,"x_max":747,"o":"m 482 693 l 521 969 l 651 969 l 613 693 l 747 693 l 731 568 l 596 568 l 572 401 l 707 401 l 690 276 l 556 276 l 517 0 l 386 0 l 425 276 l 290 276 l 251 0 l 121 0 l 160 276 l 25 276 l 42 401 l 176 401 l 200 568 l 65 568 l 82 693 l 217 693 l 256 969 l 386 969 l 347 693 l 482 693 m 465 568 l 331 568 l 307 401 l 442 401 l 465 568 z "},"$":{"ha":772,"x_min":42,"x_max":726,"o":"m 418 986 q 628 903 556 974 q 711 696 700 833 l 532 696 q 503 802 528 765 q 418 839 479 839 l 418 579 q 589 511 528 544 q 682 432 650 478 q 726 275 726 367 q 689 125 726 192 q 581 19 651 58 q 418 -24 511 -19 l 418 -160 l 354 -160 l 354 -24 q 116 65 190 -11 q 42 299 42 140 l 224 299 q 259 172 231 210 q 354 124 288 135 l 354 415 q 222 460 271 438 q 136 515 172 482 q 81 595 99 551 q 63 697 63 639 q 141 906 63 826 q 354 986 219 985 l 354 1076 l 418 1076 l 418 986 m 238 729 q 354 599 238 622 l 354 839 q 269 805 301 836 q 238 729 238 774 m 540 260 q 418 392 540 356 l 418 124 q 508 164 476 129 q 540 260 540 199 z "},"%":{"ha":1235,"x_min":39,"x_max":1196,"o":"m 292 481 q 164 515 222 481 q 72 608 106 550 q 39 733 39 665 q 72 857 39 799 q 163 951 106 915 q 292 986 221 986 q 417 951 358 986 q 510 858 475 917 q 544 733 544 800 q 510 608 544 667 q 418 515 476 550 q 292 481 360 481 m 286 -26 l 839 986 l 942 986 l 389 -26 l 286 -26 m 401 733 q 369 811 401 779 q 290 843 338 843 q 215 811 247 843 q 182 733 182 779 q 215 656 182 688 q 292 624 247 624 q 369 656 336 624 q 401 733 401 688 m 943 -17 q 815 17 874 -17 q 724 110 757 51 q 690 236 690 168 q 724 362 690 304 q 815 454 757 419 q 943 489 874 489 q 1067 455 1008 489 q 1160 363 1125 421 q 1196 236 1196 304 q 1162 111 1196 169 q 1069 18 1128 53 q 943 -17 1011 -17 m 1053 236 q 1020 314 1053 282 q 943 346 988 346 q 866 314 899 346 q 833 236 833 282 q 865 159 833 192 q 943 126 897 126 q 1020 159 988 126 q 1053 236 1053 192 z "},"&":{"ha":1003,"x_min":75,"x_max":974,"o":"m 542 529 l 683 354 q 717 424 704 386 q 735 518 729 463 l 907 518 q 874 361 899 429 q 793 218 850 293 l 974 0 l 739 0 l 671 85 q 544 -1 613 24 q 386 -26 475 -26 q 228 10 300 -26 q 116 112 157 47 q 75 257 75 176 q 125 426 75 357 q 288 560 175 496 q 222 659 246 611 q 197 768 197 707 q 231 887 197 835 q 326 968 265 939 q 463 997 386 997 q 583 969 528 997 q 673 890 639 942 q 707 767 707 838 q 665 635 707 696 q 542 529 624 575 m 539 768 q 516 829 539 808 q 456 850 493 850 q 399 830 422 850 q 375 771 375 810 q 447 644 375 721 q 539 768 539 699 m 571 207 l 388 436 q 310 372 335 397 q 277 324 285 346 q 269 269 269 303 q 310 176 269 215 q 417 138 350 138 q 501 158 461 138 q 571 207 540 178 z "},"'":{"ha":331,"x_min":97,"x_max":233,"o":"m 97 621 l 97 997 l 233 997 l 233 621 l 97 621 z "},"(":{"ha":463,"x_min":49,"x_max":436,"o":"m 249 363 q 288 53 249 206 q 436 -289 326 -100 l 293 -289 q 103 53 157 -104 q 49 363 49 210 q 108 691 49 528 q 293 1019 167 854 l 436 1019 q 292 696 336 850 q 249 363 249 542 z "},")":{"ha":463,"x_min":26,"x_max":414,"o":"m 414 368 q 169 -289 414 29 l 26 -289 q 170 35 126 -121 q 214 368 214 190 q 176 677 214 528 q 26 1019 138 826 l 169 1019 q 360 678 306 835 q 414 368 414 521 z "},"*":{"ha":540,"x_min":38,"x_max":503,"o":"m 469 879 l 503 778 l 357 733 l 453 599 l 365 538 l 271 664 l 175 538 l 88 599 l 182 733 l 38 778 l 69 879 l 211 832 l 211 997 l 329 997 l 329 832 l 469 879 z "},"+":{"ha":811,"x_min":56,"x_max":756,"o":"m 756 429 l 756 274 l 483 274 l 483 0 l 328 0 l 328 274 l 56 274 l 56 429 l 328 429 l 328 703 l 483 703 l 483 429 l 756 429 z "},",":{"ha":386,"x_min":89,"x_max":297,"o":"m 89 -233 l 89 -160 q 177 -103 153 -139 q 206 0 201 -67 l 89 0 l 89 203 l 297 203 l 297 22 q 89 -233 297 -189 z "},"-":{"ha":463,"x_min":38,"x_max":425,"o":"m 38 299 l 38 479 l 425 479 l 425 299 l 38 299 z "},".":{"ha":386,"x_min":89,"x_max":297,"o":"m 89 0 l 89 203 l 297 203 l 297 0 l 89 0 z "},"/":{"ha":386,"x_min":-46,"x_max":432,"o":"m -46 -26 l 269 1024 l 432 1024 l 117 -26 l -46 -26 z "},":":{"ha":463,"x_min":128,"x_max":336,"o":"m 128 508 l 128 711 l 336 711 l 336 508 l 128 508 m 128 0 l 128 203 l 336 203 l 336 0 l 128 0 z "},";":{"ha":463,"x_min":128,"x_max":336,"o":"m 128 508 l 128 711 l 336 711 l 336 508 l 128 508 m 128 -233 l 128 -160 q 216 -103 192 -139 q 244 0 240 -67 l 128 0 l 128 203 l 336 203 l 336 22 q 128 -233 336 -189 z "},"<":{"ha":811,"x_min":53,"x_max":758,"o":"m 758 139 l 758 -11 l 53 289 l 53 414 l 758 714 l 758 564 l 254 351 l 758 139 z "},"=":{"ha":811,"x_min":56,"x_max":756,"o":"m 56 426 l 56 582 l 756 582 l 756 426 l 56 426 m 56 121 l 56 276 l 756 276 l 756 121 l 56 121 z "},">":{"ha":811,"x_min":53,"x_max":758,"o":"m 758 289 l 53 -11 l 53 139 l 557 351 l 53 564 l 53 714 l 758 414 l 758 289 z "},"?":{"ha":849,"x_min":83,"x_max":772,"o":"m 596 451 q 534 384 549 417 q 519 289 519 351 l 336 289 l 336 303 q 347 410 336 368 q 385 488 357 453 q 468 564 414 524 q 544 635 524 604 q 564 708 564 667 q 528 809 564 772 q 429 846 492 846 q 324 808 360 846 q 279 685 288 771 l 83 685 q 125 858 83 785 q 242 971 167 932 q 417 1010 318 1010 q 603 975 522 1010 q 728 876 683 940 q 772 726 772 813 q 751 615 772 661 q 696 533 731 568 q 596 451 661 499 m 331 0 l 331 196 l 533 196 l 533 0 l 331 0 z "},"@":{"ha":1354,"x_min":164,"x_max":1189,"o":"m 838 190 q 781 208 804 190 q 756 263 758 225 l 753 265 q 683 211 721 232 q 607 190 644 190 q 497 224 549 190 q 415 314 446 258 q 383 433 383 369 q 422 599 383 521 q 528 726 460 678 q 681 775 596 775 q 849 685 793 775 l 867 758 l 989 758 l 908 404 q 899 347 899 361 q 921 317 899 317 q 996 349 960 317 q 1054 436 1032 381 q 1076 561 1076 492 q 1029 746 1076 667 q 896 869 982 825 q 697 913 810 913 q 491 858 581 913 q 351 709 401 804 q 301 496 301 614 q 353 285 301 378 q 499 138 404 192 q 717 85 593 85 q 876 115 801 85 q 1008 197 951 144 l 1132 197 q 949 31 1058 89 q 708 -26 839 -26 q 435 42 560 -26 q 237 232 310 111 q 164 499 164 353 q 236 764 164 643 q 431 954 308 885 q 700 1024 554 1024 q 942 969 829 1024 q 1122 817 1054 915 q 1189 590 1189 718 q 1127 369 1189 460 q 982 235 1065 279 q 838 190 899 190 m 807 522 q 776 607 807 574 q 694 640 744 640 q 615 614 653 640 q 556 544 578 588 q 533 453 533 500 q 563 363 533 397 q 642 329 592 329 q 725 357 688 329 q 785 430 763 385 q 807 522 807 475 z "},"A":{"ha":1003,"x_min":28,"x_max":975,"o":"m 749 0 l 685 206 l 317 206 l 247 0 l 28 0 l 383 997 l 624 997 l 975 0 l 749 0 m 626 378 l 503 772 l 500 772 l 372 378 l 626 378 z "},"B":{"ha":1003,"x_min":106,"x_max":929,"o":"m 897 740 q 870 620 897 671 q 775 538 843 569 q 889 451 849 511 q 929 296 929 390 q 844 92 929 178 q 734 23 799 46 q 546 0 669 0 l 106 0 l 106 997 l 597 997 q 758 963 690 997 q 862 871 826 929 q 897 740 897 813 m 697 718 q 657 803 697 781 q 546 825 617 825 l 306 825 l 306 607 l 553 607 q 656 633 615 607 q 697 718 697 658 m 721 318 q 681 406 721 374 q 569 439 640 439 l 306 439 l 306 172 l 563 172 q 721 318 721 172 z "},"C":{"ha":1003,"x_min":61,"x_max":950,"o":"m 525 843 q 342 753 410 843 q 274 496 274 663 q 338 247 274 339 q 521 154 403 154 q 665 202 608 154 q 742 342 722 250 l 950 342 q 802 69 915 164 q 517 -26 689 -26 q 275 37 378 -26 q 117 218 172 100 q 61 497 61 336 q 119 777 61 658 q 281 960 176 896 q 521 1024 385 1024 q 733 978 639 1024 q 884 852 828 932 q 950 671 940 772 l 742 671 q 525 843 701 843 z "},"D":{"ha":1003,"x_min":106,"x_max":951,"o":"m 951 522 q 900 242 951 360 q 756 62 849 124 q 544 0 664 0 l 106 0 l 106 997 l 553 997 q 774 935 685 997 q 908 767 864 874 q 951 522 951 660 m 739 508 q 518 825 739 825 l 310 825 l 310 172 l 517 172 q 679 263 619 172 q 739 508 739 353 z "},"E":{"ha":926,"x_min":106,"x_max":863,"o":"m 310 821 l 310 611 l 796 611 l 796 435 l 310 435 l 310 176 l 863 176 l 863 0 l 106 0 l 106 997 l 839 997 l 839 821 l 310 821 z "},"F":{"ha":849,"x_min":106,"x_max":815,"o":"m 314 821 l 314 596 l 753 596 l 753 419 l 314 419 l 314 0 l 106 0 l 106 997 l 815 997 l 815 821 l 314 821 z "},"G":{"ha":1081,"x_min":61,"x_max":990,"o":"m 986 688 l 778 688 q 742 765 772 726 q 664 827 711 803 q 560 851 617 851 q 351 758 428 851 q 274 493 274 664 q 349 238 274 326 q 563 150 424 150 q 716 207 649 150 q 806 369 783 264 l 574 369 l 574 538 l 990 538 l 990 0 l 851 0 l 831 125 q 688 8 763 42 q 521 -26 614 -26 q 285 37 389 -26 q 121 218 181 100 q 61 494 61 336 q 119 769 61 649 q 287 956 176 889 q 550 1024 397 1024 q 766 981 671 1024 q 919 861 861 938 q 986 688 976 785 z "},"H":{"ha":1003,"x_min":99,"x_max":904,"o":"m 696 619 l 696 997 l 904 997 l 904 0 l 696 0 l 696 447 l 307 447 l 307 0 l 99 0 l 99 997 l 307 997 l 307 619 l 696 619 z "},"I":{"ha":386,"x_min":89,"x_max":297,"o":"m 89 0 l 89 997 l 297 997 l 297 0 l 89 0 z "},"J":{"ha":772,"x_min":31,"x_max":672,"o":"m 363 -25 q 190 1 261 -25 q 75 101 119 26 q 31 314 31 175 l 31 376 l 225 376 l 225 356 q 238 222 225 268 q 277 160 251 176 q 347 143 303 143 q 434 172 404 143 q 464 279 464 200 l 464 997 l 672 997 l 672 282 q 594 53 672 132 q 363 -25 517 -25 z "},"K":{"ha":1003,"x_min":121,"x_max":1003,"o":"m 710 997 l 979 997 l 572 589 l 1003 0 l 735 0 l 426 438 l 329 338 l 329 0 l 121 0 l 121 997 l 329 997 l 329 592 l 710 997 z "},"L":{"ha":849,"x_min":106,"x_max":810,"o":"m 810 181 l 810 0 l 106 0 l 106 997 l 314 997 l 314 181 l 810 181 z "},"M":{"ha":1157,"x_min":96,"x_max":1063,"o":"m 583 211 l 761 997 l 1063 997 l 1063 0 l 868 0 l 868 833 l 865 833 l 679 0 l 475 0 l 293 833 l 290 833 l 290 0 l 96 0 l 96 997 l 400 997 l 581 211 l 583 211 z "},"N":{"ha":1003,"x_min":96,"x_max":908,"o":"m 714 303 l 714 997 l 908 997 l 908 0 l 700 0 l 293 711 l 290 711 l 290 0 l 96 0 l 96 997 l 315 997 l 711 303 l 714 303 z "},"O":{"ha":1081,"x_min":61,"x_max":1019,"o":"m 540 -26 q 293 33 401 -26 q 123 210 185 92 q 61 499 61 328 q 122 785 61 667 q 292 964 183 904 q 540 1024 400 1024 q 789 963 681 1024 q 958 783 897 901 q 1019 499 1019 665 q 958 210 1019 329 q 787 33 896 92 q 540 -26 678 -26 m 811 499 q 737 756 811 665 q 539 847 663 847 q 344 756 418 847 q 269 499 269 665 q 343 241 269 332 q 540 150 417 150 q 738 241 664 150 q 811 499 811 332 z "},"P":{"ha":926,"x_min":106,"x_max":871,"o":"m 871 679 q 833 519 871 592 q 726 403 796 446 q 561 360 656 360 l 314 360 l 314 0 l 106 0 l 106 997 l 561 997 q 788 911 706 997 q 871 679 871 825 m 663 688 q 620 793 663 761 q 486 825 578 825 l 314 825 l 314 532 l 513 532 q 663 688 663 532 z "},"Q":{"ha":1081,"x_min":61,"x_max":1024,"o":"m 915 143 l 1024 40 l 914 -72 l 796 40 q 540 -26 679 -26 q 294 33 403 -26 q 124 210 186 92 q 61 499 61 328 q 123 786 61 668 q 293 964 185 904 q 540 1024 401 1024 q 787 965 678 1024 q 958 787 896 906 q 1019 499 1019 668 q 915 143 1019 275 m 653 176 l 553 271 l 660 383 l 765 285 q 797 369 783 315 q 811 499 811 422 q 737 756 811 665 q 539 847 663 847 q 344 756 418 847 q 269 499 269 665 q 344 241 269 332 q 540 150 418 150 q 653 176 606 150 z "},"R":{"ha":1003,"x_min":106,"x_max":940,"o":"m 924 715 q 883 567 924 631 q 769 478 843 503 l 803 461 q 878 375 860 431 q 896 236 896 319 l 896 143 q 940 26 896 38 l 940 0 l 710 0 q 695 65 701 25 q 689 142 689 106 l 688 250 q 665 344 688 314 q 610 382 643 374 q 524 390 576 390 l 310 390 l 310 0 l 106 0 l 106 997 l 621 997 q 783 958 714 997 q 888 856 851 919 q 924 715 924 792 m 715 694 q 677 790 715 754 q 575 825 639 825 l 310 825 l 310 558 l 560 558 q 676 590 638 558 q 715 694 715 621 z "},"S":{"ha":926,"x_min":54,"x_max":874,"o":"m 438 851 q 313 819 361 851 q 264 732 264 786 q 287 666 264 692 q 382 624 310 640 l 617 567 q 817 467 761 532 q 874 300 874 401 q 822 119 874 193 q 681 10 769 46 q 479 -26 592 -26 q 171 57 282 -26 q 54 307 60 140 l 254 307 q 311 188 257 231 q 465 146 365 146 q 620 178 567 146 q 674 275 674 210 q 645 340 674 317 q 550 383 617 364 q 328 438 483 403 q 131 535 192 468 q 69 717 69 601 q 112 875 69 806 q 240 984 154 944 q 453 1024 326 1024 q 655 984 568 1024 q 790 872 742 944 q 842 701 839 799 l 642 701 q 438 851 628 851 z "},"T":{"ha":849,"x_min":19,"x_max":831,"o":"m 529 821 l 529 0 l 321 0 l 321 821 l 19 821 l 19 997 l 831 997 l 831 821 l 529 821 z "},"U":{"ha":1003,"x_min":100,"x_max":904,"o":"m 492 150 q 692 339 692 150 l 692 997 l 904 997 l 904 342 q 800 69 904 164 q 494 -26 696 -26 q 205 67 310 -26 q 100 340 100 160 l 100 997 l 313 997 l 313 344 q 360 203 313 256 q 492 150 408 150 z "},"V":{"ha":926,"x_min":26,"x_max":900,"o":"m 467 242 l 683 997 l 900 997 l 561 0 l 363 0 l 26 997 l 250 997 l 464 242 l 467 242 z "},"W":{"ha":1311,"x_min":22,"x_max":1290,"o":"m 403 268 l 406 268 q 544 997 451 531 l 765 997 l 865 525 q 888 412 878 465 q 906 315 897 358 l 914 268 l 917 268 l 942 401 q 1046 853 954 467 l 1079 997 l 1290 997 l 1010 0 l 810 0 q 656 778 700 511 l 653 778 q 571 346 625 599 l 499 0 l 304 0 l 22 997 l 244 997 q 346 553 300 763 q 403 268 392 344 z "},"X":{"ha":926,"x_min":19,"x_max":907,"o":"m 646 997 l 886 997 l 582 518 l 907 0 l 653 0 l 464 340 l 263 0 l 19 0 l 342 510 l 38 997 l 286 997 l 464 675 l 646 997 z "},"Y":{"ha":926,"x_min":21,"x_max":907,"o":"m 474 564 l 671 997 l 907 997 l 574 374 l 574 0 l 365 0 l 365 376 l 21 997 l 267 997 l 472 564 l 474 564 z "},"Z":{"ha":849,"x_min":35,"x_max":814,"o":"m 289 176 l 814 176 l 814 0 l 35 0 l 35 176 l 550 821 l 49 821 l 49 997 l 811 997 l 811 833 l 289 176 z "},"[":{"ha":463,"x_min":88,"x_max":429,"o":"m 257 869 l 257 -139 l 429 -139 l 429 -272 l 88 -272 l 88 1003 l 429 1003 l 429 869 l 257 869 z "},"\\":{"ha":386,"x_min":-46,"x_max":432,"o":"m 269 -26 l -46 1024 l 117 1024 l 432 -26 l 269 -26 z "},"]":{"ha":463,"x_min":33,"x_max":375,"o":"m 33 -272 l 33 -139 l 206 -139 l 206 869 l 33 869 l 33 1003 l 375 1003 l 375 -272 l 33 -272 z "},"^":{"ha":811,"x_min":86,"x_max":725,"o":"m 572 449 l 406 814 l 238 449 l 86 449 l 336 969 l 475 969 l 725 449 l 572 449 z "},"_":{"ha":772,"x_min":0,"x_max":772,"o":"m 0 -174 l 0 -104 l 772 -104 l 772 -174 l 0 -174 z "},"`":{"ha":463,"x_min":-32,"x_max":313,"o":"m 172 839 l -32 1042 l 181 1042 l 313 839 l 172 839 z "},"a":{"ha":772,"x_min":40,"x_max":732,"o":"m 732 29 l 732 0 l 522 0 q 504 88 506 49 q 394 6 451 31 q 265 -19 338 -19 q 102 39 164 -19 q 40 196 40 97 q 91 351 40 289 q 272 435 142 413 l 411 456 q 481 476 464 464 q 499 518 499 489 q 469 581 499 560 q 371 603 439 603 q 251 500 261 603 l 64 500 q 149 692 75 626 q 389 758 224 758 q 610 703 531 758 q 689 550 689 647 l 689 138 q 699 62 689 86 q 732 29 710 38 m 499 268 l 499 360 q 444 335 474 344 q 360 318 415 326 q 266 284 297 310 q 235 208 235 258 q 260 144 235 168 q 325 119 285 119 q 408 138 368 119 q 474 191 449 157 q 499 268 499 225 z "},"b":{"ha":849,"x_min":85,"x_max":803,"o":"m 282 643 q 371 728 317 699 q 496 758 425 758 q 655 712 585 758 q 764 579 725 665 q 803 378 803 493 q 766 172 803 263 q 659 31 729 82 q 492 -19 589 -19 q 368 7 425 -19 q 278 93 311 33 l 275 93 l 275 0 l 85 0 l 85 997 l 279 997 l 279 643 l 282 643 m 603 365 q 560 531 603 471 q 436 590 518 590 q 313 531 356 590 q 271 353 271 471 q 317 198 271 256 q 446 140 364 140 q 561 206 519 140 q 603 365 603 271 z "},"c":{"ha":772,"x_min":47,"x_max":728,"o":"m 406 594 q 288 536 328 594 q 247 369 247 478 q 288 192 247 243 q 397 140 328 140 q 488 177 451 140 q 529 269 524 214 l 726 269 q 622 61 708 142 q 389 -19 536 -19 q 135 80 222 -19 q 47 349 47 179 q 139 653 47 547 q 401 758 231 758 q 563 725 490 758 q 678 627 635 692 q 728 475 722 563 l 531 475 q 491 562 522 529 q 406 594 460 594 z "},"d":{"ha":849,"x_min":47,"x_max":765,"o":"m 575 0 l 575 93 l 572 93 q 481 8 538 35 q 358 -19 425 -19 q 192 31 263 -19 q 85 170 122 81 q 47 378 47 260 q 86 579 47 493 q 195 712 125 665 q 354 758 265 758 q 479 728 425 758 q 568 643 533 699 l 571 643 l 571 997 l 765 997 l 765 0 l 575 0 m 579 353 q 537 528 579 467 q 411 590 494 590 q 290 531 333 590 q 247 365 247 472 q 290 203 247 267 q 407 140 333 140 q 533 198 486 140 q 579 353 579 256 z "},"e":{"ha":772,"x_min":32,"x_max":733,"o":"m 400 136 q 478 157 443 136 q 525 217 514 178 l 725 217 q 607 42 693 104 q 400 -19 521 -19 q 124 82 217 -19 q 32 383 32 183 q 73 578 32 493 q 193 710 114 663 q 385 758 272 758 q 638 657 543 758 q 733 350 733 556 l 733 317 l 226 317 q 400 136 236 136 m 382 599 q 232 443 249 599 l 533 443 q 486 557 526 515 q 382 599 446 599 z "},"f":{"ha":463,"x_min":14,"x_max":442,"o":"m 438 1007 l 438 850 l 386 850 q 341 845 356 850 q 321 826 326 840 q 315 778 315 811 l 315 739 l 442 739 l 442 600 l 315 600 l 315 0 l 121 0 l 121 600 l 14 600 l 14 739 l 121 739 l 121 797 q 175 959 121 908 q 344 1010 229 1010 q 438 1007 374 1010 z "},"g":{"ha":849,"x_min":56,"x_max":768,"o":"m 579 629 l 582 629 l 582 739 l 768 739 l 768 11 q 668 -231 768 -161 q 396 -301 568 -301 q 167 -241 257 -301 q 72 -79 76 -181 l 283 -79 q 324 -137 292 -121 q 418 -154 356 -154 q 536 -115 499 -154 q 574 10 574 -75 l 574 104 l 571 107 q 488 21 533 46 q 374 -4 443 -4 q 206 42 278 -4 q 94 174 133 88 q 56 378 56 260 q 94 581 56 494 q 203 713 133 667 q 363 758 272 758 q 495 725 440 758 q 579 629 550 692 m 410 160 q 533 215 490 160 q 575 374 575 271 q 529 529 575 468 q 407 590 483 590 q 296 531 336 590 q 256 367 256 471 q 297 215 256 271 q 410 160 339 160 z "},"h":{"ha":849,"x_min":90,"x_max":758,"o":"m 288 643 q 372 727 313 696 q 501 758 431 758 q 688 692 617 758 q 758 517 758 625 l 758 0 l 564 0 l 564 463 q 438 594 564 594 q 327 550 369 594 q 285 429 285 506 l 285 0 l 90 0 l 90 997 l 285 997 l 285 643 l 288 643 z "},"i":{"ha":386,"x_min":96,"x_max":290,"o":"m 96 826 l 96 1007 l 290 1007 l 290 826 l 96 826 m 96 0 l 96 739 l 290 739 l 290 0 l 96 0 z "},"j":{"ha":386,"x_min":4,"x_max":290,"o":"m 96 826 l 96 1007 l 290 1007 l 290 826 l 96 826 m 268 -208 q 228 -260 251 -242 q 163 -288 206 -279 q 44 -297 119 -297 l 4 -297 l 4 -142 l 33 -142 q 81 -127 67 -142 q 96 -72 96 -112 l 96 739 l 290 739 l 290 -85 q 268 -208 290 -162 z "},"k":{"ha":772,"x_min":96,"x_max":781,"o":"m 535 739 l 774 739 l 513 453 l 781 0 l 547 0 l 371 317 l 290 233 l 290 0 l 96 0 l 96 997 l 290 997 l 290 458 l 535 739 z "},"l":{"ha":386,"x_min":96,"x_max":290,"o":"m 96 0 l 96 997 l 290 997 l 290 0 l 96 0 z "},"m":{"ha":1235,"x_min":89,"x_max":1147,"o":"m 693 640 q 890 758 769 758 q 1026 727 968 758 q 1116 640 1085 696 q 1147 515 1147 585 l 1147 0 l 953 0 l 953 454 q 924 560 953 526 q 846 594 894 594 q 746 553 776 594 q 715 444 715 513 l 715 0 l 521 0 l 521 458 q 492 563 521 532 q 404 594 464 594 q 314 558 344 594 q 283 456 283 521 l 283 0 l 89 0 l 89 739 l 275 739 l 275 631 l 278 631 q 488 758 343 758 q 606 733 558 758 q 693 640 653 707 z "},"n":{"ha":849,"x_min":90,"x_max":758,"o":"m 758 517 l 758 0 l 564 0 l 564 468 q 531 562 564 529 q 438 594 499 594 q 327 550 369 594 q 285 429 285 506 l 285 0 l 90 0 l 90 739 l 276 739 l 276 631 l 279 631 q 371 727 314 696 q 501 758 428 758 q 636 727 578 758 q 726 641 694 696 q 758 517 758 586 z "},"o":{"ha":849,"x_min":47,"x_max":803,"o":"m 803 369 q 756 163 803 250 q 622 28 708 75 q 425 -19 536 -19 q 228 28 314 -19 q 94 163 142 75 q 47 369 47 250 q 95 577 47 489 q 229 712 143 665 q 425 758 315 758 q 622 711 536 758 q 756 576 708 664 q 803 369 803 489 m 425 144 q 558 203 514 144 q 603 369 603 263 q 558 535 603 476 q 424 594 513 594 q 293 536 339 594 q 247 369 247 478 q 292 202 247 260 q 425 144 338 144 z "},"p":{"ha":849,"x_min":86,"x_max":803,"o":"m 803 378 q 766 172 803 263 q 659 31 729 82 q 492 -19 589 -19 q 283 94 346 -19 l 281 94 l 281 -287 l 86 -287 l 86 739 l 272 739 l 272 632 l 275 632 q 496 758 349 758 q 655 712 585 758 q 764 579 725 665 q 803 378 803 493 m 443 140 q 561 205 519 140 q 603 365 603 269 q 560 531 603 471 q 436 590 518 590 q 315 530 357 590 q 272 353 272 469 q 318 197 272 253 q 443 140 364 140 z "},"q":{"ha":849,"x_min":47,"x_max":767,"o":"m 578 629 l 581 629 l 581 739 l 767 739 l 767 -287 l 572 -287 l 572 92 l 569 92 q 360 -19 513 -19 q 192 31 263 -19 q 84 167 121 82 q 47 354 47 253 q 85 565 47 474 q 197 708 124 657 q 371 758 269 758 q 487 729 436 758 q 578 629 538 700 m 413 144 q 531 200 486 144 q 576 365 576 256 q 531 531 576 472 q 408 590 485 590 q 290 529 332 590 q 247 356 247 468 q 413 144 247 144 z "},"r":{"ha":540,"x_min":89,"x_max":518,"o":"m 518 756 l 518 558 q 465 561 496 561 q 283 389 283 561 l 283 0 l 89 0 l 89 739 l 275 739 l 275 611 l 278 611 q 367 726 319 693 q 481 758 414 758 q 518 756 488 758 z "},"s":{"ha":772,"x_min":42,"x_max":721,"o":"m 699 514 l 508 514 q 469 590 500 568 q 376 611 438 611 q 288 594 318 611 q 258 539 258 578 q 303 490 258 508 q 446 454 347 472 q 660 372 599 425 q 721 236 721 319 q 630 44 721 107 q 393 -19 539 -19 q 136 49 231 -19 q 42 236 42 118 l 242 236 q 401 128 242 128 q 492 149 458 128 q 526 204 526 171 q 483 256 526 238 q 326 294 439 274 q 132 370 196 318 q 68 511 68 422 q 147 690 68 622 q 367 758 226 758 q 610 694 529 758 q 699 514 692 631 z "},"t":{"ha":463,"x_min":14,"x_max":429,"o":"m 429 739 l 429 600 l 308 600 l 308 188 q 324 149 308 158 q 388 139 340 139 q 429 142 399 139 l 429 -6 q 325 -8 351 -8 q 190 10 236 -8 q 129 63 144 29 q 114 153 114 97 l 114 600 l 14 600 l 14 739 l 114 739 l 114 939 l 308 939 l 308 739 l 429 739 z "},"u":{"ha":849,"x_min":92,"x_max":757,"o":"m 413 144 q 521 190 479 144 q 563 308 563 235 l 563 739 l 757 739 l 757 0 l 571 0 l 571 104 l 568 104 q 343 -19 496 -19 q 158 51 224 -19 q 92 247 92 122 l 92 739 l 286 739 l 286 276 q 318 178 286 213 q 413 144 350 144 z "},"v":{"ha":772,"x_min":18,"x_max":754,"o":"m 390 194 l 547 739 l 754 739 l 488 0 l 283 0 l 18 739 l 235 739 l 388 194 l 390 194 z "},"w":{"ha":1081,"x_min":14,"x_max":1068,"o":"m 339 208 l 443 739 l 639 739 l 750 208 l 753 208 l 868 739 l 1068 739 l 856 0 l 656 0 l 540 539 l 538 539 l 422 0 l 222 0 l 14 739 l 221 739 l 336 208 l 339 208 z "},"x":{"ha":772,"x_min":21,"x_max":751,"o":"m 514 739 l 743 739 l 500 376 l 751 0 l 511 0 l 383 222 l 256 0 l 21 0 l 272 376 l 31 739 l 267 739 l 392 524 l 514 739 z "},"y":{"ha":772,"x_min":14,"x_max":749,"o":"m 392 194 l 543 739 l 749 739 l 489 -10 q 419 -185 451 -115 q 377 -249 400 -225 q 316 -285 354 -274 q 214 -297 278 -297 q 121 -294 190 -297 l 121 -139 l 169 -142 q 250 -117 226 -142 q 286 -31 274 -93 l 14 739 l 231 739 l 389 194 l 392 194 z "},"z":{"ha":694,"x_min":28,"x_max":667,"o":"m 279 160 l 667 160 l 667 0 l 28 0 l 28 151 l 407 583 l 54 583 l 54 739 l 653 739 l 653 579 l 279 160 z "},"{":{"ha":540,"x_min":67,"x_max":507,"o":"m 442 881 q 385 860 404 881 q 367 793 367 839 l 367 525 q 322 418 367 463 q 208 367 278 374 l 208 364 q 322 313 276 358 q 367 206 367 268 l 367 -62 q 385 -129 367 -108 q 442 -150 404 -150 l 507 -150 l 507 -272 l 397 -272 q 253 -219 310 -272 q 197 -86 197 -167 l 197 200 q 162 271 197 242 q 67 301 126 300 l 67 429 q 162 460 126 432 q 197 531 197 489 l 197 817 q 254 951 197 899 q 396 1003 311 1003 l 507 1003 l 507 881 l 442 881 z "},"|":{"ha":389,"x_min":117,"x_max":272,"o":"m 117 -312 l 117 1076 l 272 1076 l 272 -312 l 117 -312 z "},"}":{"ha":540,"x_min":33,"x_max":474,"o":"m 343 817 l 343 531 q 378 460 343 489 q 474 429 414 432 l 474 301 q 378 271 414 300 q 343 200 343 242 l 343 -86 q 287 -219 343 -167 q 143 -272 231 -272 l 33 -272 l 33 -150 l 99 -150 q 155 -129 136 -150 q 174 -62 174 -108 l 174 206 q 219 313 174 268 q 332 364 264 358 l 332 367 q 218 418 263 374 q 174 525 174 463 l 174 793 q 155 860 174 839 q 99 881 136 881 l 33 881 l 33 1003 l 144 1003 q 286 951 229 1003 q 343 817 343 899 z "},"~":{"ha":811,"x_min":85,"x_max":726,"o":"m 553 232 q 484 244 517 232 q 411 278 451 256 q 330 315 367 303 q 253 328 293 328 q 135 226 178 328 l 85 351 q 258 471 146 471 q 337 456 294 471 q 440 414 379 442 q 509 385 482 394 q 554 375 536 375 q 612 396 586 375 q 676 476 638 417 l 726 351 q 643 260 683 288 q 553 232 603 232 z "},"€":{"ha":772,"x_min":3,"x_max":763,"o":"m 574 261 l 763 261 q 665 49 742 125 q 460 -26 589 -26 q 231 68 314 -26 q 128 322 149 163 l 3 322 l 44 426 l 119 426 q 118 489 118 444 l 118 515 l 10 515 l 51 619 l 125 619 q 228 888 147 789 q 458 986 310 986 q 663 909 588 986 q 760 696 739 832 l 571 696 q 531 794 560 760 q 458 829 503 829 q 325 619 347 829 l 621 619 l 579 515 l 318 515 l 318 493 q 319 426 318 443 l 550 426 l 519 322 l 328 322 q 367 189 333 247 q 460 131 401 131 q 574 261 550 131 z "},"‚":{"ha":386,"x_min":96,"x_max":290,"o":"m 100 -203 l 100 -132 q 176 -85 150 -115 q 203 0 201 -56 l 96 0 l 96 176 l 290 176 l 290 29 q 242 -123 290 -62 q 100 -203 194 -183 z "},"ƒ":{"ha":772,"x_min":-14,"x_max":717,"o":"m 717 997 l 683 847 q 644 863 665 857 q 607 868 622 868 q 543 845 565 868 q 511 764 521 822 l 493 663 l 660 663 l 660 528 l 474 528 l 392 28 q 299 -215 365 -137 q 126 -292 233 -292 q 64 -285 93 -292 q -14 -262 35 -279 l 19 -108 q 61 -128 46 -124 q 94 -132 76 -132 q 144 -115 126 -132 q 174 -58 163 -97 q 199 56 186 -19 l 279 528 l 110 528 l 110 663 l 300 663 l 326 786 q 413 966 353 908 q 574 1024 472 1024 q 717 997 644 1024 z "},"„":{"ha":694,"x_min":89,"x_max":606,"o":"m 93 -203 l 93 -132 q 169 -87 144 -117 q 196 0 193 -57 l 89 0 l 89 176 l 283 176 l 283 29 q 235 -123 283 -62 q 93 -203 188 -183 m 415 -203 l 415 -132 q 491 -85 465 -115 q 518 0 517 -56 l 411 0 l 411 176 l 606 176 l 606 29 q 558 -123 606 -62 q 415 -203 510 -183 z "},"…":{"ha":1389,"x_min":128,"x_max":1261,"o":"m 128 0 l 128 203 l 336 203 l 336 0 l 128 0 m 590 0 l 590 203 l 799 203 l 799 0 l 590 0 m 1053 0 l 1053 203 l 1261 203 l 1261 0 l 1053 0 z "},"†":{"ha":772,"x_min":50,"x_max":722,"o":"m 722 693 l 722 538 l 479 538 l 479 -237 l 293 -237 l 293 538 l 50 538 l 50 693 l 293 693 l 293 997 l 479 997 l 479 693 l 722 693 z "},"‡":{"ha":772,"x_min":50,"x_max":722,"o":"m 722 707 l 722 551 l 478 551 l 478 219 l 722 219 l 722 64 l 478 64 l 478 -237 l 292 -237 l 292 64 l 50 64 l 50 219 l 292 219 l 292 551 l 50 551 l 50 707 l 292 707 l 292 997 l 478 997 l 478 707 l 722 707 z "},"ˆ":{"ha":463,"x_min":-14,"x_max":476,"o":"m 319 839 l 231 953 l 143 839 l -14 839 l 144 1042 l 318 1042 l 476 839 l 319 839 z "},"‰":{"ha":1389,"x_min":-4,"x_max":1393,"o":"m 219 539 q 108 569 160 539 q 26 650 57 599 q -4 763 -4 701 q 27 874 -4 822 q 110 956 58 926 q 219 986 161 986 q 331 956 279 986 q 413 874 382 925 q 443 763 443 822 q 413 650 443 701 q 331 569 382 599 q 219 539 279 539 m 111 -26 l 664 986 l 767 986 l 214 -26 l 111 -26 m 304 763 q 279 823 304 799 q 219 847 254 847 q 160 823 185 847 q 135 763 135 799 q 160 702 135 726 q 219 678 185 678 q 279 702 254 678 q 304 763 304 726 m 663 -17 q 551 13 603 -17 q 469 94 500 43 q 439 207 439 146 q 470 319 439 267 q 553 401 501 371 q 663 431 604 431 q 774 400 722 431 q 856 318 825 369 q 886 207 886 267 q 856 94 886 146 q 774 13 825 43 q 663 -17 722 -17 m 1169 -17 q 1058 13 1110 -17 q 976 94 1007 43 q 946 207 946 146 q 977 319 946 267 q 1060 401 1008 371 q 1169 431 1111 431 q 1281 400 1229 431 q 1363 318 1332 369 q 1393 207 1393 267 q 1363 94 1393 146 q 1281 13 1332 43 q 1169 -17 1229 -17 m 747 207 q 722 267 747 243 q 663 292 697 292 q 603 267 628 292 q 578 207 578 243 q 603 147 578 171 q 663 122 628 122 q 722 147 697 122 q 747 207 747 171 m 1254 207 q 1229 267 1254 243 q 1169 292 1204 292 q 1110 267 1135 292 q 1085 207 1085 243 q 1110 147 1085 171 q 1169 122 1135 122 q 1229 147 1204 122 q 1254 207 1254 171 z "},"Š":{"ha":926,"x_min":54,"x_max":874,"o":"m 438 851 q 313 819 361 851 q 264 732 264 786 q 287 666 264 692 q 382 624 310 640 l 617 567 q 817 467 761 532 q 874 300 874 401 q 822 119 874 193 q 681 10 769 46 q 479 -26 592 -26 q 171 57 282 -26 q 54 307 60 140 l 254 307 q 311 188 257 231 q 465 146 365 146 q 620 178 567 146 q 674 275 674 210 q 645 340 674 317 q 550 383 617 364 q 328 438 483 403 q 131 535 192 468 q 69 717 69 601 q 112 875 69 806 q 240 984 154 944 q 453 1024 326 1024 q 655 984 568 1024 q 790 872 742 944 q 842 701 839 799 l 642 701 q 438 851 628 851 m 551 1300 l 708 1300 l 550 1097 l 376 1097 l 218 1300 l 375 1300 l 463 1186 l 551 1300 z "},"‹":{"ha":463,"x_min":115,"x_max":347,"o":"m 208 389 l 347 267 l 347 106 l 115 306 l 115 472 l 347 672 l 347 511 l 208 389 z "},"Œ":{"ha":1389,"x_min":51,"x_max":1335,"o":"m 1335 821 l 872 821 l 872 611 l 1303 611 l 1303 435 l 872 435 l 872 176 l 1335 176 l 1335 0 l 682 0 l 682 69 q 585 -6 635 14 q 463 -26 535 -26 q 262 28 356 -26 q 110 201 168 83 q 51 497 51 318 q 95 760 51 640 q 232 951 139 879 q 467 1024 325 1024 q 586 1004 536 1024 q 682 939 636 985 l 682 997 l 1335 997 l 1335 821 m 668 278 l 668 728 q 617 817 668 782 q 493 851 567 851 q 318 756 381 851 q 256 489 256 661 q 283 317 256 396 q 363 192 310 239 q 488 146 415 146 q 617 184 565 146 q 668 278 668 222 z "},"Ž":{"ha":849,"x_min":35,"x_max":814,"o":"m 289 176 l 814 176 l 814 0 l 35 0 l 35 176 l 550 821 l 49 821 l 49 997 l 811 997 l 811 833 l 289 176 m 513 1300 l 669 1300 l 511 1097 l 338 1097 l 179 1300 l 336 1300 l 424 1186 l 513 1300 z "},"‘":{"ha":386,"x_min":96,"x_max":290,"o":"m 183 807 l 290 807 l 290 631 l 96 631 l 96 771 q 142 929 96 872 q 286 1010 189 986 l 286 939 q 209 894 233 922 q 183 807 185 865 z "},"’":{"ha":386,"x_min":96,"x_max":290,"o":"m 100 618 l 100 689 q 176 735 151 706 q 203 821 201 764 l 96 821 l 96 997 l 290 997 l 290 858 q 244 698 290 756 q 100 618 197 640 z "},"“":{"ha":694,"x_min":89,"x_max":606,"o":"m 176 807 l 283 807 l 283 631 l 89 631 l 89 772 q 135 930 89 874 q 279 1010 182 986 l 279 939 q 202 894 226 922 q 176 807 178 865 m 499 807 l 606 807 l 606 631 l 411 631 l 411 771 q 458 929 411 872 q 601 1010 504 986 l 601 939 q 524 894 549 922 q 499 807 500 865 z "},"”":{"ha":694,"x_min":89,"x_max":606,"o":"m 93 618 l 93 689 q 170 733 146 704 q 196 821 194 763 l 89 821 l 89 997 l 283 997 l 283 858 q 237 699 283 756 q 93 618 190 643 m 415 618 l 415 689 q 492 733 467 704 q 518 821 517 763 l 411 821 l 411 997 l 606 997 l 606 857 q 559 698 606 754 q 415 618 513 642 z "},"•":{"ha":486,"x_min":14,"x_max":472,"o":"m 243 269 q 127 301 179 269 q 44 385 75 332 q 14 500 14 438 q 43 612 14 560 q 125 696 72 664 q 243 728 178 728 q 357 697 304 728 q 441 614 410 667 q 472 500 472 561 q 441 385 472 439 q 357 301 410 332 q 243 269 304 269 z "},"–":{"ha":772,"x_min":0,"x_max":772,"o":"m 0 315 l 0 463 l 772 463 l 772 315 l 0 315 z "},"—":{"ha":1389,"x_min":0,"x_max":1389,"o":"m 0 315 l 0 463 l 1389 463 l 1389 315 l 0 315 z "},"˜":{"ha":463,"x_min":-24,"x_max":486,"o":"m 335 857 q 271 867 310 857 q 192 893 232 876 q 131 907 154 907 q 90 893 106 907 q 65 847 74 879 l -24 847 q 33 974 -10 929 q 144 1018 76 1018 q 190 1011 167 1018 q 267 983 214 1004 q 331 968 308 968 q 374 981 360 968 q 396 1024 389 994 l 486 1024 q 433 900 472 943 q 335 857 393 857 z "},"™":{"ha":1389,"x_min":61,"x_max":1328,"o":"m 375 879 l 375 425 l 219 425 l 219 879 l 61 879 l 61 997 l 535 997 l 535 879 l 375 879 m 1115 997 l 1328 997 l 1328 425 l 1181 425 l 1181 815 l 1178 815 l 1042 425 l 929 425 l 793 815 l 790 815 l 790 425 l 643 425 l 643 997 l 856 997 l 986 650 l 1115 997 z "},"š":{"ha":772,"x_min":42,"x_max":721,"o":"m 699 514 l 508 514 q 469 590 500 568 q 376 611 438 611 q 288 594 318 611 q 258 539 258 578 q 303 490 258 508 q 446 454 347 472 q 660 372 599 425 q 721 236 721 319 q 630 44 721 107 q 393 -19 539 -19 q 136 49 231 -19 q 42 236 42 118 l 242 236 q 401 128 242 128 q 492 149 458 128 q 526 204 526 171 q 483 256 526 238 q 326 294 439 274 q 132 370 196 318 q 68 511 68 422 q 147 690 68 622 q 367 758 226 758 q 610 694 529 758 q 699 514 692 631 m 475 1042 l 632 1042 l 474 839 l 300 839 l 142 1042 l 299 1042 l 386 928 l 475 1042 z "},"›":{"ha":463,"x_min":115,"x_max":347,"o":"m 347 306 l 115 106 l 115 267 l 254 389 l 115 511 l 115 672 l 347 472 l 347 306 z "},"œ":{"ha":1311,"x_min":47,"x_max":1267,"o":"m 919 758 q 1172 656 1078 758 q 1267 360 1267 554 l 1267 317 l 760 317 q 932 136 771 136 q 1012 157 976 136 q 1058 217 1047 178 l 1258 217 q 1140 43 1226 106 q 932 -19 1053 -19 q 780 5 843 -19 q 667 83 717 29 q 568 7 629 33 q 425 -19 507 -19 q 228 28 314 -19 q 94 163 142 75 q 47 369 47 250 q 95 576 47 488 q 229 711 143 664 q 425 758 315 758 q 569 728 500 758 q 679 647 638 697 q 794 734 742 710 q 919 758 847 758 m 915 599 q 765 443 785 599 l 1067 443 q 1020 557 1061 515 q 915 599 979 599 m 603 369 q 557 535 603 476 q 424 594 511 594 q 292 536 338 594 q 247 369 247 478 q 292 202 247 260 q 425 144 338 144 q 558 203 514 144 q 603 369 603 263 z "},"ž":{"ha":694,"x_min":28,"x_max":667,"o":"m 279 160 l 667 160 l 667 0 l 28 0 l 28 151 l 407 583 l 54 583 l 54 739 l 653 739 l 653 579 l 279 160 m 436 1042 l 593 1042 l 435 839 l 261 839 l 103 1042 l 260 1042 l 347 928 l 436 1042 z "},"Ÿ":{"ha":926,"x_min":21,"x_max":907,"o":"m 474 564 l 671 997 l 907 997 l 574 374 l 574 0 l 365 0 l 365 376 l 21 997 l 267 997 l 472 564 l 474 564 m 240 1111 l 240 1271 l 415 1271 l 415 1111 l 240 1111 m 511 1111 l 511 1271 l 686 1271 l 686 1111 l 511 1111 z "}," ":{"ha":386,"x_min":0,"x_max":0,"o":""},"¡":{"ha":463,"x_min":125,"x_max":339,"o":"m 131 543 l 131 739 l 333 739 l 333 543 l 131 543 m 339 -258 l 125 -258 l 125 -4 l 181 463 l 283 463 l 339 -4 l 339 -258 z "},"¢":{"ha":772,"x_min":47,"x_max":728,"o":"m 531 736 q 673 635 624 704 q 728 475 722 567 l 531 475 q 483 569 517 539 l 363 146 q 397 140 375 140 q 488 177 451 140 q 529 269 524 214 l 726 269 q 622 60 711 140 q 389 -19 533 -19 q 318 -14 347 -19 l 275 -164 l 203 -164 l 250 3 q 102 127 157 36 q 47 349 47 218 q 139 653 47 547 q 401 758 231 758 q 464 754 436 758 l 497 872 l 569 872 l 531 736 m 247 378 q 260 251 247 297 q 300 179 274 206 l 418 594 l 406 594 q 288 538 329 594 q 247 378 247 482 z "},"£":{"ha":772,"x_min":39,"x_max":751,"o":"m 393 842 q 294 804 331 842 q 257 714 257 767 q 265 665 257 688 q 303 575 272 643 l 324 529 l 522 529 l 522 446 l 357 446 q 364 374 364 408 q 333 258 364 311 q 222 143 303 206 l 225 140 q 382 176 317 176 q 440 170 413 176 q 507 153 468 164 q 531 146 515 150 q 554 142 546 142 q 694 192 617 142 l 751 40 q 542 -22 649 -22 q 470 -14 506 -22 q 390 8 435 -6 q 329 26 360 18 q 275 33 299 33 q 213 24 247 33 q 119 -15 179 14 l 44 119 q 150 208 101 150 q 199 322 199 267 q 189 388 199 351 q 167 446 179 424 l 39 446 l 39 529 l 119 529 q 72 643 82 608 q 63 725 63 678 q 97 849 63 786 q 208 954 132 911 q 392 997 283 997 q 640 911 551 997 q 729 676 728 825 l 547 676 q 519 779 539 743 q 470 828 500 815 q 393 842 440 842 z "},"¤":{"ha":772,"x_min":-4,"x_max":776,"o":"m 386 793 q 549 747 474 793 l 685 883 l 776 792 l 640 656 q 674 582 661 624 q 686 496 686 540 q 640 333 686 407 l 776 197 l 685 106 l 549 242 q 386 196 474 196 q 299 208 342 196 q 224 242 257 221 l 88 106 l -4 197 l 132 333 q 89 496 89 406 q 101 583 89 540 q 132 656 114 626 l -4 792 l 88 883 l 224 747 q 299 781 257 768 q 386 793 342 793 m 531 496 q 490 607 531 564 q 385 650 450 650 q 283 607 322 650 q 244 496 244 564 q 283 383 244 428 q 386 339 322 339 q 491 383 451 339 q 531 496 531 428 z "},"¥":{"ha":772,"x_min":-12,"x_max":785,"o":"m -12 969 l 196 969 l 389 575 l 576 969 l 785 969 l 575 574 l 753 574 l 753 469 l 522 469 l 481 382 l 753 382 l 753 278 l 479 278 l 479 0 l 303 0 l 303 278 l 31 278 l 31 382 l 303 382 l 258 469 l 31 469 l 31 574 l 204 574 l -12 969 z "},"¦":{"ha":389,"x_min":117,"x_max":272,"o":"m 117 486 l 117 972 l 272 972 l 272 486 l 117 486 m 117 -208 l 117 278 l 272 278 l 272 -208 l 117 -208 z "},"§":{"ha":772,"x_min":47,"x_max":725,"o":"m 381 863 q 307 839 333 863 q 281 783 281 815 q 333 711 281 736 l 557 600 q 688 500 650 554 q 725 379 725 446 q 687 268 725 326 q 593 186 649 210 q 656 108 632 156 q 679 8 679 61 q 640 -131 679 -71 q 532 -223 600 -190 q 378 -256 464 -256 q 170 -183 246 -256 q 88 4 94 -111 l 271 4 q 307 -79 275 -50 q 393 -108 339 -108 q 465 -81 438 -108 q 493 -10 493 -53 q 472 45 493 25 q 386 97 450 65 l 199 193 q 80 286 113 236 q 47 408 47 336 q 79 519 47 478 q 176 600 111 561 q 124 671 143 633 q 104 761 104 708 q 139 886 104 829 q 238 976 174 943 q 385 1010 301 1010 q 588 942 513 1010 q 665 756 663 875 l 489 756 q 459 835 486 807 q 381 863 432 863 m 553 340 q 485 424 553 389 l 271 532 q 229 499 247 525 q 211 446 211 472 q 276 365 211 400 l 493 249 q 553 340 553 282 z "},"¨":{"ha":463,"x_min":8,"x_max":454,"o":"m 8 853 l 8 1013 l 183 1013 l 183 853 l 8 853 m 279 853 l 279 1013 l 454 1013 l 454 853 l 279 853 z "},"©":{"ha":1024,"x_min":-15,"x_max":1040,"o":"m 513 -26 q 244 40 364 -26 q 54 227 124 107 q -15 500 -15 347 q 55 774 -15 656 q 245 958 125 893 q 513 1024 365 1024 q 781 957 660 1024 q 971 771 901 890 q 1040 500 1040 651 q 972 228 1040 349 q 782 41 903 108 q 513 -26 661 -26 m 889 500 q 838 708 889 617 q 701 851 788 800 q 511 903 615 903 q 322 851 408 903 q 186 708 236 800 q 136 500 136 617 q 185 291 136 383 q 320 147 233 199 q 518 96 407 96 q 706 149 621 96 q 840 294 790 201 q 889 500 889 386 m 531 683 q 425 636 463 683 q 388 507 388 589 q 428 376 388 428 q 533 324 469 324 q 619 349 585 324 q 657 421 653 374 l 782 421 q 698 263 768 324 q 533 203 628 203 q 383 242 449 203 q 281 351 317 282 q 244 504 244 419 q 281 661 244 593 q 383 767 318 729 q 531 804 447 804 q 694 749 628 804 q 776 592 760 694 l 657 592 q 614 660 649 638 q 531 683 579 683 z "},"ª":{"ha":514,"x_min":31,"x_max":482,"o":"m 482 586 l 482 568 l 346 568 q 335 621 340 583 q 179 557 276 557 q 71 592 111 557 q 31 686 31 628 q 69 786 31 750 q 194 835 107 822 l 233 839 q 318 854 299 846 q 331 878 331 860 q 253 925 331 925 q 193 911 213 925 q 169 868 174 897 l 49 868 q 108 987 58 950 q 257 1024 158 1024 q 401 990 350 1024 q 453 899 453 957 l 453 650 q 482 586 453 596 m 331 725 l 331 785 q 260 764 311 771 q 183 741 204 756 q 161 693 161 726 q 178 653 161 665 q 219 642 194 642 q 296 666 261 642 q 331 725 331 690 z "},"«":{"ha":772,"x_min":122,"x_max":650,"o":"m 215 389 l 354 267 l 354 106 l 122 306 l 122 472 l 354 672 l 354 511 l 215 389 m 511 389 l 650 267 l 650 106 l 418 306 l 418 472 l 650 672 l 650 511 l 511 389 z "},"¬":{"ha":811,"x_min":56,"x_max":756,"o":"m 600 150 l 600 426 l 56 426 l 56 582 l 756 582 l 756 150 l 600 150 z "},"­":{"ha":463,"x_min":38,"x_max":425,"o":"m 38 299 l 38 479 l 425 479 l 425 299 l 38 299 z "},"®":{"ha":1024,"x_min":-15,"x_max":1040,"o":"m 513 -26 q 244 40 364 -26 q 54 227 124 107 q -15 500 -15 347 q 55 774 -15 656 q 245 958 125 893 q 513 1024 365 1024 q 781 957 660 1024 q 971 771 901 890 q 1040 500 1040 651 q 972 228 1040 349 q 782 41 903 108 q 513 -26 661 -26 m 889 500 q 838 708 889 617 q 701 851 788 800 q 511 903 615 903 q 323 852 408 903 q 187 709 238 801 q 136 500 136 617 q 185 291 136 383 q 320 147 233 199 q 518 96 407 96 q 706 149 621 96 q 840 294 790 201 q 889 500 889 386 m 747 611 q 713 505 747 542 q 611 464 678 468 l 756 217 l 613 217 l 482 454 l 425 454 l 425 217 l 304 217 l 304 782 l 508 782 q 690 744 632 782 q 747 611 747 706 m 618 624 q 594 671 618 656 q 515 686 569 686 l 425 686 l 425 550 l 533 550 q 597 565 576 550 q 618 624 618 581 z "},"¯":{"ha":463,"x_min":-8,"x_max":471,"o":"m -8 839 l -8 942 l 471 942 l 471 839 l -8 839 z "},"°":{"ha":556,"x_min":79,"x_max":476,"o":"m 278 592 q 178 619 224 592 q 106 691 132 646 q 79 790 79 736 q 106 889 79 843 q 179 962 133 935 q 278 989 225 989 q 377 963 331 989 q 450 890 424 936 q 476 790 476 844 q 449 689 476 735 q 376 617 422 643 q 278 592 331 592 m 399 790 q 363 875 399 839 q 278 911 326 911 q 192 876 228 911 q 157 790 157 840 q 192 705 157 740 q 278 669 228 669 q 363 705 328 669 q 399 790 399 740 z "},"±":{"ha":811,"x_min":56,"x_max":756,"o":"m 756 529 l 756 374 l 483 374 l 483 199 l 328 199 l 328 374 l 56 374 l 56 529 l 328 529 l 328 703 l 483 703 l 483 529 l 756 529 m 56 0 l 56 156 l 756 156 l 756 0 l 56 0 z "},"²":{"ha":463,"x_min":13,"x_max":450,"o":"m 315 599 q 192 507 236 551 l 450 507 l 450 393 l 13 393 q 54 532 15 476 q 189 651 93 588 q 291 732 265 701 q 317 810 317 763 q 294 857 317 838 q 235 876 272 876 q 165 853 189 876 q 142 775 142 829 l 19 775 q 75 932 19 878 q 231 986 131 986 q 388 933 328 986 q 449 799 449 881 q 417 687 449 735 q 315 599 385 639 z "},"³":{"ha":463,"x_min":11,"x_max":453,"o":"m 357 707 l 357 704 q 428 654 403 690 q 453 567 453 618 q 393 431 453 485 q 235 376 333 376 q 69 427 126 376 q 11 564 11 478 l 11 574 l 135 574 q 158 503 135 525 q 228 481 181 481 q 317 567 317 481 q 288 628 317 607 q 194 649 260 649 l 179 649 l 179 738 l 201 738 q 277 754 253 738 q 301 810 301 771 q 282 863 301 844 q 226 882 263 882 q 163 860 185 882 q 140 796 140 838 l 22 796 q 76 934 22 882 q 233 986 129 986 q 378 942 322 986 q 433 821 433 899 q 357 707 433 740 z "},"´":{"ha":463,"x_min":150,"x_max":494,"o":"m 150 839 l 281 1042 l 494 1042 l 290 839 l 150 839 z "},"µ":{"ha":849,"x_min":90,"x_max":758,"o":"m 413 144 q 522 195 479 144 q 564 335 564 246 l 564 739 l 758 739 l 758 0 l 572 0 l 572 104 l 569 104 q 505 12 543 43 q 413 -19 467 -19 q 339 -1 371 -19 q 285 60 307 17 l 285 -287 l 90 -287 l 90 739 l 285 739 l 285 303 q 315 188 285 231 q 413 144 346 144 z "},"¶":{"ha":772,"x_min":-11,"x_max":749,"o":"m 593 -265 l 593 854 l 453 854 l 453 -265 l 297 -265 l 297 482 q 69 546 149 482 q -11 724 -11 610 q 71 912 -11 851 q 319 972 153 972 l 749 972 l 749 -265 l 593 -265 z "},"·":{"ha":386,"x_min":81,"x_max":306,"o":"m 193 239 q 113 272 146 239 q 81 351 81 304 q 113 431 81 397 q 193 464 146 464 q 272 431 239 464 q 306 351 306 399 q 274 272 306 306 q 193 239 242 239 z "},"¸":{"ha":463,"x_min":8,"x_max":340,"o":"m 178 -76 q 215 -71 200 -71 q 303 -99 267 -71 q 340 -178 340 -126 q 292 -278 340 -240 q 168 -317 244 -317 q 95 -310 128 -317 q 8 -282 63 -303 l 39 -215 q 144 -237 111 -237 q 191 -223 171 -237 q 211 -183 211 -208 q 195 -147 211 -161 q 157 -133 179 -133 q 101 -144 138 -133 l 72 -117 l 151 0 l 231 0 l 178 -76 z "},"¹":{"ha":463,"x_min":36,"x_max":329,"o":"m 189 393 l 189 797 l 36 797 l 36 883 q 163 908 121 883 q 211 986 204 932 l 329 986 l 329 393 l 189 393 z "},"º":{"ha":507,"x_min":8,"x_max":500,"o":"m 254 557 q 124 588 181 557 q 38 672 68 618 q 8 790 8 725 q 38 908 8 856 q 122 992 67 961 q 254 1024 178 1024 q 386 993 331 1024 q 471 909 442 963 q 500 790 500 856 q 471 673 500 726 q 386 588 442 619 q 254 557 331 557 m 364 790 q 335 885 364 847 q 254 924 306 924 q 174 885 203 924 q 144 790 144 847 q 174 695 144 733 q 254 657 203 657 q 335 695 306 657 q 364 790 364 733 z "},"»":{"ha":772,"x_min":122,"x_max":650,"o":"m 354 306 l 122 106 l 122 267 l 261 389 l 122 511 l 122 672 l 354 472 l 354 306 m 650 306 l 418 106 l 418 267 l 557 389 l 418 511 l 418 672 l 650 472 l 650 306 z "},"¼":{"ha":1158,"x_min":36,"x_max":1064,"o":"m 189 393 l 189 797 l 36 797 l 36 883 q 163 908 121 883 q 211 986 204 933 l 329 986 l 329 393 l 189 393 m 189 -26 l 783 986 l 892 986 l 299 -26 l 189 -26 m 1064 221 l 1064 125 l 994 125 l 994 0 l 863 0 l 863 125 l 608 125 l 608 228 l 844 589 l 994 589 l 994 221 l 1064 221 m 868 218 q 871 472 868 369 l 868 472 l 708 218 l 868 218 z "},"½":{"ha":1158,"x_min":36,"x_max":1103,"o":"m 189 393 l 189 797 l 36 797 l 36 883 q 163 908 121 883 q 211 986 204 932 l 329 986 l 329 393 l 189 393 m 189 -26 l 783 986 l 892 986 l 299 -26 l 189 -26 m 968 207 q 844 115 889 160 l 1103 115 l 1103 1 l 665 1 q 707 140 668 85 q 842 260 746 196 q 944 340 918 310 q 969 418 969 371 q 947 465 969 446 q 888 485 925 485 q 818 461 842 485 q 794 383 794 438 l 672 383 q 728 540 672 486 q 883 594 783 594 q 1041 542 981 594 q 1101 407 1101 489 q 1069 295 1101 343 q 968 207 1038 247 z "},"¾":{"ha":1158,"x_min":22,"x_max":1110,"o":"m 368 707 l 368 704 q 439 654 414 690 q 464 567 464 618 q 404 431 464 485 q 246 376 344 376 q 80 427 138 376 q 22 564 22 478 l 22 574 l 146 574 q 169 503 146 525 q 239 481 192 481 q 328 567 328 481 q 299 628 328 607 q 206 649 271 649 l 190 649 l 190 738 l 213 738 q 288 754 264 738 q 313 810 313 771 q 293 863 313 844 q 238 882 274 882 q 174 860 196 882 q 151 796 151 838 l 33 796 q 87 934 33 882 q 244 986 140 986 q 389 942 333 986 q 444 821 444 899 q 368 707 444 740 m 250 -26 l 844 986 l 953 986 l 360 -26 l 250 -26 m 1110 221 l 1110 125 l 1040 125 l 1040 0 l 908 0 l 908 125 l 654 125 l 654 228 l 890 589 l 1040 589 l 1040 221 l 1110 221 m 908 221 q 911 467 908 426 l 908 467 l 753 221 l 908 221 z "},"¿":{"ha":849,"x_min":76,"x_max":765,"o":"m 518 739 l 518 543 l 315 543 l 315 739 l 518 739 m 253 288 q 315 355 300 322 q 329 450 329 388 l 513 450 l 513 436 q 502 328 513 371 q 463 251 492 286 q 381 175 435 215 q 305 103 325 135 q 285 31 285 72 q 321 -70 285 -33 q 419 -107 357 -107 q 525 -69 489 -107 q 569 54 561 -32 l 765 54 q 724 -119 765 -46 q 606 -232 682 -193 q 432 -271 531 -271 q 246 -236 326 -271 q 121 -137 165 -201 q 76 13 76 -74 q 97 124 76 78 q 153 206 118 171 q 253 288 189 240 z "},"À":{"ha":1003,"x_min":28,"x_max":975,"o":"m 749 0 l 685 206 l 317 206 l 247 0 l 28 0 l 383 997 l 624 997 l 975 0 l 749 0 m 626 378 l 503 772 l 500 772 l 372 378 l 626 378 m 443 1097 l 239 1300 l 453 1300 l 583 1097 l 443 1097 z "},"Á":{"ha":1003,"x_min":28,"x_max":975,"o":"m 749 0 l 685 206 l 317 206 l 247 0 l 28 0 l 383 997 l 624 997 l 975 0 l 749 0 m 626 378 l 503 772 l 500 772 l 372 378 l 626 378 m 421 1097 l 551 1300 l 765 1300 l 561 1097 l 421 1097 z "},"Â":{"ha":1003,"x_min":28,"x_max":975,"o":"m 749 0 l 685 206 l 317 206 l 247 0 l 28 0 l 383 997 l 624 997 l 975 0 l 749 0 m 626 378 l 503 772 l 500 772 l 372 378 l 626 378 m 590 1097 l 501 1211 l 414 1097 l 257 1097 l 415 1300 l 589 1300 l 747 1097 l 590 1097 z "},"Ã":{"ha":1003,"x_min":28,"x_max":975,"o":"m 749 0 l 685 206 l 317 206 l 247 0 l 28 0 l 383 997 l 624 997 l 975 0 l 749 0 m 626 378 l 503 772 l 500 772 l 372 378 l 626 378 m 606 1115 q 542 1125 581 1115 q 463 1151 503 1135 q 401 1165 425 1165 q 360 1151 376 1165 q 336 1106 344 1138 l 247 1106 q 304 1232 261 1188 q 415 1276 347 1276 q 461 1269 438 1276 q 538 1242 485 1263 q 601 1226 579 1226 q 645 1240 631 1226 q 667 1282 660 1253 l 757 1282 q 703 1158 743 1201 q 606 1115 664 1115 z "},"Ä":{"ha":1003,"x_min":28,"x_max":975,"o":"m 749 0 l 685 206 l 317 206 l 247 0 l 28 0 l 383 997 l 624 997 l 975 0 l 749 0 m 626 378 l 503 772 l 500 772 l 372 378 l 626 378 m 279 1111 l 279 1271 l 454 1271 l 454 1111 l 279 1111 m 550 1111 l 550 1271 l 725 1271 l 725 1111 l 550 1111 z "},"Å":{"ha":1003,"x_min":28,"x_max":975,"o":"m 749 0 l 685 206 l 317 206 l 247 0 l 28 0 l 383 997 l 624 997 l 975 0 l 749 0 m 626 378 l 503 772 l 500 772 l 372 378 l 626 378 m 503 1047 q 398 1091 443 1047 q 353 1192 353 1135 q 376 1265 353 1231 q 433 1317 399 1299 q 503 1336 467 1336 q 574 1317 539 1336 q 631 1265 608 1299 q 653 1192 653 1232 q 631 1121 653 1154 q 576 1067 610 1088 q 503 1047 542 1047 m 575 1192 q 554 1243 575 1222 q 503 1264 533 1264 q 451 1243 472 1264 q 431 1192 431 1222 q 451 1140 431 1161 q 503 1119 472 1119 q 554 1140 533 1119 q 575 1192 575 1161 z "},"Æ":{"ha":1389,"x_min":7,"x_max":1325,"o":"m 800 821 l 800 611 l 1264 611 l 1264 435 l 800 435 l 800 176 l 1325 176 l 1325 0 l 596 0 l 596 213 l 297 213 l 225 0 l 7 0 l 371 997 l 1315 997 l 1315 821 l 800 821 m 596 376 l 596 821 l 506 821 l 351 376 l 596 376 z "},"Ç":{"ha":1003,"x_min":61,"x_max":950,"o":"m 521 1024 q 733 978 639 1024 q 884 852 828 932 q 950 671 940 772 l 742 671 q 525 843 701 843 q 342 753 410 843 q 274 496 274 663 q 338 247 274 339 q 521 154 403 154 q 665 202 608 154 q 742 342 722 250 l 950 342 q 813 78 917 172 q 542 -25 708 -17 l 506 -76 q 547 -71 529 -71 q 631 -99 594 -71 q 668 -179 668 -126 q 620 -278 668 -240 q 494 -317 572 -317 q 424 -310 453 -317 q 336 -282 396 -304 l 367 -215 q 472 -237 436 -237 q 519 -223 499 -237 q 539 -183 539 -208 q 523 -147 539 -161 q 485 -133 507 -133 q 429 -144 471 -133 l 400 -117 l 461 -24 q 248 55 338 -11 q 110 233 158 121 q 61 497 61 346 q 119 777 61 658 q 281 960 176 896 q 521 1024 385 1024 z "},"È":{"ha":926,"x_min":106,"x_max":863,"o":"m 310 821 l 310 611 l 796 611 l 796 435 l 310 435 l 310 176 l 863 176 l 863 0 l 106 0 l 106 997 l 839 997 l 839 821 l 310 821 m 404 1097 l 200 1300 l 414 1300 l 544 1097 l 404 1097 z "},"É":{"ha":926,"x_min":106,"x_max":863,"o":"m 310 821 l 310 611 l 796 611 l 796 435 l 310 435 l 310 176 l 863 176 l 863 0 l 106 0 l 106 997 l 839 997 l 839 821 l 310 821 m 382 1097 l 513 1300 l 726 1300 l 522 1097 l 382 1097 z "},"Ê":{"ha":926,"x_min":106,"x_max":863,"o":"m 310 821 l 310 611 l 796 611 l 796 435 l 310 435 l 310 176 l 863 176 l 863 0 l 106 0 l 106 997 l 839 997 l 839 821 l 310 821 m 551 1097 l 463 1211 l 375 1097 l 218 1097 l 376 1300 l 550 1300 l 708 1097 l 551 1097 z "},"Ë":{"ha":926,"x_min":106,"x_max":863,"o":"m 310 821 l 310 611 l 796 611 l 796 435 l 310 435 l 310 176 l 863 176 l 863 0 l 106 0 l 106 997 l 839 997 l 839 821 l 310 821 m 240 1111 l 240 1271 l 415 1271 l 415 1111 l 240 1111 m 511 1111 l 511 1271 l 686 1271 l 686 1111 l 511 1111 z "},"Ì":{"ha":386,"x_min":-67,"x_max":297,"o":"m 89 0 l 89 997 l 297 997 l 297 0 l 89 0 m 138 1097 l -67 1300 l 147 1300 l 278 1097 l 138 1097 z "},"Í":{"ha":386,"x_min":89,"x_max":460,"o":"m 89 0 l 89 997 l 297 997 l 297 0 l 89 0 m 115 1097 l 246 1300 l 460 1300 l 256 1097 l 115 1097 z "},"Î":{"ha":386,"x_min":-49,"x_max":442,"o":"m 89 0 l 89 997 l 297 997 l 297 0 l 89 0 m 285 1097 l 196 1211 l 108 1097 l -49 1097 l 110 1300 l 283 1300 l 442 1097 l 285 1097 z "},"Ï":{"ha":386,"x_min":-26,"x_max":419,"o":"m 89 0 l 89 997 l 297 997 l 297 0 l 89 0 m -26 1111 l -26 1271 l 149 1271 l 149 1111 l -26 1111 m 244 1111 l 244 1271 l 419 1271 l 419 1111 l 244 1111 z "},"Ð":{"ha":1003,"x_min":-7,"x_max":951,"o":"m 951 522 q 900 242 951 360 q 756 62 849 124 q 544 0 664 0 l 106 0 l 106 490 l -7 490 l -7 611 l 106 611 l 106 997 l 553 997 q 774 935 685 997 q 908 767 864 874 q 951 522 951 660 m 540 490 l 310 490 l 310 172 l 517 172 q 679 263 619 172 q 739 508 739 353 q 518 825 739 825 l 310 825 l 310 611 l 540 611 l 540 490 z "},"Ñ":{"ha":1003,"x_min":96,"x_max":908,"o":"m 714 303 l 714 997 l 908 997 l 908 0 l 700 0 l 293 711 l 290 711 l 290 0 l 96 0 l 96 997 l 315 997 l 711 303 l 714 303 m 606 1115 q 542 1125 581 1115 q 463 1151 503 1135 q 401 1165 425 1165 q 360 1151 376 1165 q 336 1106 344 1138 l 247 1106 q 304 1232 261 1188 q 415 1276 347 1276 q 461 1269 438 1276 q 538 1242 485 1263 q 601 1226 579 1226 q 645 1240 631 1226 q 667 1282 660 1253 l 757 1282 q 703 1158 743 1201 q 606 1115 664 1115 z "},"Ò":{"ha":1081,"x_min":61,"x_max":1019,"o":"m 540 -26 q 293 33 401 -26 q 123 210 185 92 q 61 499 61 328 q 122 785 61 667 q 292 964 183 904 q 540 1024 400 1024 q 789 963 681 1024 q 958 783 897 901 q 1019 499 1019 665 q 958 210 1019 329 q 787 33 896 92 q 540 -26 678 -26 m 811 499 q 737 756 811 665 q 539 847 663 847 q 344 756 418 847 q 269 499 269 665 q 343 241 269 332 q 540 150 417 150 q 738 241 664 150 q 811 499 811 332 m 482 1097 l 278 1300 l 492 1300 l 622 1097 l 482 1097 z "},"Ó":{"ha":1081,"x_min":61,"x_max":1019,"o":"m 540 -26 q 293 33 401 -26 q 123 210 185 92 q 61 499 61 328 q 122 785 61 667 q 292 964 183 904 q 540 1024 400 1024 q 789 963 681 1024 q 958 783 897 901 q 1019 499 1019 665 q 958 210 1019 329 q 787 33 896 92 q 540 -26 678 -26 m 811 499 q 737 756 811 665 q 539 847 663 847 q 344 756 418 847 q 269 499 269 665 q 343 241 269 332 q 540 150 417 150 q 738 241 664 150 q 811 499 811 332 m 460 1097 l 590 1300 l 804 1300 l 600 1097 l 460 1097 z "},"Ô":{"ha":1081,"x_min":61,"x_max":1019,"o":"m 540 -26 q 293 33 401 -26 q 123 210 185 92 q 61 499 61 328 q 122 785 61 667 q 292 964 183 904 q 540 1024 400 1024 q 789 963 681 1024 q 958 783 897 901 q 1019 499 1019 665 q 958 210 1019 329 q 787 33 896 92 q 540 -26 678 -26 m 811 499 q 737 756 811 665 q 539 847 663 847 q 344 756 418 847 q 269 499 269 665 q 343 241 269 332 q 540 150 417 150 q 738 241 664 150 q 811 499 811 332 m 629 1097 l 540 1211 l 453 1097 l 296 1097 l 454 1300 l 628 1300 l 786 1097 l 629 1097 z "},"Õ":{"ha":1081,"x_min":61,"x_max":1019,"o":"m 540 -26 q 293 33 401 -26 q 123 210 185 92 q 61 499 61 328 q 122 785 61 667 q 292 964 183 904 q 540 1024 400 1024 q 789 963 681 1024 q 958 783 897 901 q 1019 499 1019 665 q 958 210 1019 329 q 787 33 896 92 q 540 -26 678 -26 m 811 499 q 737 756 811 665 q 539 847 663 847 q 344 756 418 847 q 269 499 269 665 q 343 241 269 332 q 540 150 417 150 q 738 241 664 150 q 811 499 811 332 m 644 1115 q 581 1125 619 1115 q 501 1151 542 1135 q 440 1165 464 1165 q 399 1151 415 1165 q 375 1106 383 1138 l 286 1106 q 343 1232 300 1188 q 454 1276 386 1276 q 500 1269 476 1276 q 576 1242 524 1263 q 640 1226 618 1226 q 684 1240 669 1226 q 706 1282 699 1253 l 796 1282 q 742 1158 782 1201 q 644 1115 703 1115 z "},"Ö":{"ha":1081,"x_min":61,"x_max":1019,"o":"m 540 -26 q 293 33 401 -26 q 123 210 185 92 q 61 499 61 328 q 122 785 61 667 q 292 964 183 904 q 540 1024 400 1024 q 789 963 681 1024 q 958 783 897 901 q 1019 499 1019 665 q 958 210 1019 329 q 787 33 896 92 q 540 -26 678 -26 m 811 499 q 737 756 811 665 q 539 847 663 847 q 344 756 418 847 q 269 499 269 665 q 343 241 269 332 q 540 150 417 150 q 738 241 664 150 q 811 499 811 332 m 318 1111 l 318 1271 l 493 1271 l 493 1111 l 318 1111 m 589 1111 l 589 1271 l 764 1271 l 764 1111 l 589 1111 z "},"×":{"ha":811,"x_min":56,"x_max":757,"o":"m 756 592 l 515 351 l 757 111 l 646 1 l 406 242 l 167 1 l 56 111 l 296 351 l 56 592 l 165 701 l 406 461 l 646 701 l 756 592 z "},"Ø":{"ha":1081,"x_min":46,"x_max":1033,"o":"m 917 854 q 992 702 965 788 q 1019 499 1019 617 q 956 206 1019 324 q 783 31 892 88 q 538 -26 674 -26 q 365 3 447 -26 q 218 88 282 32 l 104 -37 l 46 15 l 164 144 q 61 499 61 278 q 123 787 61 668 q 293 965 185 906 q 540 1024 401 1024 q 715 994 631 1024 q 863 911 799 964 l 975 1035 l 1033 982 l 917 854 m 539 847 q 344 756 418 847 q 269 499 269 665 q 307 303 269 382 l 729 765 q 640 828 690 808 q 539 847 590 847 m 540 150 q 737 240 663 150 q 811 499 811 331 q 772 696 811 624 l 350 233 q 440 169 390 189 q 540 150 489 150 z "},"Ù":{"ha":1003,"x_min":100,"x_max":904,"o":"m 492 150 q 692 339 692 150 l 692 997 l 904 997 l 904 342 q 800 69 904 164 q 494 -26 696 -26 q 205 67 310 -26 q 100 340 100 160 l 100 997 l 313 997 l 313 344 q 360 203 313 256 q 492 150 408 150 m 443 1097 l 239 1300 l 453 1300 l 583 1097 l 443 1097 z "},"Ú":{"ha":1003,"x_min":100,"x_max":904,"o":"m 492 150 q 692 339 692 150 l 692 997 l 904 997 l 904 342 q 800 69 904 164 q 494 -26 696 -26 q 205 67 310 -26 q 100 340 100 160 l 100 997 l 313 997 l 313 344 q 360 203 313 256 q 492 150 408 150 m 421 1097 l 551 1300 l 765 1300 l 561 1097 l 421 1097 z "},"Û":{"ha":1003,"x_min":100,"x_max":904,"o":"m 492 150 q 692 339 692 150 l 692 997 l 904 997 l 904 342 q 800 69 904 164 q 494 -26 696 -26 q 205 67 310 -26 q 100 340 100 160 l 100 997 l 313 997 l 313 344 q 360 203 313 256 q 492 150 408 150 m 590 1097 l 501 1211 l 414 1097 l 257 1097 l 415 1300 l 589 1300 l 747 1097 l 590 1097 z "},"Ü":{"ha":1003,"x_min":100,"x_max":904,"o":"m 492 150 q 692 339 692 150 l 692 997 l 904 997 l 904 342 q 800 69 904 164 q 494 -26 696 -26 q 205 67 310 -26 q 100 340 100 160 l 100 997 l 313 997 l 313 344 q 360 203 313 256 q 492 150 408 150 m 279 1111 l 279 1271 l 454 1271 l 454 1111 l 279 1111 m 550 1111 l 550 1271 l 725 1271 l 725 1111 l 550 1111 z "},"Ý":{"ha":926,"x_min":21,"x_max":907,"o":"m 474 564 l 671 997 l 907 997 l 574 374 l 574 0 l 365 0 l 365 376 l 21 997 l 267 997 l 472 564 l 474 564 m 382 1097 l 513 1300 l 726 1300 l 522 1097 l 382 1097 z "},"Þ":{"ha":926,"x_min":106,"x_max":871,"o":"m 567 861 q 725 822 656 861 q 833 710 794 783 q 871 540 871 638 q 837 390 871 463 q 733 269 803 317 q 558 221 663 221 l 314 221 l 314 0 l 106 0 l 106 997 l 314 997 l 314 861 l 567 861 m 663 549 q 620 656 663 622 q 486 689 578 689 l 314 689 l 314 393 l 513 393 q 663 549 663 393 z "},"ß":{"ha":849,"x_min":96,"x_max":804,"o":"m 646 571 q 765 475 725 536 q 804 318 804 414 q 766 144 804 221 q 651 24 728 68 q 467 -19 575 -19 q 388 -11 438 -19 l 388 142 q 425 140 396 140 q 567 185 524 142 q 610 313 610 228 q 565 433 610 392 q 418 481 521 474 l 397 482 l 397 617 q 519 645 485 618 q 553 738 553 672 q 517 829 553 799 q 413 860 481 860 q 324 827 357 860 q 290 740 290 794 l 290 0 l 96 0 l 96 746 q 135 886 96 825 q 247 981 174 947 q 418 1015 319 1015 q 662 946 576 1015 q 747 744 747 876 q 718 638 747 685 q 646 571 689 592 z "},"à":{"ha":772,"x_min":40,"x_max":732,"o":"m 732 29 l 732 0 l 522 0 q 504 88 506 49 q 394 6 451 31 q 265 -19 338 -19 q 102 39 164 -19 q 40 196 40 97 q 91 351 40 289 q 272 435 142 413 l 411 456 q 481 476 464 464 q 499 518 499 489 q 469 581 499 560 q 371 603 439 603 q 251 500 261 603 l 64 500 q 149 692 75 626 q 389 758 224 758 q 610 703 531 758 q 689 550 689 647 l 689 138 q 699 62 689 86 q 732 29 710 38 m 499 268 l 499 360 q 444 335 474 344 q 360 318 415 326 q 266 284 297 310 q 235 208 235 258 q 260 144 235 168 q 325 119 285 119 q 408 138 368 119 q 474 191 449 157 q 499 268 499 225 m 328 839 l 124 1042 l 336 1042 l 468 839 l 328 839 z "},"á":{"ha":772,"x_min":40,"x_max":732,"o":"m 732 29 l 732 0 l 522 0 q 504 88 506 49 q 394 6 451 31 q 265 -19 338 -19 q 102 39 164 -19 q 40 196 40 97 q 91 351 40 289 q 272 435 142 413 l 411 456 q 481 476 464 464 q 499 518 499 489 q 469 581 499 560 q 371 603 439 603 q 251 500 261 603 l 64 500 q 149 692 75 626 q 389 758 224 758 q 610 703 531 758 q 689 550 689 647 l 689 138 q 699 62 689 86 q 732 29 710 38 m 499 268 l 499 360 q 444 335 474 344 q 360 318 415 326 q 266 284 297 310 q 235 208 235 258 q 260 144 235 168 q 325 119 285 119 q 408 138 368 119 q 474 191 449 157 q 499 268 499 225 m 306 839 l 436 1042 l 650 1042 l 446 839 l 306 839 z "},"â":{"ha":772,"x_min":40,"x_max":732,"o":"m 732 29 l 732 0 l 522 0 q 504 88 506 49 q 394 6 451 31 q 265 -19 338 -19 q 102 39 164 -19 q 40 196 40 97 q 91 351 40 289 q 272 435 142 413 l 411 456 q 481 476 464 464 q 499 518 499 489 q 469 581 499 560 q 371 603 439 603 q 251 500 261 603 l 64 500 q 149 692 75 626 q 389 758 224 758 q 610 703 531 758 q 689 550 689 647 l 689 138 q 699 62 689 86 q 732 29 710 38 m 499 268 l 499 360 q 444 335 474 344 q 360 318 415 326 q 266 284 297 310 q 235 208 235 258 q 260 144 235 168 q 325 119 285 119 q 408 138 368 119 q 474 191 449 157 q 499 268 499 225 m 475 839 l 386 953 l 299 839 l 142 839 l 300 1042 l 474 1042 l 632 839 l 475 839 z "},"ã":{"ha":772,"x_min":40,"x_max":732,"o":"m 732 29 l 732 0 l 522 0 q 504 88 506 49 q 394 6 451 31 q 265 -19 338 -19 q 102 39 164 -19 q 40 196 40 97 q 91 351 40 289 q 272 435 142 413 l 411 456 q 481 476 464 464 q 499 518 499 489 q 469 581 499 560 q 371 603 439 603 q 251 500 261 603 l 64 500 q 149 692 75 626 q 389 758 224 758 q 610 703 531 758 q 689 550 689 647 l 689 138 q 699 62 689 86 q 732 29 710 38 m 499 268 l 499 360 q 444 335 474 344 q 360 318 415 326 q 266 284 297 310 q 235 208 235 258 q 260 144 235 168 q 325 119 285 119 q 408 138 368 119 q 474 191 449 157 q 499 268 499 225 m 490 857 q 426 867 465 857 q 347 893 388 876 q 286 907 310 907 q 245 893 261 907 q 221 847 229 879 l 132 847 q 189 974 146 929 q 300 1018 232 1018 q 346 1011 322 1018 q 422 983 369 1004 q 486 968 464 968 q 530 981 515 968 q 551 1024 544 994 l 642 1024 q 588 900 628 943 q 490 857 549 857 z "},"ä":{"ha":772,"x_min":40,"x_max":732,"o":"m 732 29 l 732 0 l 522 0 q 504 88 506 49 q 394 6 451 31 q 265 -19 338 -19 q 102 39 164 -19 q 40 196 40 97 q 91 351 40 289 q 272 435 142 413 l 411 456 q 481 476 464 464 q 499 518 499 489 q 469 581 499 560 q 371 603 439 603 q 251 500 261 603 l 64 500 q 149 692 75 626 q 389 758 224 758 q 610 703 531 758 q 689 550 689 647 l 689 138 q 699 62 689 86 q 732 29 710 38 m 499 268 l 499 360 q 444 335 474 344 q 360 318 415 326 q 266 284 297 310 q 235 208 235 258 q 260 144 235 168 q 325 119 285 119 q 408 138 368 119 q 474 191 449 157 q 499 268 499 225 m 164 853 l 164 1013 l 339 1013 l 339 853 l 164 853 m 435 853 l 435 1013 l 610 1013 l 610 853 l 435 853 z "},"å":{"ha":772,"x_min":40,"x_max":732,"o":"m 732 29 l 732 0 l 522 0 q 504 88 506 49 q 394 6 451 31 q 265 -19 338 -19 q 102 39 164 -19 q 40 196 40 97 q 91 351 40 289 q 272 435 142 413 l 411 456 q 481 476 464 464 q 499 518 499 489 q 469 581 499 560 q 371 603 439 603 q 251 500 261 603 l 64 500 q 149 692 75 626 q 389 758 224 758 q 610 703 531 758 q 689 550 689 647 l 689 138 q 699 62 689 86 q 732 29 710 38 m 499 268 l 499 360 q 444 335 474 344 q 360 318 415 326 q 266 284 297 310 q 235 208 235 258 q 260 144 235 168 q 325 119 285 119 q 408 138 368 119 q 474 191 449 157 q 499 268 499 225 m 388 789 q 283 833 328 789 q 238 933 238 876 q 260 1007 238 972 q 319 1060 283 1042 q 388 1078 354 1078 q 458 1059 424 1078 q 515 1007 493 1040 q 538 933 538 974 q 516 862 538 896 q 460 808 494 828 q 388 789 425 789 m 460 933 q 439 985 460 964 q 388 1006 418 1006 q 336 985 357 1006 q 315 933 315 964 q 336 882 315 903 q 388 861 357 861 q 439 882 418 861 q 460 933 460 903 z "},"æ":{"ha":1235,"x_min":40,"x_max":1192,"o":"m 846 758 q 1101 652 1010 758 q 1192 357 1192 546 l 1192 317 l 685 317 q 858 136 694 136 q 937 157 901 136 q 983 217 972 178 l 1183 217 q 1066 43 1153 106 q 853 -19 979 -19 q 696 6 758 -19 q 582 100 633 32 q 472 12 546 43 q 303 -19 397 -19 q 109 37 178 -19 q 40 206 40 93 q 90 349 40 294 q 238 419 139 403 l 407 449 q 474 463 456 457 q 501 481 492 468 q 510 525 510 494 q 476 585 510 567 q 375 603 442 603 q 287 576 317 603 q 257 499 257 549 l 67 499 q 400 758 82 758 q 526 738 468 758 q 628 676 585 717 q 846 758 728 758 m 840 599 q 690 443 710 599 l 992 443 q 945 557 986 515 q 840 599 904 599 m 506 263 l 506 354 q 449 328 483 336 q 343 310 415 319 q 260 277 285 301 q 235 206 235 253 q 263 142 235 164 q 343 119 292 119 q 421 139 383 119 q 482 192 458 158 q 506 263 506 225 z "},"ç":{"ha":772,"x_min":47,"x_max":728,"o":"m 435 -17 l 393 -76 q 433 -71 415 -71 q 519 -99 483 -71 q 556 -179 556 -128 q 508 -278 556 -240 q 382 -317 460 -317 q 310 -310 342 -317 q 224 -282 279 -303 l 254 -215 q 360 -237 324 -237 q 406 -223 386 -237 q 426 -183 426 -208 q 410 -147 426 -161 q 372 -133 394 -133 q 317 -144 358 -133 l 288 -117 l 353 -18 q 126 91 204 -7 q 47 349 47 189 q 139 653 47 547 q 401 758 231 758 q 563 725 490 758 q 678 627 635 692 q 728 475 722 563 l 531 475 q 491 562 522 529 q 406 594 460 594 q 288 536 328 594 q 247 369 247 478 q 288 192 247 243 q 397 140 328 140 q 488 177 451 140 q 529 269 524 214 l 726 269 q 632 71 711 150 q 435 -17 553 -8 z "},"è":{"ha":772,"x_min":32,"x_max":733,"o":"m 400 136 q 478 157 443 136 q 525 217 514 178 l 725 217 q 607 42 693 104 q 400 -19 521 -19 q 124 82 217 -19 q 32 383 32 183 q 73 578 32 493 q 193 710 114 663 q 385 758 272 758 q 638 657 543 758 q 733 350 733 556 l 733 317 l 226 317 q 400 136 236 136 m 382 599 q 232 443 249 599 l 533 443 q 486 557 526 515 q 382 599 446 599 m 328 839 l 124 1042 l 336 1042 l 468 839 l 328 839 z "},"é":{"ha":772,"x_min":32,"x_max":733,"o":"m 400 136 q 478 157 443 136 q 525 217 514 178 l 725 217 q 607 42 693 104 q 400 -19 521 -19 q 124 82 217 -19 q 32 383 32 183 q 73 578 32 493 q 193 710 114 663 q 385 758 272 758 q 638 657 543 758 q 733 350 733 556 l 733 317 l 226 317 q 400 136 236 136 m 382 599 q 232 443 249 599 l 533 443 q 486 557 526 515 q 382 599 446 599 m 306 839 l 436 1042 l 650 1042 l 446 839 l 306 839 z "},"ê":{"ha":772,"x_min":32,"x_max":733,"o":"m 400 136 q 478 157 443 136 q 525 217 514 178 l 725 217 q 607 42 693 104 q 400 -19 521 -19 q 124 82 217 -19 q 32 383 32 183 q 73 578 32 493 q 193 710 114 663 q 385 758 272 758 q 638 657 543 758 q 733 350 733 556 l 733 317 l 226 317 q 400 136 236 136 m 382 599 q 232 443 249 599 l 533 443 q 486 557 526 515 q 382 599 446 599 m 475 839 l 386 953 l 299 839 l 142 839 l 300 1042 l 474 1042 l 632 839 l 475 839 z "},"ë":{"ha":772,"x_min":32,"x_max":733,"o":"m 400 136 q 478 157 443 136 q 525 217 514 178 l 725 217 q 607 42 693 104 q 400 -19 521 -19 q 124 82 217 -19 q 32 383 32 183 q 73 578 32 493 q 193 710 114 663 q 385 758 272 758 q 638 657 543 758 q 733 350 733 556 l 733 317 l 226 317 q 400 136 236 136 m 382 599 q 232 443 249 599 l 533 443 q 486 557 526 515 q 382 599 446 599 m 164 853 l 164 1013 l 339 1013 l 339 853 l 164 853 m 435 853 l 435 1013 l 610 1013 l 610 853 l 435 853 z "},"ì":{"ha":386,"x_min":-67,"x_max":290,"o":"m 96 0 l 96 739 l 290 739 l 290 0 l 96 0 m 138 839 l -67 1042 l 146 1042 l 278 839 l 138 839 z "},"í":{"ha":386,"x_min":96,"x_max":460,"o":"m 96 0 l 96 739 l 290 739 l 290 0 l 96 0 m 115 839 l 246 1042 l 460 1042 l 256 839 l 115 839 z "},"î":{"ha":386,"x_min":-49,"x_max":442,"o":"m 96 0 l 96 739 l 290 739 l 290 0 l 96 0 m 285 839 l 196 953 l 108 839 l -49 839 l 110 1042 l 283 1042 l 442 839 l 285 839 z "},"ï":{"ha":386,"x_min":-26,"x_max":419,"o":"m 96 0 l 96 739 l 290 739 l 290 0 l 96 0 m -26 853 l -26 1013 l 149 1013 l 149 853 l -26 853 m 244 853 l 244 1013 l 419 1013 l 419 853 l 244 853 z "},"ð":{"ha":849,"x_min":47,"x_max":803,"o":"m 500 963 l 642 1024 l 728 951 l 588 890 q 747 668 690 792 q 803 407 803 544 q 755 180 803 276 q 622 32 707 83 q 428 -19 536 -19 q 228 26 314 -19 q 95 159 143 72 q 47 365 47 246 q 91 551 47 468 q 213 680 135 633 q 389 726 290 726 q 489 706 443 726 q 561 650 535 685 l 564 653 q 508 739 544 694 q 429 821 472 783 l 279 756 l 192 828 l 342 893 q 240 956 292 931 l 390 1024 q 500 963 464 989 m 603 368 q 556 506 603 450 q 424 563 508 563 q 294 502 340 563 q 247 361 247 442 q 295 201 247 257 q 426 144 343 144 q 557 205 511 144 q 603 368 603 265 z "},"ñ":{"ha":849,"x_min":90,"x_max":758,"o":"m 758 517 l 758 0 l 564 0 l 564 468 q 531 562 564 529 q 438 594 499 594 q 327 550 369 594 q 285 429 285 506 l 285 0 l 90 0 l 90 739 l 276 739 l 276 631 l 279 631 q 371 727 314 696 q 501 758 428 758 q 636 727 578 758 q 726 641 694 696 q 758 517 758 586 m 528 857 q 464 867 503 857 q 385 893 425 876 q 324 907 347 907 q 283 893 299 907 q 258 847 267 879 l 169 847 q 226 974 183 929 q 338 1018 269 1018 q 383 1011 360 1018 q 460 983 407 1004 q 524 968 501 968 q 567 981 553 968 q 589 1024 582 994 l 679 1024 q 626 900 665 943 q 528 857 586 857 z "},"ò":{"ha":849,"x_min":47,"x_max":803,"o":"m 803 369 q 756 163 803 250 q 622 28 708 75 q 425 -19 536 -19 q 228 28 314 -19 q 94 163 142 75 q 47 369 47 250 q 95 577 47 489 q 229 712 143 665 q 425 758 315 758 q 622 711 536 758 q 756 576 708 664 q 803 369 803 489 m 425 144 q 558 203 514 144 q 603 369 603 263 q 558 535 603 476 q 424 594 513 594 q 293 536 339 594 q 247 369 247 478 q 292 202 247 260 q 425 144 338 144 m 365 839 l 161 1042 l 374 1042 l 506 839 l 365 839 z "},"ó":{"ha":849,"x_min":47,"x_max":803,"o":"m 803 369 q 756 163 803 250 q 622 28 708 75 q 425 -19 536 -19 q 228 28 314 -19 q 94 163 142 75 q 47 369 47 250 q 95 577 47 489 q 229 712 143 665 q 425 758 315 758 q 622 711 536 758 q 756 576 708 664 q 803 369 803 489 m 425 144 q 558 203 514 144 q 603 369 603 263 q 558 535 603 476 q 424 594 513 594 q 293 536 339 594 q 247 369 247 478 q 292 202 247 260 q 425 144 338 144 m 343 839 l 474 1042 l 688 1042 l 483 839 l 343 839 z "},"ô":{"ha":849,"x_min":47,"x_max":803,"o":"m 803 369 q 756 163 803 250 q 622 28 708 75 q 425 -19 536 -19 q 228 28 314 -19 q 94 163 142 75 q 47 369 47 250 q 95 577 47 489 q 229 712 143 665 q 425 758 315 758 q 622 711 536 758 q 756 576 708 664 q 803 369 803 489 m 425 144 q 558 203 514 144 q 603 369 603 263 q 558 535 603 476 q 424 594 513 594 q 293 536 339 594 q 247 369 247 478 q 292 202 247 260 q 425 144 338 144 m 513 839 l 424 953 l 336 839 l 179 839 l 338 1042 l 511 1042 l 669 839 l 513 839 z "},"õ":{"ha":849,"x_min":47,"x_max":803,"o":"m 803 369 q 756 163 803 250 q 622 28 708 75 q 425 -19 536 -19 q 228 28 314 -19 q 94 163 142 75 q 47 369 47 250 q 95 577 47 489 q 229 712 143 665 q 425 758 315 758 q 622 711 536 758 q 756 576 708 664 q 803 369 803 489 m 425 144 q 558 203 514 144 q 603 369 603 263 q 558 535 603 476 q 424 594 513 594 q 293 536 339 594 q 247 369 247 478 q 292 202 247 260 q 425 144 338 144 m 528 857 q 464 867 503 857 q 385 893 425 876 q 324 907 347 907 q 283 893 299 907 q 258 847 267 879 l 169 847 q 226 974 183 929 q 338 1018 269 1018 q 383 1011 360 1018 q 460 983 407 1004 q 524 968 501 968 q 567 981 553 968 q 589 1024 582 994 l 679 1024 q 626 900 665 943 q 528 857 586 857 z "},"ö":{"ha":849,"x_min":47,"x_max":803,"o":"m 803 369 q 756 163 803 250 q 622 28 708 75 q 425 -19 536 -19 q 228 28 314 -19 q 94 163 142 75 q 47 369 47 250 q 95 577 47 489 q 229 712 143 665 q 425 758 315 758 q 622 711 536 758 q 756 576 708 664 q 803 369 803 489 m 425 144 q 558 203 514 144 q 603 369 603 263 q 558 535 603 476 q 424 594 513 594 q 293 536 339 594 q 247 369 247 478 q 292 202 247 260 q 425 144 338 144 m 201 853 l 201 1013 l 376 1013 l 376 853 l 201 853 m 472 853 l 472 1013 l 647 1013 l 647 853 l 472 853 z "},"÷":{"ha":811,"x_min":56,"x_max":756,"o":"m 408 515 q 321 551 358 515 q 283 638 283 588 q 320 725 283 689 q 407 761 357 761 q 493 724 457 761 q 529 638 529 688 q 492 553 529 590 q 408 515 456 515 m 56 274 l 56 429 l 756 429 l 756 274 l 56 274 m 408 -58 q 321 -23 358 -58 q 283 64 283 13 q 320 152 283 117 q 407 188 357 188 q 493 151 457 188 q 529 64 529 114 q 491 -22 529 15 q 408 -58 453 -58 z "},"ø":{"ha":849,"x_min":31,"x_max":818,"o":"m 719 631 q 803 369 803 529 q 756 161 803 249 q 623 27 708 74 q 425 -19 538 -19 q 179 61 278 -19 l 83 -40 l 31 0 l 132 107 q 47 369 47 210 q 95 577 47 489 q 229 712 143 665 q 425 758 315 758 q 674 676 567 758 l 769 778 l 818 733 l 719 631 m 424 594 q 293 536 339 594 q 247 369 247 478 q 268 249 247 301 l 550 546 q 497 583 528 571 q 424 594 467 594 m 425 144 q 558 203 514 144 q 603 369 603 263 q 583 488 603 440 l 303 192 q 425 144 346 144 z "},"ù":{"ha":849,"x_min":92,"x_max":757,"o":"m 413 144 q 521 190 479 144 q 563 308 563 235 l 563 739 l 757 739 l 757 0 l 571 0 l 571 104 l 568 104 q 343 -19 496 -19 q 158 51 224 -19 q 92 247 92 122 l 92 739 l 286 739 l 286 276 q 318 178 286 213 q 413 144 350 144 m 365 839 l 161 1042 l 374 1042 l 506 839 l 365 839 z "},"ú":{"ha":849,"x_min":92,"x_max":757,"o":"m 413 144 q 521 190 479 144 q 563 308 563 235 l 563 739 l 757 739 l 757 0 l 571 0 l 571 104 l 568 104 q 343 -19 496 -19 q 158 51 224 -19 q 92 247 92 122 l 92 739 l 286 739 l 286 276 q 318 178 286 213 q 413 144 350 144 m 343 839 l 474 1042 l 688 1042 l 483 839 l 343 839 z "},"û":{"ha":849,"x_min":92,"x_max":757,"o":"m 413 144 q 521 190 479 144 q 563 308 563 235 l 563 739 l 757 739 l 757 0 l 571 0 l 571 104 l 568 104 q 343 -19 496 -19 q 158 51 224 -19 q 92 247 92 122 l 92 739 l 286 739 l 286 276 q 318 178 286 213 q 413 144 350 144 m 513 839 l 424 953 l 336 839 l 179 839 l 338 1042 l 511 1042 l 669 839 l 513 839 z "},"ü":{"ha":849,"x_min":92,"x_max":757,"o":"m 413 144 q 521 190 479 144 q 563 308 563 235 l 563 739 l 757 739 l 757 0 l 571 0 l 571 104 l 568 104 q 343 -19 496 -19 q 158 51 224 -19 q 92 247 92 122 l 92 739 l 286 739 l 286 276 q 318 178 286 213 q 413 144 350 144 m 201 853 l 201 1013 l 376 1013 l 376 853 l 201 853 m 472 853 l 472 1013 l 647 1013 l 647 853 l 472 853 z "},"ý":{"ha":772,"x_min":14,"x_max":749,"o":"m 392 194 l 543 739 l 749 739 l 489 -10 q 419 -185 451 -115 q 377 -249 400 -225 q 316 -285 354 -274 q 214 -297 278 -297 q 121 -294 190 -297 l 121 -139 l 169 -142 q 250 -117 226 -142 q 286 -31 274 -93 l 14 739 l 231 739 l 389 194 l 392 194 m 306 839 l 436 1042 l 650 1042 l 446 839 l 306 839 z "},"þ":{"ha":849,"x_min":86,"x_max":803,"o":"m 283 644 q 369 728 315 697 q 496 758 424 758 q 655 712 585 758 q 764 579 725 665 q 803 378 803 493 q 766 172 803 263 q 659 31 729 82 q 492 -19 589 -19 q 283 94 346 -19 l 281 94 l 281 -289 l 86 -289 l 86 997 l 281 997 l 281 644 l 283 644 m 603 365 q 560 531 603 471 q 436 590 518 590 q 315 530 357 590 q 272 353 272 469 q 318 197 272 253 q 443 140 364 140 q 560 206 518 140 q 603 365 603 271 z "},"ÿ":{"ha":772,"x_min":14,"x_max":749,"o":"m 392 194 l 543 739 l 749 739 l 489 -10 q 419 -185 451 -115 q 377 -249 400 -225 q 316 -285 354 -274 q 214 -297 278 -297 q 121 -294 190 -297 l 121 -139 l 169 -142 q 250 -117 226 -142 q 286 -31 274 -93 l 14 739 l 231 739 l 389 194 l 392 194 m 164 853 l 164 1013 l 339 1013 l 339 853 l 164 853 m 435 853 l 435 1013 l 610 1013 l 610 853 l 435 853 z "},"Ā":{"ha":1003,"x_min":28,"x_max":975,"o":"m 749 0 l 685 206 l 317 206 l 247 0 l 28 0 l 383 997 l 624 997 l 975 0 l 749 0 m 626 378 l 503 772 l 500 772 l 372 378 l 626 378 m 263 1135 l 263 1238 l 742 1238 l 742 1135 l 263 1135 z "},"ā":{"ha":772,"x_min":40,"x_max":732,"o":"m 732 29 l 732 0 l 522 0 q 504 88 506 49 q 394 6 451 31 q 265 -19 338 -19 q 102 39 164 -19 q 40 196 40 97 q 91 351 40 289 q 272 435 142 413 l 411 456 q 481 476 464 464 q 499 518 499 489 q 469 581 499 560 q 371 603 439 603 q 251 500 261 603 l 64 500 q 149 692 75 626 q 389 758 224 758 q 610 703 531 758 q 689 550 689 647 l 689 138 q 699 62 689 86 q 732 29 710 38 m 499 268 l 499 360 q 444 335 474 344 q 360 318 415 326 q 266 284 297 310 q 235 208 235 258 q 260 144 235 168 q 325 119 285 119 q 408 138 368 119 q 474 191 449 157 q 499 268 499 225 m 151 839 l 151 942 l 631 942 l 631 839 l 151 839 z "},"Ă":{"ha":1003,"x_min":28,"x_max":975,"o":"m 749 0 l 685 206 l 317 206 l 247 0 l 28 0 l 383 997 l 624 997 l 975 0 l 749 0 m 626 378 l 503 772 l 500 772 l 372 378 l 626 378 m 503 1203 q 611 1227 578 1203 q 651 1300 644 1251 l 742 1300 q 667 1149 731 1201 q 496 1097 603 1097 q 340 1151 397 1097 q 274 1300 282 1204 l 365 1300 q 409 1225 375 1247 q 503 1203 443 1203 z "},"ă":{"ha":772,"x_min":40,"x_max":732,"o":"m 732 29 l 732 0 l 522 0 q 504 88 506 49 q 394 6 451 31 q 265 -19 338 -19 q 102 39 164 -19 q 40 196 40 97 q 91 351 40 289 q 272 435 142 413 l 411 456 q 481 476 464 464 q 499 518 499 489 q 469 581 499 560 q 371 603 439 603 q 251 500 261 603 l 64 500 q 149 692 75 626 q 389 758 224 758 q 610 703 531 758 q 689 550 689 647 l 689 138 q 699 62 689 86 q 732 29 710 38 m 499 268 l 499 360 q 444 335 474 344 q 360 318 415 326 q 266 284 297 310 q 235 208 235 258 q 260 144 235 168 q 325 119 285 119 q 408 138 368 119 q 474 191 449 157 q 499 268 499 225 m 390 944 q 498 969 464 944 q 539 1042 532 993 l 629 1042 q 553 890 617 942 q 383 839 490 839 q 227 892 285 839 q 161 1042 169 946 l 253 1042 q 297 967 263 989 q 390 944 331 944 z "},"Ą":{"ha":1003,"x_min":28,"x_max":975,"o":"m 869 0 q 757 -83 797 -36 q 717 -176 717 -129 q 738 -222 717 -204 q 800 -240 760 -240 q 890 -219 849 -240 l 915 -282 q 764 -317 839 -317 q 640 -280 689 -317 q 590 -185 590 -243 q 632 -76 590 -124 q 749 0 674 -29 l 685 206 l 317 206 l 247 0 l 28 0 l 383 997 l 624 997 l 975 0 l 869 0 m 626 378 l 503 772 l 500 772 l 372 378 l 626 378 z "},"ą":{"ha":772,"x_min":40,"x_max":732,"o":"m 490 -176 q 512 -222 490 -204 q 574 -240 533 -240 q 664 -219 622 -240 l 689 -282 q 538 -317 617 -317 q 413 -280 461 -317 q 364 -185 364 -243 q 406 -76 364 -125 q 522 0 447 -28 q 510 42 514 25 q 504 88 507 60 q 394 6 451 31 q 265 -19 338 -19 q 102 39 164 -19 q 40 196 40 97 q 90 349 40 285 q 272 435 139 413 l 411 456 q 481 476 464 464 q 499 518 499 489 q 469 581 499 560 q 371 603 439 603 q 251 500 261 603 l 64 500 q 149 692 75 625 q 389 758 224 758 q 610 703 531 758 q 689 550 689 647 l 689 138 q 699 62 689 86 q 732 29 710 38 l 732 0 l 643 0 q 531 -82 572 -35 q 490 -176 490 -129 m 499 268 l 499 360 q 444 335 474 344 q 360 318 415 326 q 266 284 297 310 q 235 208 235 258 q 260 144 235 168 q 325 119 285 119 q 408 138 368 119 q 474 191 449 157 q 499 268 499 225 z "},"Ć":{"ha":1003,"x_min":61,"x_max":950,"o":"m 525 843 q 342 753 410 843 q 274 496 274 663 q 338 247 274 339 q 521 154 403 154 q 665 202 608 154 q 742 342 722 250 l 950 342 q 802 69 915 164 q 517 -26 689 -26 q 275 37 378 -26 q 117 218 172 100 q 61 497 61 336 q 119 777 61 658 q 281 960 176 896 q 521 1024 385 1024 q 733 978 639 1024 q 884 852 828 932 q 950 671 940 772 l 742 671 q 525 843 701 843 m 438 1097 l 568 1300 l 782 1300 l 578 1097 l 438 1097 z "},"ć":{"ha":772,"x_min":47,"x_max":728,"o":"m 406 594 q 288 536 328 594 q 247 369 247 478 q 288 192 247 243 q 397 140 328 140 q 488 177 451 140 q 529 269 524 214 l 726 269 q 622 61 708 142 q 389 -19 536 -19 q 135 80 222 -19 q 47 349 47 179 q 139 653 47 547 q 401 758 231 758 q 563 725 490 758 q 678 627 635 692 q 728 475 722 563 l 531 475 q 491 562 522 529 q 406 594 460 594 m 315 839 l 446 1042 l 660 1042 l 456 839 l 315 839 z "},"Ĉ":{"ha":1003,"x_min":61,"x_max":950,"o":"m 525 843 q 342 753 410 843 q 274 496 274 663 q 338 247 274 339 q 521 154 403 154 q 665 202 608 154 q 742 342 722 250 l 950 342 q 802 69 915 164 q 517 -26 689 -26 q 275 37 378 -26 q 117 218 172 100 q 61 497 61 336 q 119 777 61 658 q 281 960 176 896 q 521 1024 385 1024 q 733 978 639 1024 q 884 852 828 932 q 950 671 940 772 l 742 671 q 525 843 701 843 m 615 1097 l 526 1211 l 439 1097 l 282 1097 l 440 1300 l 614 1300 l 772 1097 l 615 1097 z "},"ĉ":{"ha":772,"x_min":47,"x_max":728,"o":"m 406 594 q 288 536 328 594 q 247 369 247 478 q 288 192 247 243 q 397 140 328 140 q 488 177 451 140 q 529 269 524 214 l 726 269 q 622 61 708 142 q 389 -19 536 -19 q 135 80 222 -19 q 47 349 47 179 q 139 653 47 547 q 401 758 231 758 q 563 725 490 758 q 678 627 635 692 q 728 475 722 563 l 531 475 q 491 562 522 529 q 406 594 460 594 m 499 839 l 410 953 l 322 839 l 165 839 l 324 1042 l 497 1042 l 656 839 l 499 839 z "},"Ċ":{"ha":1003,"x_min":61,"x_max":950,"o":"m 525 843 q 342 753 410 843 q 274 496 274 663 q 338 247 274 339 q 521 154 403 154 q 665 202 608 154 q 742 342 722 250 l 950 342 q 802 69 915 164 q 517 -26 689 -26 q 275 37 378 -26 q 117 218 172 100 q 61 497 61 336 q 119 777 61 658 q 281 960 176 896 q 521 1024 385 1024 q 733 978 639 1024 q 884 852 828 932 q 950 671 940 772 l 742 671 q 525 843 701 843 m 436 1111 l 436 1271 l 611 1271 l 611 1111 l 436 1111 z "},"ċ":{"ha":772,"x_min":47,"x_max":728,"o":"m 406 594 q 288 536 328 594 q 247 369 247 478 q 288 192 247 243 q 397 140 328 140 q 488 177 451 140 q 529 269 524 214 l 726 269 q 622 61 708 142 q 389 -19 536 -19 q 135 80 222 -19 q 47 349 47 179 q 139 653 47 547 q 401 758 231 758 q 563 725 490 758 q 678 627 635 692 q 728 475 722 563 l 531 475 q 491 562 522 529 q 406 594 460 594 m 314 853 l 314 1013 l 489 1013 l 489 853 l 314 853 z "},"Č":{"ha":1003,"x_min":61,"x_max":950,"o":"m 525 843 q 342 753 410 843 q 274 496 274 663 q 338 247 274 339 q 521 154 403 154 q 665 202 608 154 q 742 342 722 250 l 950 342 q 802 69 915 164 q 517 -26 689 -26 q 275 37 378 -26 q 117 218 172 100 q 61 497 61 336 q 119 777 61 658 q 281 960 176 896 q 521 1024 385 1024 q 733 978 639 1024 q 884 852 828 932 q 950 671 940 772 l 742 671 q 525 843 701 843 m 625 1300 l 782 1300 l 624 1097 l 450 1097 l 292 1300 l 449 1300 l 536 1186 l 625 1300 z "},"č":{"ha":772,"x_min":47,"x_max":728,"o":"m 406 594 q 288 536 328 594 q 247 369 247 478 q 288 192 247 243 q 397 140 328 140 q 488 177 451 140 q 529 269 524 214 l 726 269 q 622 61 708 142 q 389 -19 536 -19 q 135 80 222 -19 q 47 349 47 179 q 139 653 47 547 q 401 758 231 758 q 563 725 490 758 q 678 627 635 692 q 728 475 722 563 l 531 475 q 491 562 522 529 q 406 594 460 594 m 503 1042 l 660 1042 l 501 839 l 328 839 l 169 1042 l 326 1042 l 414 928 l 503 1042 z "},"Ď":{"ha":1003,"x_min":106,"x_max":951,"o":"m 951 522 q 900 242 951 360 q 756 62 849 124 q 544 0 664 0 l 106 0 l 106 997 l 553 997 q 774 935 685 997 q 908 767 864 874 q 951 522 951 660 m 739 508 q 518 825 739 825 l 310 825 l 310 172 l 517 172 q 679 263 619 172 q 739 508 739 353 m 542 1300 l 699 1300 l 540 1097 l 367 1097 l 208 1300 l 365 1300 l 453 1186 l 542 1300 z "},"ď":{"ha":849,"x_min":47,"x_max":992,"o":"m 575 0 l 575 93 l 572 93 q 481 8 538 35 q 358 -19 425 -19 q 192 31 263 -19 q 85 170 122 81 q 47 378 47 260 q 86 579 47 493 q 195 712 125 665 q 354 758 265 758 q 479 728 425 758 q 568 643 533 699 l 571 643 l 571 997 l 765 997 l 765 0 l 575 0 m 579 353 q 537 528 579 467 q 411 590 494 590 q 290 531 333 590 q 247 365 247 472 q 290 203 247 267 q 407 140 333 140 q 533 198 486 140 q 579 353 579 256 m 846 779 l 846 831 q 928 942 925 854 l 846 942 l 846 1083 l 992 1083 l 992 957 q 953 837 992 883 q 846 779 915 790 z "},"Đ":{"ha":1003,"x_min":-7,"x_max":951,"o":"m 951 522 q 900 242 951 360 q 756 62 849 124 q 544 0 664 0 l 106 0 l 106 490 l -7 490 l -7 611 l 106 611 l 106 997 l 553 997 q 774 935 685 997 q 908 767 864 874 q 951 522 951 660 m 540 490 l 310 490 l 310 172 l 517 172 q 679 263 619 172 q 739 508 739 353 q 518 825 739 825 l 310 825 l 310 611 l 540 611 l 540 490 z "},"đ":{"ha":849,"x_min":47,"x_max":843,"o":"m 843 926 l 843 819 l 765 819 l 765 0 l 575 0 l 575 93 l 572 93 q 481 8 538 35 q 358 -19 425 -19 q 192 31 263 -19 q 85 170 122 81 q 47 378 47 260 q 86 579 47 493 q 195 712 125 665 q 354 758 265 758 q 479 728 425 758 q 568 643 533 699 l 571 643 l 571 819 l 333 819 l 333 926 l 571 926 l 571 997 l 765 997 l 765 926 l 843 926 m 579 353 q 537 528 579 467 q 411 590 494 590 q 290 531 333 590 q 247 365 247 472 q 290 203 247 267 q 407 140 333 140 q 533 198 486 140 q 579 353 579 256 z "},"Ē":{"ha":926,"x_min":106,"x_max":863,"o":"m 310 821 l 310 611 l 796 611 l 796 435 l 310 435 l 310 176 l 863 176 l 863 0 l 106 0 l 106 997 l 839 997 l 839 821 l 310 821 m 249 1135 l 249 1238 l 728 1238 l 728 1135 l 249 1135 z "},"ē":{"ha":772,"x_min":32,"x_max":733,"o":"m 400 136 q 478 157 443 136 q 525 217 514 178 l 725 217 q 607 42 693 104 q 400 -19 521 -19 q 124 82 217 -19 q 32 383 32 183 q 73 578 32 493 q 193 710 114 663 q 385 758 272 758 q 638 657 543 758 q 733 350 733 556 l 733 317 l 226 317 q 400 136 236 136 m 382 599 q 232 443 249 599 l 533 443 q 486 557 526 515 q 382 599 446 599 m 150 839 l 150 942 l 629 942 l 629 839 l 150 839 z "},"Ĕ":{"ha":926,"x_min":106,"x_max":863,"o":"m 310 821 l 310 611 l 796 611 l 796 435 l 310 435 l 310 176 l 863 176 l 863 0 l 106 0 l 106 997 l 839 997 l 839 821 l 310 821 m 485 1203 q 593 1227 560 1203 q 633 1300 626 1251 l 724 1300 q 649 1149 713 1201 q 478 1097 585 1097 q 322 1151 379 1097 q 256 1300 264 1204 l 347 1300 q 391 1225 357 1247 q 485 1203 425 1203 z "},"ĕ":{"ha":772,"x_min":32,"x_max":733,"o":"m 400 136 q 478 157 443 136 q 525 217 514 178 l 725 217 q 607 42 693 104 q 400 -19 521 -19 q 124 82 217 -19 q 32 383 32 183 q 73 578 32 493 q 193 710 114 663 q 385 758 272 758 q 638 657 543 758 q 733 350 733 556 l 733 317 l 226 317 q 400 136 236 136 m 382 599 q 232 443 249 599 l 533 443 q 486 557 526 515 q 382 599 446 599 m 396 944 q 503 969 469 944 q 544 1042 538 993 l 635 1042 q 559 890 622 942 q 389 839 496 839 q 233 892 290 839 q 167 1042 175 946 l 258 1042 q 302 967 268 989 q 396 944 336 944 z "},"Ė":{"ha":926,"x_min":106,"x_max":863,"o":"m 310 821 l 310 611 l 796 611 l 796 435 l 310 435 l 310 176 l 863 176 l 863 0 l 106 0 l 106 997 l 839 997 l 839 821 l 310 821 m 404 1111 l 404 1271 l 579 1271 l 579 1111 l 404 1111 z "},"ė":{"ha":772,"x_min":32,"x_max":733,"o":"m 400 136 q 478 157 443 136 q 525 217 514 178 l 725 217 q 607 42 693 104 q 400 -19 521 -19 q 124 82 217 -19 q 32 383 32 183 q 73 578 32 493 q 193 710 114 663 q 385 758 272 758 q 638 657 543 758 q 733 350 733 556 l 733 317 l 226 317 q 400 136 236 136 m 382 599 q 232 443 249 599 l 533 443 q 486 557 526 515 q 382 599 446 599 m 307 853 l 307 1013 l 482 1013 l 482 853 l 307 853 z "},"Ę":{"ha":926,"x_min":106,"x_max":863,"o":"m 310 821 l 310 611 l 796 611 l 796 435 l 310 435 l 310 176 l 863 176 l 863 0 l 767 0 q 656 -82 697 -33 q 615 -176 615 -131 q 636 -222 615 -204 q 699 -240 657 -240 q 747 -234 722 -240 q 789 -219 772 -228 l 814 -282 q 663 -317 740 -317 q 538 -280 588 -317 q 489 -185 489 -243 q 531 -76 489 -125 q 647 0 572 -28 l 106 0 l 106 997 l 839 997 l 839 821 l 310 821 z "},"ę":{"ha":772,"x_min":32,"x_max":733,"o":"m 458 -15 q 369 -92 401 -50 q 336 -176 336 -135 q 357 -223 336 -206 q 419 -240 378 -240 q 469 -234 446 -240 q 510 -219 493 -228 l 535 -282 q 383 -317 463 -317 q 259 -280 308 -317 q 210 -185 210 -243 q 241 -90 210 -133 q 331 -15 272 -46 q 32 382 32 24 q 73 577 32 492 q 193 710 114 663 q 385 758 272 758 q 636 659 539 758 q 733 351 733 560 l 733 317 l 226 317 q 400 136 236 136 q 478 157 443 136 q 525 217 514 178 l 725 217 q 630 60 699 121 q 458 -15 561 0 m 382 599 q 232 443 249 599 l 533 443 q 486 557 526 515 q 382 599 446 599 z "},"Ě":{"ha":926,"x_min":106,"x_max":863,"o":"m 310 821 l 310 611 l 796 611 l 796 435 l 310 435 l 310 176 l 863 176 l 863 0 l 106 0 l 106 997 l 839 997 l 839 821 l 310 821 m 589 1300 l 746 1300 l 588 1097 l 414 1097 l 256 1300 l 413 1300 l 500 1186 l 589 1300 z "},"ě":{"ha":772,"x_min":32,"x_max":733,"o":"m 400 136 q 478 157 443 136 q 525 217 514 178 l 725 217 q 607 42 693 104 q 400 -19 521 -19 q 124 82 217 -19 q 32 383 32 183 q 73 578 32 493 q 193 710 114 663 q 385 758 272 758 q 638 657 543 758 q 733 350 733 556 l 733 317 l 226 317 q 400 136 236 136 m 382 599 q 232 443 249 599 l 533 443 q 486 557 526 515 q 382 599 446 599 m 479 1042 l 636 1042 l 478 839 l 304 839 l 146 1042 l 303 1042 l 390 928 l 479 1042 z "},"Ĝ":{"ha":1081,"x_min":61,"x_max":990,"o":"m 986 688 l 778 688 q 742 765 772 726 q 664 827 711 803 q 560 851 617 851 q 351 758 428 851 q 274 493 274 664 q 349 238 274 326 q 563 150 424 150 q 716 207 649 150 q 806 369 783 264 l 574 369 l 574 538 l 990 538 l 990 0 l 851 0 l 831 125 q 688 8 763 42 q 521 -26 614 -26 q 285 37 389 -26 q 121 218 181 100 q 61 494 61 336 q 119 769 61 649 q 287 956 176 889 q 550 1024 397 1024 q 766 981 671 1024 q 919 861 861 938 q 986 688 976 785 m 661 1097 l 572 1211 l 485 1097 l 328 1097 l 486 1300 l 660 1300 l 818 1097 l 661 1097 z "},"ĝ":{"ha":849,"x_min":56,"x_max":768,"o":"m 579 629 l 582 629 l 582 739 l 768 739 l 768 11 q 668 -231 768 -161 q 396 -301 568 -301 q 167 -241 257 -301 q 72 -79 76 -181 l 283 -79 q 324 -137 292 -121 q 418 -154 356 -154 q 536 -115 499 -154 q 574 10 574 -75 l 574 104 l 571 107 q 488 21 533 46 q 374 -4 443 -4 q 206 42 278 -4 q 94 174 133 88 q 56 378 56 260 q 94 581 56 494 q 203 713 133 667 q 363 758 272 758 q 495 725 440 758 q 579 629 550 692 m 410 160 q 533 215 490 160 q 575 374 575 271 q 529 529 575 468 q 407 590 483 590 q 296 531 336 590 q 256 367 256 471 q 297 215 256 271 q 410 160 339 160 m 553 839 l 464 953 l 376 839 l 219 839 l 378 1042 l 551 1042 l 710 839 l 553 839 z "},"Ğ":{"ha":1081,"x_min":61,"x_max":990,"o":"m 986 688 l 778 688 q 742 765 772 726 q 664 827 711 803 q 560 851 617 851 q 351 758 428 851 q 274 493 274 664 q 349 238 274 326 q 563 150 424 150 q 716 207 649 150 q 806 369 783 264 l 574 369 l 574 538 l 990 538 l 990 0 l 851 0 l 831 125 q 688 8 763 42 q 521 -26 614 -26 q 285 37 389 -26 q 121 218 181 100 q 61 494 61 336 q 119 769 61 649 q 287 956 176 889 q 550 1024 397 1024 q 766 981 671 1024 q 919 861 861 938 q 986 688 976 785 m 569 1203 q 678 1227 644 1203 q 718 1300 711 1251 l 808 1300 q 733 1149 797 1201 q 563 1097 669 1097 q 406 1151 464 1097 q 340 1300 349 1204 l 432 1300 q 476 1225 442 1247 q 569 1203 510 1203 z "},"ğ":{"ha":849,"x_min":56,"x_max":768,"o":"m 579 629 l 582 629 l 582 739 l 768 739 l 768 11 q 668 -231 768 -161 q 396 -301 568 -301 q 167 -241 257 -301 q 72 -79 76 -181 l 283 -79 q 324 -137 292 -121 q 418 -154 356 -154 q 536 -115 499 -154 q 574 10 574 -75 l 574 104 l 571 107 q 488 21 533 46 q 374 -4 443 -4 q 206 42 278 -4 q 94 174 133 88 q 56 378 56 260 q 94 581 56 494 q 203 713 133 667 q 363 758 272 758 q 495 725 440 758 q 579 629 550 692 m 410 160 q 533 215 490 160 q 575 374 575 271 q 529 529 575 468 q 407 590 483 590 q 296 531 336 590 q 256 367 256 471 q 297 215 256 271 q 410 160 339 160 m 456 944 q 563 969 529 944 q 604 1042 597 993 l 694 1042 q 619 890 682 942 q 449 839 556 839 q 292 892 350 839 q 226 1042 235 946 l 318 1042 q 362 967 328 989 q 456 944 396 944 z "},"Ġ":{"ha":1081,"x_min":61,"x_max":990,"o":"m 986 688 l 778 688 q 742 765 772 726 q 664 827 711 803 q 560 851 617 851 q 351 758 428 851 q 274 493 274 664 q 349 238 274 326 q 563 150 424 150 q 716 207 649 150 q 806 369 783 264 l 574 369 l 574 538 l 990 538 l 990 0 l 851 0 l 831 125 q 688 8 763 42 q 521 -26 614 -26 q 285 37 389 -26 q 121 218 181 100 q 61 494 61 336 q 119 769 61 649 q 287 956 176 889 q 550 1024 397 1024 q 766 981 671 1024 q 919 861 861 938 q 986 688 976 785 m 489 1111 l 489 1271 l 664 1271 l 664 1111 l 489 1111 z "},"ġ":{"ha":849,"x_min":56,"x_max":768,"o":"m 579 629 l 582 629 l 582 739 l 768 739 l 768 11 q 668 -231 768 -161 q 396 -301 568 -301 q 167 -241 257 -301 q 72 -79 76 -181 l 283 -79 q 324 -137 292 -121 q 418 -154 356 -154 q 536 -115 499 -154 q 574 10 574 -75 l 574 104 l 571 107 q 488 21 533 46 q 374 -4 443 -4 q 206 42 278 -4 q 94 174 133 88 q 56 378 56 260 q 94 581 56 494 q 203 713 133 667 q 363 758 272 758 q 495 725 440 758 q 579 629 550 692 m 410 160 q 533 215 490 160 q 575 374 575 271 q 529 529 575 468 q 407 590 483 590 q 296 531 336 590 q 256 367 256 471 q 297 215 256 271 q 410 160 339 160 m 369 853 l 369 1013 l 544 1013 l 544 853 l 369 853 z "},"Ģ":{"ha":1081,"x_min":61,"x_max":990,"o":"m 986 688 l 778 688 q 742 765 772 726 q 664 827 711 803 q 560 851 617 851 q 351 758 428 851 q 274 493 274 664 q 349 238 274 326 q 563 150 424 150 q 716 207 649 150 q 806 369 783 264 l 574 369 l 574 538 l 990 538 l 990 0 l 851 0 l 831 125 q 688 8 763 42 q 521 -26 614 -26 q 285 37 389 -26 q 121 218 181 100 q 61 494 61 336 q 119 769 61 649 q 287 956 176 889 q 550 1024 397 1024 q 766 981 671 1024 q 919 861 861 938 q 986 688 976 785 m 444 -365 l 444 -314 q 526 -203 524 -290 l 444 -203 l 444 -61 l 590 -61 l 590 -187 q 552 -308 590 -261 q 444 -365 514 -354 z "},"ģ":{"ha":849,"x_min":56,"x_max":768,"o":"m 579 629 l 582 629 l 582 739 l 768 739 l 768 11 q 668 -231 768 -161 q 396 -301 568 -301 q 167 -241 257 -301 q 72 -79 76 -181 l 283 -79 q 324 -137 292 -121 q 418 -154 356 -154 q 536 -115 499 -154 q 574 10 574 -75 l 574 104 l 571 107 q 488 21 533 46 q 374 -4 443 -4 q 206 42 278 -4 q 94 174 133 88 q 56 378 56 260 q 94 581 56 494 q 203 713 133 667 q 363 758 272 758 q 495 725 440 758 q 579 629 550 692 m 410 160 q 533 215 490 160 q 575 374 575 271 q 529 529 575 468 q 407 590 483 590 q 296 531 336 590 q 256 367 256 471 q 297 215 256 271 q 410 160 339 160 m 447 981 l 529 981 l 529 839 l 383 839 l 383 965 q 421 1085 383 1039 q 529 1143 458 1131 l 529 1092 q 447 981 450 1071 z "},"Ĥ":{"ha":1003,"x_min":99,"x_max":904,"o":"m 696 619 l 696 997 l 904 997 l 904 0 l 696 0 l 696 447 l 307 447 l 307 0 l 99 0 l 99 997 l 307 997 l 307 619 l 696 619 m 585 1097 l 496 1211 l 408 1097 l 251 1097 l 410 1300 l 583 1300 l 742 1097 l 585 1097 z "},"ĥ":{"ha":849,"x_min":90,"x_max":758,"o":"m 288 643 q 372 727 313 696 q 501 758 431 758 q 688 692 617 758 q 758 517 758 625 l 758 0 l 564 0 l 564 463 q 438 594 564 594 q 327 550 369 594 q 285 429 285 506 l 285 0 l 90 0 l 90 997 l 285 997 l 285 643 l 288 643 m 465 1054 l 376 1168 l 289 1054 l 132 1054 l 290 1257 l 464 1257 l 622 1054 l 465 1054 z "},"Ħ":{"ha":1003,"x_min":99,"x_max":904,"o":"m 696 869 l 696 997 l 904 997 l 904 0 l 696 0 l 696 447 l 307 447 l 307 0 l 99 0 l 99 997 l 307 997 l 307 869 l 696 869 m 307 758 l 307 619 l 696 619 l 696 758 l 307 758 z "},"ħ":{"ha":849,"x_min":13,"x_max":758,"o":"m 479 926 l 479 819 l 285 819 l 285 643 l 288 643 q 372 727 313 696 q 501 758 431 758 q 688 692 617 758 q 758 517 758 625 l 758 0 l 564 0 l 564 463 q 438 594 564 594 q 327 550 369 594 q 285 429 285 506 l 285 0 l 90 0 l 90 819 l 13 819 l 13 926 l 90 926 l 90 997 l 285 997 l 285 926 l 479 926 z "},"Ĩ":{"ha":386,"x_min":-58,"x_max":451,"o":"m 89 0 l 89 997 l 297 997 l 297 0 l 89 0 m 300 1115 q 236 1125 275 1115 q 157 1151 197 1135 q 96 1165 119 1165 q 55 1151 71 1165 q 31 1106 39 1138 l -58 1106 q -1 1232 -44 1188 q 110 1276 42 1276 q 156 1269 132 1276 q 232 1242 179 1263 q 296 1226 274 1226 q 340 1240 325 1226 q 361 1282 354 1253 l 451 1282 q 398 1158 438 1201 q 300 1115 358 1115 z "},"ĩ":{"ha":386,"x_min":-57,"x_max":453,"o":"m 96 0 l 96 739 l 290 739 l 290 0 l 96 0 m 301 857 q 238 867 276 857 q 158 893 199 876 q 97 907 121 907 q 56 893 72 907 q 32 847 40 879 l -57 847 q 0 974 -43 929 q 111 1018 43 1018 q 157 1011 133 1018 q 233 983 181 1004 q 297 968 275 968 q 341 981 326 968 q 363 1024 356 994 l 453 1024 q 399 900 439 943 q 301 857 360 857 z "},"Ī":{"ha":386,"x_min":-44,"x_max":435,"o":"m 89 0 l 89 997 l 297 997 l 297 0 l 89 0 m -44 1135 l -44 1238 l 435 1238 l 435 1135 l -44 1135 z "},"ī":{"ha":386,"x_min":-42,"x_max":438,"o":"m 96 0 l 96 739 l 290 739 l 290 0 l 96 0 m -42 839 l -42 942 l 438 942 l 438 839 l -42 839 z "},"Į":{"ha":386,"x_min":-69,"x_max":297,"o":"m 208 0 q 96 -84 135 -37 q 57 -176 57 -131 q 78 -222 57 -204 q 140 -240 100 -240 q 231 -219 189 -240 l 256 -282 q 104 -317 183 -317 q -21 -280 28 -317 q -69 -185 -69 -243 q -28 -76 -69 -125 q 89 0 14 -28 l 89 997 l 297 997 l 297 0 l 208 0 z "},"į":{"ha":386,"x_min":-62,"x_max":290,"o":"m 96 826 l 96 1007 l 290 1007 l 290 826 l 96 826 m 215 0 q 106 -82 147 -33 q 64 -176 64 -131 q 85 -222 64 -204 q 147 -240 107 -240 q 197 -234 174 -240 q 238 -219 221 -228 l 263 -282 q 111 -317 189 -317 q -13 -280 36 -317 q -62 -185 -62 -243 q -21 -78 -62 -128 q 96 0 21 -28 l 96 739 l 290 739 l 290 0 l 215 0 z "},"İ":{"ha":386,"x_min":89,"x_max":297,"o":"m 89 0 l 89 997 l 297 997 l 297 0 l 89 0 m 106 1111 l 106 1271 l 281 1271 l 281 1111 l 106 1111 z "},"ı":{"ha":386,"x_min":96,"x_max":290,"o":"m 96 0 l 96 739 l 290 739 l 290 0 l 96 0 z "},"Ĳ":{"ha":1143,"x_min":89,"x_max":1043,"o":"m 89 0 l 89 997 l 297 997 l 297 0 l 89 0 m 733 -25 q 561 1 632 -25 q 446 101 490 26 q 401 314 401 175 l 401 376 l 596 376 l 596 356 q 609 222 596 268 q 648 160 622 176 q 718 143 674 143 q 805 172 775 143 q 835 279 835 200 l 835 997 l 1043 997 l 1043 282 q 965 53 1043 132 q 733 -25 888 -25 z "},"ĳ":{"ha":772,"x_min":96,"x_max":676,"o":"m 96 826 l 96 1007 l 290 1007 l 290 826 l 96 826 m 96 0 l 96 739 l 290 739 l 290 0 l 96 0 m 482 826 l 482 1007 l 676 1007 l 676 826 l 482 826 m 654 -208 q 615 -260 638 -242 q 549 -288 592 -279 q 431 -297 506 -297 l 390 -297 l 390 -142 l 419 -142 q 467 -127 453 -142 q 482 -72 482 -112 l 482 739 l 676 739 l 676 -85 q 654 -208 676 -162 z "},"Ĵ":{"ha":772,"x_min":31,"x_max":808,"o":"m 363 -25 q 190 1 261 -25 q 75 101 119 26 q 31 314 31 175 l 31 376 l 225 376 l 225 356 q 238 222 225 268 q 277 160 251 176 q 347 143 303 143 q 434 172 404 143 q 464 279 464 200 l 464 997 l 672 997 l 672 282 q 594 53 672 132 q 363 -25 517 -25 m 651 1097 l 563 1211 l 475 1097 l 318 1097 l 476 1300 l 650 1300 l 808 1097 l 651 1097 z "},"ĵ":{"ha":386,"x_min":-46,"x_max":444,"o":"m 268 -208 q 228 -260 251 -242 q 163 -288 206 -279 q 44 -297 119 -297 l 4 -297 l 4 -142 l 33 -142 q 81 -127 67 -142 q 96 -72 96 -112 l 96 739 l 290 739 l 290 -85 q 268 -208 290 -162 m 288 839 l 199 953 l 111 839 l -46 839 l 113 1042 l 286 1042 l 444 839 l 288 839 z "},"Ķ":{"ha":1003,"x_min":121,"x_max":1003,"o":"m 710 997 l 979 997 l 572 589 l 1003 0 l 735 0 l 426 438 l 329 338 l 329 0 l 121 0 l 121 997 l 329 997 l 329 592 l 710 997 m 461 -365 l 461 -314 q 543 -203 540 -290 l 461 -203 l 461 -61 l 607 -61 l 607 -187 q 569 -308 607 -261 q 461 -365 531 -354 z "},"ķ":{"ha":772,"x_min":96,"x_max":781,"o":"m 535 739 l 774 739 l 513 453 l 781 0 l 547 0 l 371 317 l 290 233 l 290 0 l 96 0 l 96 997 l 290 997 l 290 458 l 535 739 m 353 -365 l 353 -314 q 435 -203 432 -290 l 353 -203 l 353 -61 l 499 -61 l 499 -187 q 460 -308 499 -261 q 353 -365 422 -354 z "},"Ĺ":{"ha":849,"x_min":106,"x_max":810,"o":"m 810 181 l 810 0 l 106 0 l 106 997 l 314 997 l 314 181 l 810 181 m 115 1097 l 246 1300 l 460 1300 l 256 1097 l 115 1097 z "},"ĺ":{"ha":386,"x_min":96,"x_max":442,"o":"m 96 0 l 96 997 l 290 997 l 290 0 l 96 0 m 97 1097 l 228 1300 l 442 1300 l 238 1097 l 97 1097 z "},"Ļ":{"ha":849,"x_min":106,"x_max":810,"o":"m 810 181 l 810 0 l 106 0 l 106 997 l 314 997 l 314 181 l 810 181 m 381 -365 l 381 -314 q 463 -203 460 -290 l 381 -203 l 381 -61 l 526 -61 l 526 -187 q 488 -308 526 -261 q 381 -365 450 -354 z "},"ļ":{"ha":386,"x_min":96,"x_max":290,"o":"m 96 0 l 96 997 l 290 997 l 290 0 l 96 0 m 124 -365 l 124 -314 q 206 -203 203 -290 l 124 -203 l 124 -61 l 269 -61 l 269 -187 q 231 -308 269 -261 q 124 -365 193 -354 z "},"Ľ":{"ha":849,"x_min":106,"x_max":810,"o":"m 810 181 l 810 0 l 106 0 l 106 997 l 314 997 l 314 181 l 810 181 m 446 779 l 446 831 q 528 942 525 854 l 446 942 l 446 1083 l 592 1083 l 592 957 q 553 837 592 883 q 446 779 515 790 z "},"ľ":{"ha":386,"x_min":96,"x_max":524,"o":"m 96 0 l 96 997 l 290 997 l 290 0 l 96 0 m 378 779 l 378 831 q 460 942 457 851 l 378 942 l 378 1083 l 524 1083 l 524 956 q 485 836 524 882 q 378 779 446 790 z "},"Ŀ":{"ha":849,"x_min":106,"x_max":810,"o":"m 810 181 l 810 0 l 106 0 l 106 997 l 314 997 l 314 181 l 810 181 m 543 503 l 543 663 l 718 663 l 718 503 l 543 503 z "},"ŀ":{"ha":583,"x_min":96,"x_max":571,"o":"m 96 0 l 96 997 l 290 997 l 290 0 l 96 0 m 396 449 l 396 608 l 571 608 l 571 449 l 396 449 z "},"Ł":{"ha":849,"x_min":-10,"x_max":810,"o":"m 493 739 l 493 618 l 314 515 l 314 181 l 810 181 l 810 0 l 106 0 l 106 397 l -10 332 l -10 451 l 106 517 l 106 997 l 314 997 l 314 636 l 493 739 z "},"ł":{"ha":386,"x_min":-4,"x_max":404,"o":"m 404 728 l 404 610 l 290 544 l 290 0 l 96 0 l 96 435 l -4 379 l -4 497 l 96 553 l 96 997 l 290 997 l 290 663 l 404 728 z "},"Ń":{"ha":1003,"x_min":96,"x_max":908,"o":"m 714 303 l 714 997 l 908 997 l 908 0 l 700 0 l 293 711 l 290 711 l 290 0 l 96 0 l 96 997 l 315 997 l 711 303 l 714 303 m 451 1097 l 582 1300 l 796 1300 l 592 1097 l 451 1097 z "},"ń":{"ha":849,"x_min":90,"x_max":758,"o":"m 758 517 l 758 0 l 564 0 l 564 468 q 531 562 564 529 q 438 594 499 594 q 327 550 369 594 q 285 429 285 506 l 285 0 l 90 0 l 90 739 l 276 739 l 276 631 l 279 631 q 371 727 314 696 q 501 758 428 758 q 636 727 578 758 q 726 641 694 696 q 758 517 758 586 m 356 839 l 486 1042 l 700 1042 l 496 839 l 356 839 z "},"Ņ":{"ha":1003,"x_min":96,"x_max":908,"o":"m 714 303 l 714 997 l 908 997 l 908 0 l 700 0 l 293 711 l 290 711 l 290 0 l 96 0 l 96 997 l 315 997 l 711 303 l 714 303 m 431 -365 l 431 -314 q 513 -203 510 -290 l 431 -203 l 431 -61 l 576 -61 l 576 -187 q 538 -308 576 -261 q 431 -365 500 -354 z "},"ņ":{"ha":849,"x_min":90,"x_max":758,"o":"m 758 517 l 758 0 l 564 0 l 564 468 q 531 562 564 529 q 438 594 499 594 q 327 550 369 594 q 285 429 285 506 l 285 0 l 90 0 l 90 739 l 276 739 l 276 631 l 279 631 q 371 727 314 696 q 501 758 428 758 q 636 727 578 758 q 726 641 694 696 q 758 517 758 586 m 357 -365 l 357 -314 q 439 -203 436 -290 l 357 -203 l 357 -61 l 503 -61 l 503 -187 q 465 -308 503 -261 q 357 -365 426 -354 z "},"Ň":{"ha":1003,"x_min":96,"x_max":908,"o":"m 714 303 l 714 997 l 908 997 l 908 0 l 700 0 l 293 711 l 290 711 l 290 0 l 96 0 l 96 997 l 315 997 l 711 303 l 714 303 m 593 1300 l 750 1300 l 592 1097 l 418 1097 l 260 1300 l 417 1300 l 504 1186 l 593 1300 z "},"ň":{"ha":849,"x_min":90,"x_max":758,"o":"m 758 517 l 758 0 l 564 0 l 564 468 q 531 562 564 529 q 438 594 499 594 q 327 550 369 594 q 285 429 285 506 l 285 0 l 90 0 l 90 739 l 276 739 l 276 631 l 279 631 q 371 727 314 696 q 501 758 428 758 q 636 727 578 758 q 726 641 694 696 q 758 517 758 586 m 532 1042 l 689 1042 l 531 839 l 357 839 l 199 1042 l 356 1042 l 443 928 l 532 1042 z "},"ŉ":{"ha":849,"x_min":-14,"x_max":758,"o":"m -14 779 l -14 831 q 68 942 65 851 l -14 942 l -14 1083 l 132 1083 l 132 956 q 93 836 132 882 q -14 779 54 790 m 758 517 l 758 0 l 564 0 l 564 468 q 531 562 564 529 q 438 594 499 594 q 327 550 369 594 q 285 429 285 506 l 285 0 l 90 0 l 90 739 l 276 739 l 276 631 l 279 631 q 371 727 314 696 q 501 758 428 758 q 636 727 578 758 q 726 641 694 696 q 758 517 758 586 z "},"Ō":{"ha":1081,"x_min":61,"x_max":1019,"o":"m 540 -26 q 293 33 401 -26 q 123 210 185 92 q 61 499 61 328 q 122 785 61 667 q 292 964 183 904 q 540 1024 400 1024 q 789 963 681 1024 q 958 783 897 901 q 1019 499 1019 665 q 958 210 1019 329 q 787 33 896 92 q 540 -26 678 -26 m 811 499 q 737 756 811 665 q 539 847 663 847 q 344 756 418 847 q 269 499 269 665 q 343 241 269 332 q 540 150 417 150 q 738 241 664 150 q 811 499 811 332 m 301 1135 l 301 1238 l 781 1238 l 781 1135 l 301 1135 z "},"ō":{"ha":849,"x_min":47,"x_max":803,"o":"m 803 369 q 756 163 803 250 q 622 28 708 75 q 425 -19 536 -19 q 228 28 314 -19 q 94 163 142 75 q 47 369 47 250 q 95 577 47 489 q 229 712 143 665 q 425 758 315 758 q 622 711 536 758 q 756 576 708 664 q 803 369 803 489 m 425 144 q 558 203 514 144 q 603 369 603 263 q 558 535 603 476 q 424 594 513 594 q 293 536 339 594 q 247 369 247 478 q 292 202 247 260 q 425 144 338 144 m 188 839 l 188 942 l 667 942 l 667 839 l 188 839 z "},"Ŏ":{"ha":1081,"x_min":61,"x_max":1019,"o":"m 540 -26 q 293 33 401 -26 q 123 210 185 92 q 61 499 61 328 q 122 785 61 667 q 292 964 183 904 q 540 1024 400 1024 q 789 963 681 1024 q 958 783 897 901 q 1019 499 1019 665 q 958 210 1019 329 q 787 33 896 92 q 540 -26 678 -26 m 811 499 q 737 756 811 665 q 539 847 663 847 q 344 756 418 847 q 269 499 269 665 q 343 241 269 332 q 540 150 417 150 q 738 241 664 150 q 811 499 811 332 m 535 1203 q 643 1227 610 1203 q 683 1300 676 1251 l 774 1300 q 699 1149 763 1201 q 528 1097 635 1097 q 372 1151 429 1097 q 306 1300 314 1204 l 397 1300 q 441 1225 407 1247 q 535 1203 475 1203 z "},"ŏ":{"ha":849,"x_min":47,"x_max":803,"o":"m 803 369 q 756 163 803 250 q 622 28 708 75 q 425 -19 536 -19 q 228 28 314 -19 q 94 163 142 75 q 47 369 47 250 q 95 577 47 489 q 229 712 143 665 q 425 758 315 758 q 622 711 536 758 q 756 576 708 664 q 803 369 803 489 m 425 144 q 558 203 514 144 q 603 369 603 263 q 558 535 603 476 q 424 594 513 594 q 293 536 339 594 q 247 369 247 478 q 292 202 247 260 q 425 144 338 144 m 428 944 q 535 969 501 944 q 576 1042 569 993 l 667 1042 q 591 890 654 942 q 421 839 528 839 q 265 892 322 839 q 199 1042 207 946 l 290 1042 q 334 967 300 989 q 428 944 368 944 z "},"Ő":{"ha":1081,"x_min":61,"x_max":1019,"o":"m 540 -26 q 293 33 401 -26 q 123 210 185 92 q 61 499 61 328 q 122 785 61 667 q 292 964 183 904 q 540 1024 400 1024 q 789 963 681 1024 q 958 783 897 901 q 1019 499 1019 665 q 958 210 1019 329 q 787 33 896 92 q 540 -26 678 -26 m 811 499 q 737 756 811 665 q 539 847 663 847 q 344 756 418 847 q 269 499 269 665 q 343 241 269 332 q 540 150 417 150 q 738 241 664 150 q 811 499 811 332 m 340 1097 l 471 1300 l 685 1300 l 481 1097 l 340 1097 m 658 1097 l 789 1300 l 1003 1300 l 799 1097 l 658 1097 z "},"ő":{"ha":849,"x_min":47,"x_max":843,"o":"m 803 369 q 756 163 803 250 q 622 28 708 75 q 425 -19 536 -19 q 228 28 314 -19 q 94 163 142 75 q 47 369 47 250 q 95 577 47 489 q 229 712 143 665 q 425 758 315 758 q 622 711 536 758 q 756 576 708 664 q 803 369 803 489 m 425 144 q 558 203 514 144 q 603 369 603 263 q 558 535 603 476 q 424 594 513 594 q 293 536 339 594 q 247 369 247 478 q 292 202 247 260 q 425 144 338 144 m 181 839 l 311 1042 l 525 1042 l 321 839 l 181 839 m 499 839 l 629 1042 l 843 1042 l 639 839 l 499 839 z "},"Ŕ":{"ha":1003,"x_min":106,"x_max":940,"o":"m 924 715 q 883 567 924 631 q 769 478 843 503 l 803 461 q 878 375 860 431 q 896 236 896 319 l 896 143 q 940 26 896 38 l 940 0 l 710 0 q 695 65 701 25 q 689 142 689 106 l 688 250 q 665 344 688 314 q 610 382 643 374 q 524 390 576 390 l 310 390 l 310 0 l 106 0 l 106 997 l 621 997 q 783 958 714 997 q 888 856 851 919 q 924 715 924 792 m 715 694 q 677 790 715 754 q 575 825 639 825 l 310 825 l 310 558 l 560 558 q 676 590 638 558 q 715 694 715 621 m 383 1097 l 514 1300 l 728 1300 l 524 1097 l 383 1097 z "},"ŕ":{"ha":540,"x_min":89,"x_max":518,"o":"m 518 756 l 518 558 q 465 561 496 561 q 283 389 283 561 l 283 0 l 89 0 l 89 739 l 275 739 l 275 611 l 278 611 q 367 726 319 693 q 481 758 414 758 q 518 756 488 758 m 174 839 l 304 1042 l 518 1042 l 314 839 l 174 839 z "},"Ŗ":{"ha":1003,"x_min":106,"x_max":940,"o":"m 924 715 q 883 567 924 631 q 769 478 843 503 l 803 461 q 878 375 860 431 q 896 236 896 319 l 896 143 q 940 26 896 38 l 940 0 l 710 0 q 695 65 701 25 q 689 142 689 106 l 688 250 q 665 344 688 314 q 610 382 643 374 q 524 390 576 390 l 310 390 l 310 0 l 106 0 l 106 997 l 621 997 q 783 958 714 997 q 888 856 851 919 q 924 715 924 792 m 715 694 q 677 790 715 754 q 575 825 639 825 l 310 825 l 310 558 l 560 558 q 676 590 638 558 q 715 694 715 621 m 443 -365 l 443 -314 q 525 -203 522 -290 l 443 -203 l 443 -61 l 589 -61 l 589 -187 q 551 -308 589 -261 q 443 -365 513 -354 z "},"ŗ":{"ha":540,"x_min":89,"x_max":518,"o":"m 518 756 l 518 558 q 465 561 496 561 q 283 389 283 561 l 283 0 l 89 0 l 89 739 l 275 739 l 275 611 l 278 611 q 367 726 319 693 q 481 758 414 758 q 518 756 488 758 m 128 -365 l 128 -314 q 210 -203 207 -290 l 128 -203 l 128 -61 l 274 -61 l 274 -187 q 235 -308 274 -261 q 128 -365 197 -354 z "},"Ř":{"ha":1003,"x_min":106,"x_max":940,"o":"m 924 715 q 883 567 924 631 q 769 478 843 503 l 803 461 q 878 375 860 431 q 896 236 896 319 l 896 143 q 940 26 896 38 l 940 0 l 710 0 q 695 65 701 25 q 689 142 689 106 l 688 250 q 665 344 688 314 q 610 382 643 374 q 524 390 576 390 l 310 390 l 310 0 l 106 0 l 106 997 l 621 997 q 783 958 714 997 q 888 856 851 919 q 924 715 924 792 m 715 694 q 677 790 715 754 q 575 825 639 825 l 310 825 l 310 558 l 560 558 q 676 590 638 558 q 715 694 715 621 m 565 1300 l 722 1300 l 564 1097 l 390 1097 l 232 1300 l 389 1300 l 476 1186 l 565 1300 z "},"ř":{"ha":540,"x_min":38,"x_max":528,"o":"m 518 756 l 518 558 q 465 561 496 561 q 283 389 283 561 l 283 0 l 89 0 l 89 739 l 275 739 l 275 611 l 278 611 q 367 726 319 693 q 481 758 414 758 q 518 756 488 758 m 371 1042 l 528 1042 l 369 839 l 196 839 l 38 1042 l 194 1042 l 282 928 l 371 1042 z "},"Ś":{"ha":926,"x_min":54,"x_max":874,"o":"m 438 851 q 313 819 361 851 q 264 732 264 786 q 287 666 264 692 q 382 624 310 640 l 617 567 q 817 467 761 532 q 874 300 874 401 q 822 119 874 193 q 681 10 769 46 q 479 -26 592 -26 q 171 57 282 -26 q 54 307 60 140 l 254 307 q 311 188 257 231 q 465 146 365 146 q 620 178 567 146 q 674 275 674 210 q 645 340 674 317 q 550 383 617 364 q 328 438 483 403 q 131 535 192 468 q 69 717 69 601 q 112 875 69 806 q 240 984 154 944 q 453 1024 326 1024 q 655 984 568 1024 q 790 872 742 944 q 842 701 839 799 l 642 701 q 438 851 628 851 m 381 1097 l 511 1300 l 725 1300 l 521 1097 l 381 1097 z "},"ś":{"ha":772,"x_min":42,"x_max":721,"o":"m 699 514 l 508 514 q 469 590 500 568 q 376 611 438 611 q 288 594 318 611 q 258 539 258 578 q 303 490 258 508 q 446 454 347 472 q 660 372 599 425 q 721 236 721 319 q 630 44 721 107 q 393 -19 539 -19 q 136 49 231 -19 q 42 236 42 118 l 242 236 q 401 128 242 128 q 492 149 458 128 q 526 204 526 171 q 483 256 526 238 q 326 294 439 274 q 132 370 196 318 q 68 511 68 422 q 147 690 68 622 q 367 758 226 758 q 610 694 529 758 q 699 514 692 631 m 311 839 l 442 1042 l 656 1042 l 451 839 l 311 839 z "},"Ŝ":{"ha":926,"x_min":54,"x_max":874,"o":"m 438 851 q 313 819 361 851 q 264 732 264 786 q 287 666 264 692 q 382 624 310 640 l 617 567 q 817 467 761 532 q 874 300 874 401 q 822 119 874 193 q 681 10 769 46 q 479 -26 592 -26 q 171 57 282 -26 q 54 307 60 140 l 254 307 q 311 188 257 231 q 465 146 365 146 q 620 178 567 146 q 674 275 674 210 q 645 340 674 317 q 550 383 617 364 q 328 438 483 403 q 131 535 192 468 q 69 717 69 601 q 112 875 69 806 q 240 984 154 944 q 453 1024 326 1024 q 655 984 568 1024 q 790 872 742 944 q 842 701 839 799 l 642 701 q 438 851 628 851 m 536 1097 l 447 1211 l 360 1097 l 203 1097 l 361 1300 l 535 1300 l 693 1097 l 536 1097 z "},"ŝ":{"ha":772,"x_min":42,"x_max":721,"o":"m 699 514 l 508 514 q 469 590 500 568 q 376 611 438 611 q 288 594 318 611 q 258 539 258 578 q 303 490 258 508 q 446 454 347 472 q 660 372 599 425 q 721 236 721 319 q 630 44 721 107 q 393 -19 539 -19 q 136 49 231 -19 q 42 236 42 118 l 242 236 q 401 128 242 128 q 492 149 458 128 q 526 204 526 171 q 483 256 526 238 q 326 294 439 274 q 132 370 196 318 q 68 511 68 422 q 147 690 68 622 q 367 758 226 758 q 610 694 529 758 q 699 514 692 631 m 474 839 l 385 953 l 297 839 l 140 839 l 299 1042 l 472 1042 l 631 839 l 474 839 z "},"Ş":{"ha":926,"x_min":54,"x_max":874,"o":"m 465 146 q 620 178 567 146 q 674 275 674 210 q 645 340 674 317 q 550 383 617 364 q 328 438 483 403 q 131 535 192 468 q 69 717 69 601 q 112 875 69 806 q 240 984 154 944 q 453 1024 326 1024 q 655 984 568 1024 q 790 872 742 944 q 842 701 839 799 l 642 701 q 438 851 628 851 q 313 819 361 851 q 264 732 264 786 q 287 666 264 692 q 382 624 310 640 l 617 567 q 817 467 761 532 q 874 300 874 401 q 776 67 874 150 q 497 -26 678 -17 l 463 -76 q 503 -71 486 -71 q 590 -101 554 -71 q 625 -179 625 -131 q 576 -278 625 -239 q 453 -317 528 -317 q 376 -310 408 -317 q 293 -282 343 -303 l 324 -215 q 431 -237 396 -237 q 476 -222 457 -237 q 496 -183 496 -206 q 480 -147 496 -161 q 442 -133 464 -133 q 386 -144 428 -133 l 357 -117 l 419 -24 q 148 75 240 -12 q 54 307 56 163 l 254 307 q 311 188 257 231 q 465 146 365 146 z "},"ş":{"ha":772,"x_min":42,"x_max":721,"o":"m 429 -18 l 389 -76 q 431 -71 413 -71 q 516 -101 481 -71 q 551 -179 551 -131 q 503 -278 551 -239 q 378 -317 456 -317 q 306 -309 338 -317 q 219 -282 274 -301 l 250 -215 q 356 -237 322 -237 q 402 -222 382 -237 q 422 -183 422 -207 q 406 -147 422 -161 q 368 -133 390 -133 q 313 -144 354 -133 l 283 -117 l 350 -18 q 122 60 200 -6 q 42 236 43 126 l 242 236 q 401 128 242 128 q 492 149 458 128 q 526 204 526 169 q 483 256 526 239 q 326 294 439 274 q 132 370 196 318 q 68 511 68 422 q 147 690 68 622 q 367 758 226 758 q 610 694 529 758 q 699 514 692 631 l 508 514 q 469 590 500 568 q 376 611 438 611 q 288 594 318 611 q 258 539 258 578 q 303 490 258 507 q 446 454 349 472 q 660 372 599 425 q 721 236 721 319 q 648 59 721 125 q 429 -18 575 -7 z "},"Ţ":{"ha":849,"x_min":19,"x_max":831,"o":"m 529 821 l 529 0 l 321 0 l 321 821 l 19 821 l 19 997 l 831 997 l 831 821 l 529 821 m 354 -365 l 354 -314 q 436 -203 433 -290 l 354 -203 l 354 -61 l 500 -61 l 500 -187 q 462 -308 500 -261 q 354 -365 424 -354 z "},"ţ":{"ha":463,"x_min":14,"x_max":429,"o":"m 429 739 l 429 600 l 308 600 l 308 188 q 324 149 308 158 q 388 139 340 139 q 429 142 399 139 l 429 -6 q 325 -8 351 -8 q 190 10 236 -8 q 129 63 144 29 q 114 153 114 97 l 114 600 l 14 600 l 14 739 l 114 739 l 114 939 l 308 939 l 308 739 l 429 739 m 186 -365 l 186 -314 q 268 -203 265 -290 l 186 -203 l 186 -61 l 332 -61 l 332 -187 q 294 -308 332 -261 q 186 -365 256 -354 z "},"Ť":{"ha":849,"x_min":19,"x_max":831,"o":"m 529 821 l 529 0 l 321 0 l 321 821 l 19 821 l 19 997 l 831 997 l 831 821 l 529 821 m 514 1300 l 671 1300 l 513 1097 l 339 1097 l 181 1300 l 338 1300 l 425 1186 l 514 1300 z "},"ť":{"ha":463,"x_min":14,"x_max":538,"o":"m 429 739 l 429 600 l 308 600 l 308 188 q 324 149 308 158 q 388 139 340 139 q 429 142 399 139 l 429 -6 q 325 -8 351 -8 q 190 10 236 -8 q 129 63 144 29 q 114 153 114 97 l 114 600 l 14 600 l 14 739 l 114 739 l 114 939 l 308 939 l 308 739 l 429 739 m 392 779 l 392 831 q 474 942 471 854 l 392 942 l 392 1083 l 538 1083 l 538 957 q 499 837 538 883 q 392 779 461 790 z "},"Ŧ":{"ha":849,"x_min":19,"x_max":831,"o":"m 529 821 l 529 632 l 731 632 l 731 511 l 529 511 l 529 0 l 321 0 l 321 511 l 118 511 l 118 632 l 321 632 l 321 821 l 19 821 l 19 997 l 831 997 l 831 821 l 529 821 z "},"ŧ":{"ha":463,"x_min":14,"x_max":429,"o":"m 31 481 l 114 481 l 114 600 l 14 600 l 14 739 l 114 739 l 114 939 l 308 939 l 308 739 l 429 739 l 429 600 l 308 600 l 308 481 l 406 481 l 406 374 l 308 374 l 308 186 q 324 148 308 157 q 388 139 340 139 q 429 142 406 139 l 429 -6 q 325 -8 351 -8 q 190 11 236 -8 q 129 65 144 31 q 114 156 114 100 l 114 374 l 31 374 l 31 481 z "},"Ũ":{"ha":1003,"x_min":100,"x_max":904,"o":"m 492 150 q 692 339 692 150 l 692 997 l 904 997 l 904 342 q 800 69 904 164 q 494 -26 696 -26 q 205 67 310 -26 q 100 340 100 160 l 100 997 l 313 997 l 313 344 q 360 203 313 256 q 492 150 408 150 m 636 1115 q 572 1125 611 1115 q 493 1151 533 1135 q 432 1165 456 1165 q 391 1151 407 1165 q 367 1106 375 1138 l 278 1106 q 335 1232 292 1188 q 446 1276 378 1276 q 492 1269 468 1276 q 568 1242 515 1263 q 632 1226 610 1226 q 676 1240 661 1226 q 697 1282 690 1253 l 788 1282 q 734 1158 774 1201 q 636 1115 694 1115 z "},"ũ":{"ha":849,"x_min":92,"x_max":757,"o":"m 413 144 q 521 190 479 144 q 563 308 563 235 l 563 739 l 757 739 l 757 0 l 571 0 l 571 104 l 568 104 q 343 -19 496 -19 q 158 51 224 -19 q 92 247 92 122 l 92 739 l 286 739 l 286 276 q 318 178 286 213 q 413 144 350 144 m 544 857 q 481 867 519 857 q 401 893 442 876 q 340 907 364 907 q 299 893 315 907 q 275 847 283 879 l 186 847 q 243 974 200 929 q 354 1018 286 1018 q 400 1011 376 1018 q 476 983 424 1004 q 540 968 518 968 q 584 981 569 968 q 606 1024 599 994 l 696 1024 q 642 900 682 943 q 544 857 603 857 z "},"Ū":{"ha":1003,"x_min":100,"x_max":904,"o":"m 492 150 q 692 339 692 150 l 692 997 l 904 997 l 904 342 q 800 69 904 164 q 494 -26 696 -26 q 205 67 310 -26 q 100 340 100 160 l 100 997 l 313 997 l 313 344 q 360 203 313 256 q 492 150 408 150 m 263 1135 l 263 1238 l 742 1238 l 742 1135 l 263 1135 z "},"ū":{"ha":849,"x_min":92,"x_max":757,"o":"m 413 144 q 521 190 479 144 q 563 308 563 235 l 563 739 l 757 739 l 757 0 l 571 0 l 571 104 l 568 104 q 343 -19 496 -19 q 158 51 224 -19 q 92 247 92 122 l 92 739 l 286 739 l 286 276 q 318 178 286 213 q 413 144 350 144 m 189 839 l 189 942 l 668 942 l 668 839 l 189 839 z "},"Ŭ":{"ha":1003,"x_min":100,"x_max":904,"o":"m 492 150 q 692 339 692 150 l 692 997 l 904 997 l 904 342 q 800 69 904 164 q 494 -26 696 -26 q 205 67 310 -26 q 100 340 100 160 l 100 997 l 313 997 l 313 344 q 360 203 313 256 q 492 150 408 150 m 511 1203 q 619 1227 586 1203 q 660 1300 653 1251 l 750 1300 q 675 1149 739 1201 q 504 1097 611 1097 q 348 1151 406 1097 q 282 1300 290 1204 l 374 1300 q 417 1225 383 1247 q 511 1203 451 1203 z "},"ŭ":{"ha":849,"x_min":92,"x_max":757,"o":"m 413 144 q 521 190 479 144 q 563 308 563 235 l 563 739 l 757 739 l 757 0 l 571 0 l 571 104 l 568 104 q 343 -19 496 -19 q 158 51 224 -19 q 92 247 92 122 l 92 739 l 286 739 l 286 276 q 318 178 286 213 q 413 144 350 144 m 426 944 q 534 969 500 944 q 575 1042 568 993 l 665 1042 q 590 890 653 942 q 419 839 526 839 q 263 892 321 839 q 197 1042 206 946 l 289 1042 q 333 967 299 989 q 426 944 367 944 z "},"Ů":{"ha":1003,"x_min":100,"x_max":904,"o":"m 492 150 q 692 339 692 150 l 692 997 l 904 997 l 904 342 q 800 69 904 164 q 494 -26 696 -26 q 205 67 310 -26 q 100 340 100 160 l 100 997 l 313 997 l 313 344 q 360 203 313 256 q 492 150 408 150 m 510 1047 q 405 1091 450 1047 q 360 1192 360 1135 q 383 1265 360 1231 q 440 1317 406 1299 q 510 1336 474 1336 q 581 1317 546 1336 q 638 1265 615 1299 q 660 1192 660 1232 q 638 1121 660 1154 q 583 1067 617 1088 q 510 1047 549 1047 m 582 1192 q 561 1243 582 1222 q 510 1264 540 1264 q 458 1243 479 1264 q 438 1192 438 1222 q 458 1140 438 1161 q 510 1119 479 1119 q 561 1140 540 1119 q 582 1192 582 1161 z "},"ů":{"ha":849,"x_min":92,"x_max":757,"o":"m 413 144 q 521 190 479 144 q 563 308 563 235 l 563 739 l 757 739 l 757 0 l 571 0 l 571 104 l 568 104 q 343 -19 496 -19 q 158 51 224 -19 q 92 247 92 122 l 92 739 l 286 739 l 286 276 q 318 178 286 213 q 413 144 350 144 m 426 789 q 322 833 367 789 q 276 933 276 876 q 299 1007 276 972 q 358 1060 322 1042 q 426 1078 393 1078 q 497 1059 463 1078 q 554 1007 532 1040 q 576 933 576 974 q 555 862 576 896 q 499 808 533 828 q 426 789 464 789 m 499 933 q 478 985 499 964 q 426 1006 457 1006 q 375 985 396 1006 q 354 933 354 964 q 375 882 354 903 q 426 861 396 861 q 478 882 457 861 q 499 933 499 903 z "},"Ű":{"ha":1003,"x_min":100,"x_max":907,"o":"m 492 150 q 692 339 692 150 l 692 997 l 904 997 l 904 342 q 800 69 904 164 q 494 -26 696 -26 q 205 67 310 -26 q 100 340 100 160 l 100 997 l 313 997 l 313 344 q 360 203 313 256 q 492 150 408 150 m 244 1097 l 375 1300 l 589 1300 l 385 1097 l 244 1097 m 563 1097 l 693 1300 l 907 1300 l 703 1097 l 563 1097 z "},"ű":{"ha":849,"x_min":92,"x_max":849,"o":"m 413 144 q 521 190 479 144 q 563 308 563 235 l 563 739 l 757 739 l 757 0 l 571 0 l 571 104 l 568 104 q 343 -19 496 -19 q 158 51 224 -19 q 92 247 92 122 l 92 739 l 286 739 l 286 276 q 318 178 286 213 q 413 144 350 144 m 186 839 l 317 1042 l 531 1042 l 326 839 l 186 839 m 504 839 l 635 1042 l 849 1042 l 644 839 l 504 839 z "},"Ų":{"ha":1003,"x_min":100,"x_max":904,"o":"m 492 150 q 643 197 594 150 q 692 338 692 244 l 692 997 l 904 997 l 904 342 q 825 92 904 183 q 585 -21 746 1 q 504 -94 536 -53 q 472 -176 472 -135 q 493 -222 472 -204 q 556 -240 514 -240 q 604 -234 579 -240 q 646 -219 629 -228 l 671 -282 q 519 -317 594 -317 q 395 -279 444 -317 q 346 -183 346 -242 q 372 -96 346 -136 q 450 -25 399 -56 q 190 81 279 -10 q 100 335 100 172 l 100 997 l 313 997 l 313 346 q 360 203 313 257 q 492 150 408 150 z "},"ų":{"ha":849,"x_min":92,"x_max":757,"o":"m 413 144 q 522 189 481 144 q 563 308 563 233 l 563 739 l 757 739 l 757 0 l 690 0 q 580 -81 621 -33 q 539 -176 539 -129 q 560 -222 539 -204 q 622 -240 581 -240 q 671 -234 646 -240 q 713 -219 696 -228 l 738 -282 q 586 -317 661 -317 q 462 -280 511 -317 q 413 -185 413 -243 q 454 -76 413 -124 q 571 0 496 -29 l 571 104 l 568 104 q 343 -19 496 -19 q 158 51 224 -19 q 92 247 92 122 l 92 739 l 286 739 l 286 276 q 413 144 286 144 z "},"Ŵ":{"ha":1311,"x_min":22,"x_max":1290,"o":"m 403 268 l 406 268 q 544 997 451 531 l 765 997 l 865 525 q 888 412 878 465 q 906 315 897 358 l 914 268 l 917 268 l 942 401 q 1046 853 954 467 l 1079 997 l 1290 997 l 1010 0 l 810 0 q 656 778 700 511 l 653 778 q 571 346 625 599 l 499 0 l 304 0 l 22 997 l 244 997 q 346 553 300 763 q 403 268 392 344 m 750 1097 l 661 1211 l 574 1097 l 417 1097 l 575 1300 l 749 1300 l 907 1097 l 750 1097 z "},"ŵ":{"ha":1081,"x_min":14,"x_max":1068,"o":"m 339 208 l 443 739 l 639 739 l 750 208 l 753 208 l 868 739 l 1068 739 l 856 0 l 656 0 l 540 539 l 538 539 l 422 0 l 222 0 l 14 739 l 221 739 l 336 208 l 339 208 m 640 839 l 551 953 l 464 839 l 307 839 l 465 1042 l 639 1042 l 797 839 l 640 839 z "},"Ŷ":{"ha":926,"x_min":21,"x_max":907,"o":"m 474 564 l 671 997 l 907 997 l 574 374 l 574 0 l 365 0 l 365 376 l 21 997 l 267 997 l 472 564 l 474 564 m 565 1097 l 476 1211 l 389 1097 l 232 1097 l 390 1300 l 564 1300 l 722 1097 l 565 1097 z "},"ŷ":{"ha":772,"x_min":14,"x_max":749,"o":"m 392 194 l 543 739 l 749 739 l 489 -10 q 419 -185 451 -115 q 377 -249 400 -225 q 316 -285 354 -274 q 214 -297 278 -297 q 121 -294 190 -297 l 121 -139 l 169 -142 q 250 -117 226 -142 q 286 -31 274 -93 l 14 739 l 231 739 l 389 194 l 392 194 m 482 839 l 393 953 l 306 839 l 149 839 l 307 1042 l 481 1042 l 639 839 l 482 839 z "},"Ź":{"ha":849,"x_min":35,"x_max":814,"o":"m 289 176 l 814 176 l 814 0 l 35 0 l 35 176 l 550 821 l 49 821 l 49 997 l 811 997 l 811 833 l 289 176 m 321 1097 l 451 1300 l 665 1300 l 461 1097 l 321 1097 z "},"ź":{"ha":694,"x_min":28,"x_max":667,"o":"m 279 160 l 667 160 l 667 0 l 28 0 l 28 151 l 407 583 l 54 583 l 54 739 l 653 739 l 653 579 l 279 160 m 264 839 l 394 1042 l 608 1042 l 404 839 l 264 839 z "},"Ż":{"ha":849,"x_min":35,"x_max":814,"o":"m 289 176 l 814 176 l 814 0 l 35 0 l 35 176 l 550 821 l 49 821 l 49 997 l 811 997 l 811 833 l 289 176 m 356 1111 l 356 1271 l 531 1271 l 531 1111 l 356 1111 z "},"ż":{"ha":694,"x_min":28,"x_max":667,"o":"m 279 160 l 667 160 l 667 0 l 28 0 l 28 151 l 407 583 l 54 583 l 54 739 l 653 739 l 653 579 l 279 160 m 275 853 l 275 1013 l 450 1013 l 450 853 l 275 853 z "},"Ș":{"ha":926,"x_min":54,"x_max":874,"o":"m 438 851 q 313 819 361 851 q 264 732 264 786 q 287 666 264 692 q 382 624 310 640 l 617 567 q 817 467 761 532 q 874 300 874 401 q 822 119 874 193 q 681 10 769 46 q 479 -26 592 -26 q 171 57 282 -26 q 54 307 60 140 l 254 307 q 311 188 257 231 q 465 146 365 146 q 620 178 567 146 q 674 275 674 210 q 645 340 674 317 q 550 383 617 364 q 328 438 483 403 q 131 535 192 468 q 69 717 69 601 q 112 875 69 806 q 240 984 154 944 q 453 1024 326 1024 q 655 984 568 1024 q 790 872 742 944 q 842 701 839 799 l 642 701 q 438 851 628 851 m 392 -365 l 392 -314 q 474 -203 471 -290 l 392 -203 l 392 -61 l 538 -61 l 538 -187 q 499 -308 538 -261 q 392 -365 461 -354 z "},"ș":{"ha":772,"x_min":42,"x_max":721,"o":"m 699 514 l 508 514 q 469 590 500 568 q 376 611 438 611 q 288 594 318 611 q 258 539 258 578 q 303 490 258 508 q 446 454 347 472 q 660 372 599 425 q 721 236 721 319 q 630 44 721 107 q 393 -19 539 -19 q 136 49 231 -19 q 42 236 42 118 l 242 236 q 401 128 242 128 q 492 149 458 128 q 526 204 526 171 q 483 256 526 238 q 326 294 439 274 q 132 370 196 318 q 68 511 68 422 q 147 690 68 622 q 367 758 226 758 q 610 694 529 758 q 699 514 692 631 m 318 -365 l 318 -314 q 400 -203 397 -290 l 318 -203 l 318 -61 l 464 -61 l 464 -187 q 426 -308 464 -261 q 318 -365 388 -354 z "},"Ț":{"ha":849,"x_min":19,"x_max":831,"o":"m 529 821 l 529 0 l 321 0 l 321 821 l 19 821 l 19 997 l 831 997 l 831 821 l 529 821 m 354 -365 l 354 -314 q 436 -203 433 -290 l 354 -203 l 354 -61 l 500 -61 l 500 -187 q 462 -308 500 -261 q 354 -365 424 -354 z "},"ț":{"ha":463,"x_min":14,"x_max":429,"o":"m 429 739 l 429 600 l 308 600 l 308 188 q 324 149 308 158 q 388 139 340 139 q 429 142 399 139 l 429 -6 q 325 -8 351 -8 q 190 10 236 -8 q 129 63 144 29 q 114 153 114 97 l 114 600 l 14 600 l 14 739 l 114 739 l 114 939 l 308 939 l 308 739 l 429 739 m 186 -365 l 186 -314 q 268 -203 265 -290 l 186 -203 l 186 -61 l 332 -61 l 332 -187 q 294 -308 332 -261 q 186 -365 256 -354 z "},"ȷ":{"ha":386,"x_min":4,"x_max":290,"o":"m 268 -208 q 228 -260 251 -242 q 163 -288 206 -279 q 44 -297 119 -297 l 4 -297 l 4 -142 l 33 -142 q 81 -127 67 -142 q 96 -72 96 -112 l 96 739 l 290 739 l 290 -85 q 268 -208 290 -162 z "},"ˇ":{"ha":463,"x_min":-14,"x_max":476,"o":"m 319 1042 l 476 1042 l 318 839 l 144 839 l -14 1042 l 143 1042 l 231 928 l 319 1042 z "},"ˉ":{"ha":463,"x_min":-8,"x_max":471,"o":"m -8 839 l -8 942 l 471 942 l 471 839 l -8 839 z "},"˘":{"ha":463,"x_min":-3,"x_max":465,"o":"m 226 944 q 334 969 300 944 q 375 1042 368 993 l 465 1042 q 390 890 453 942 q 219 839 326 839 q 63 892 121 839 q -3 1042 6 946 l 89 1042 q 133 967 99 989 q 226 944 167 944 z "},"˙":{"ha":463,"x_min":144,"x_max":319,"o":"m 144 853 l 144 1013 l 319 1013 l 319 853 l 144 853 z "},"˚":{"ha":463,"x_min":82,"x_max":382,"o":"m 232 789 q 127 833 172 789 q 82 933 82 876 q 105 1007 82 972 q 163 1060 128 1042 q 232 1078 199 1078 q 303 1059 268 1078 q 360 1007 338 1040 q 382 933 382 974 q 360 862 382 896 q 304 808 339 828 q 232 789 269 789 m 304 933 q 283 985 304 964 q 232 1006 263 1006 q 181 985 201 1006 q 160 933 160 964 q 181 882 160 903 q 232 861 201 861 q 283 882 263 861 q 304 933 304 903 z "},"˛":{"ha":463,"x_min":85,"x_max":410,"o":"m 211 -176 q 232 -222 211 -204 q 294 -240 253 -240 q 342 -235 318 -240 q 385 -219 365 -229 l 410 -282 q 258 -317 338 -317 q 134 -280 183 -317 q 85 -185 85 -243 q 127 -76 85 -125 q 243 0 169 -28 l 353 0 l 353 -6 q 251 -83 292 -36 q 211 -176 211 -129 z "},"˝":{"ha":463,"x_min":13,"x_max":675,"o":"m 13 839 l 143 1042 l 357 1042 l 153 839 l 13 839 m 331 839 l 461 1042 l 675 1042 l 471 839 l 331 839 z "},"Δ":{"ha":975,"x_min":14,"x_max":961,"o":"m 14 0 l 376 989 l 575 989 l 961 0 l 14 0 m 475 779 l 265 172 l 700 172 l 475 779 z "},"Ω":{"ha":1067,"x_min":67,"x_max":989,"o":"m 740 208 l 740 164 l 988 164 l 988 0 l 589 0 l 589 283 q 734 373 681 299 q 788 553 788 447 q 753 698 788 635 q 660 795 719 761 q 531 829 601 829 q 399 794 458 829 q 305 696 340 760 q 269 549 269 632 q 322 372 269 444 q 465 283 375 299 l 465 0 l 67 0 l 67 164 l 314 164 l 314 208 q 185 276 242 224 q 98 404 129 328 q 67 568 67 481 q 120 777 67 678 q 277 939 174 876 q 521 1001 381 1001 q 765 947 658 1001 q 930 794 871 892 q 989 571 989 696 q 958 406 989 483 q 871 276 928 329 q 740 208 814 224 z "},"μ":{"ha":849,"x_min":90,"x_max":758,"o":"m 413 144 q 522 195 479 144 q 564 335 564 246 l 564 739 l 758 739 l 758 0 l 572 0 l 572 104 l 569 104 q 505 12 543 43 q 413 -19 467 -19 q 339 -1 371 -19 q 285 60 307 17 l 285 -287 l 90 -287 l 90 739 l 285 739 l 285 303 q 315 188 285 231 q 413 144 346 144 z "},"π":{"ha":846,"x_min":0,"x_max":813,"o":"m 699 515 l 699 225 q 710 156 699 172 q 753 140 722 140 q 813 156 778 140 l 813 24 q 786 11 807 21 q 738 -5 765 1 q 679 -11 711 -11 q 566 25 611 -11 q 521 157 521 61 l 521 515 l 276 515 l 276 0 l 97 0 l 97 515 l 0 515 l 0 679 l 810 679 l 810 515 l 699 515 z "},"⁄":{"ha":232,"x_min":-236,"x_max":467,"o":"m -236 -26 l 358 986 l 467 986 l -126 -26 l -236 -26 z "},"ℓ":{"ha":694,"x_min":63,"x_max":603,"o":"m 335 375 l 335 189 q 360 113 335 140 q 429 85 385 85 q 553 139 490 85 l 603 64 q 396 -19 510 -19 q 250 32 304 -19 q 196 167 196 83 l 196 282 l 115 204 l 63 281 l 194 399 l 194 751 q 222 878 194 821 q 297 968 249 935 q 407 1001 346 1001 q 536 949 488 1001 q 585 810 585 897 q 524 600 585 706 q 335 375 463 494 m 471 800 q 452 876 471 846 q 406 907 433 907 q 355 872 375 907 q 335 771 335 836 l 335 496 q 436 649 401 571 q 471 800 471 728 z "},"Ω":{"ha":1067,"x_min":67,"x_max":989,"o":"m 740 208 l 740 164 l 988 164 l 988 0 l 589 0 l 589 283 q 734 373 681 299 q 788 553 788 447 q 753 698 788 635 q 660 795 719 761 q 531 829 601 829 q 399 794 458 829 q 305 696 340 760 q 269 549 269 632 q 322 372 269 444 q 465 283 375 299 l 465 0 l 67 0 l 67 164 l 314 164 l 314 208 q 185 276 242 224 q 98 404 129 328 q 67 568 67 481 q 120 777 67 678 q 277 939 174 876 q 521 1001 381 1001 q 765 947 658 1001 q 930 794 871 892 q 989 571 989 696 q 958 406 989 483 q 871 276 928 329 q 740 208 814 224 z "},"℮":{"ha":694,"x_min":61,"x_max":779,"o":"m 419 26 q 571 66 507 26 q 688 193 635 106 l 736 164 q 598 19 671 61 q 419 -24 525 -24 q 233 26 315 -24 q 106 164 151 76 q 61 360 61 251 q 107 558 61 471 q 234 694 153 644 q 419 743 315 743 q 604 694 522 743 q 733 559 686 646 q 779 360 779 472 l 218 360 l 218 108 q 419 26 300 26 m 622 611 q 417 694 535 694 q 218 611 301 694 l 218 410 l 622 410 l 622 611 z "},"∂":{"ha":794,"x_min":58,"x_max":735,"o":"m 376 -18 q 207 24 279 -18 q 97 140 135 67 q 58 304 58 214 q 97 463 58 392 q 206 574 136 533 q 364 615 276 615 q 550 549 474 615 q 500 781 550 700 q 360 861 450 861 q 275 842 315 861 q 192 788 235 824 l 94 899 q 351 1001 207 1001 q 554 944 468 1001 q 688 774 640 888 q 735 496 735 660 q 640 109 735 236 q 376 -18 546 -18 m 549 374 l 549 404 q 478 460 518 439 q 393 481 438 481 q 278 428 322 481 q 235 294 235 375 q 276 165 235 213 q 379 117 318 117 q 481 160 443 117 q 533 263 518 204 q 549 374 549 321 z "},"∆":{"ha":975,"x_min":14,"x_max":961,"o":"m 14 0 l 376 989 l 575 989 l 961 0 l 14 0 m 475 779 l 265 172 l 700 172 l 475 779 z "},"∏":{"ha":1040,"x_min":76,"x_max":963,"o":"m 779 -297 l 779 917 l 261 917 l 261 -297 l 76 -297 l 76 1092 l 963 1092 l 963 -297 l 779 -297 z "},"∑":{"ha":935,"x_min":38,"x_max":897,"o":"m 300 917 l 665 407 l 275 -122 l 897 -122 l 897 -297 l 38 -297 l 38 -144 l 447 406 l 54 939 l 54 1092 l 881 1092 l 881 917 l 300 917 z "},"−":{"ha":811,"x_min":56,"x_max":756,"o":"m 56 274 l 56 429 l 756 429 l 756 274 l 56 274 z "},"∕":{"ha":232,"x_min":-236,"x_max":467,"o":"m -236 -26 l 358 986 l 467 986 l -126 -26 l -236 -26 z "},"∙":{"ha":386,"x_min":81,"x_max":306,"o":"m 193 239 q 113 272 146 239 q 81 351 81 304 q 113 431 81 397 q 193 464 146 464 q 272 431 239 464 q 306 351 306 399 q 274 272 306 306 q 193 239 242 239 z "},"√":{"ha":792,"x_min":-12,"x_max":806,"o":"m 333 -297 l 129 124 l 56 88 l -12 233 l 225 342 l 388 -12 l 613 1092 l 806 1092 l 503 -297 l 333 -297 z "},"∞":{"ha":1178,"x_min":63,"x_max":1115,"o":"m 861 643 q 993 610 935 643 q 1083 515 1051 576 q 1115 376 1115 454 q 1084 231 1115 294 q 994 131 1053 167 q 860 96 936 96 q 589 257 715 96 q 326 99 468 99 q 136 173 210 99 q 63 372 63 247 q 96 515 63 454 q 187 610 129 576 q 317 643 244 643 q 456 605 393 643 q 589 474 519 567 q 728 608 668 572 q 861 643 788 643 m 860 256 q 934 286 904 256 q 964 369 964 317 q 934 453 964 422 q 856 485 904 485 q 783 462 817 485 q 682 367 749 439 q 860 256 774 256 m 494 367 q 317 483 399 483 q 242 451 271 483 q 214 369 214 419 q 243 288 214 318 q 321 257 272 257 q 411 288 365 257 q 494 367 457 319 z "},"∫":{"ha":872,"x_min":107,"x_max":721,"o":"m 636 886 q 554 968 571 886 q 526 1007 546 1007 q 510 998 518 1007 q 500 968 501 989 q 503 887 500 938 q 507 801 506 836 q 508 740 508 765 l 508 139 q 482 -158 508 -96 q 402 -260 454 -224 q 276 -296 350 -296 q 188 -277 226 -296 q 128 -230 149 -258 q 107 -171 107 -201 q 131 -115 107 -136 q 192 -93 156 -93 q 243 -113 225 -93 q 271 -178 261 -133 q 281 -204 274 -194 q 299 -214 289 -214 q 325 -165 325 -214 q 317 33 317 -28 l 317 774 q 382 1015 317 942 q 557 1089 447 1089 q 672 1056 624 1089 q 721 975 721 1022 q 696 909 721 932 q 636 886 671 886 z "},"≈":{"ha":824,"x_min":29,"x_max":794,"o":"m 572 394 q 508 404 544 394 q 389 440 471 414 q 274 476 294 471 q 231 482 253 482 q 176 458 199 482 q 149 397 153 433 l 31 397 q 100 589 40 524 q 260 654 160 654 q 382 631 313 654 q 510 592 451 607 q 594 576 569 576 q 675 658 665 576 l 794 658 q 745 494 785 553 q 658 415 706 435 q 572 394 611 394 m 571 79 q 506 89 543 79 q 388 125 469 99 q 272 161 293 156 q 229 167 251 167 q 174 142 197 167 q 147 82 151 118 l 29 82 q 99 274 39 208 q 258 339 158 339 q 381 315 311 339 q 511 276 451 290 q 593 261 571 261 q 674 343 664 261 l 793 343 q 744 178 783 238 q 658 99 704 119 q 571 79 611 79 z "},"≠":{"ha":824,"x_min":42,"x_max":782,"o":"m 782 621 l 782 442 l 547 442 l 475 299 l 782 299 l 782 118 l 385 118 l 276 -100 l 118 -21 l 189 118 l 42 118 l 42 299 l 278 299 l 350 442 l 42 442 l 42 621 l 439 621 l 549 839 l 706 760 l 636 621 l 782 621 z "},"≤":{"ha":824,"x_min":42,"x_max":782,"o":"m 782 346 l 782 158 l 42 392 l 42 571 l 782 800 l 782 613 l 290 482 l 782 346 m 42 -60 l 42 119 l 782 119 l 782 -60 l 42 -60 z "},"≥":{"ha":824,"x_min":42,"x_max":782,"o":"m 42 158 l 42 346 l 533 482 l 42 613 l 42 800 l 782 571 l 782 392 l 42 158 m 42 -60 l 42 119 l 782 119 l 782 -60 l 42 -60 z "},"◊":{"ha":824,"x_min":72,"x_max":751,"o":"m 493 -49 l 328 -49 l 72 494 l 329 1038 l 493 1038 l 751 494 l 493 -49 m 567 494 l 411 857 l 256 494 l 411 131 l 567 494 z "},"":{"ha":463,"x_min":-32,"x_max":313,"o":"m 172 1097 l -32 1300 l 182 1300 l 313 1097 l 172 1097 z "},"":{"ha":463,"x_min":150,"x_max":494,"o":"m 150 1097 l 281 1300 l 494 1300 l 290 1097 l 150 1097 z "},"":{"ha":463,"x_min":-14,"x_max":476,"o":"m 319 1097 l 231 1211 l 143 1097 l -14 1097 l 144 1300 l 318 1300 l 476 1097 l 319 1097 z "},"":{"ha":463,"x_min":-14,"x_max":476,"o":"m 319 1300 l 476 1300 l 318 1097 l 144 1097 l -14 1300 l 143 1300 l 231 1186 l 319 1300 z "},"":{"ha":463,"x_min":-24,"x_max":486,"o":"m 335 1115 q 271 1125 310 1115 q 192 1151 232 1135 q 131 1165 154 1165 q 90 1151 106 1165 q 65 1106 74 1138 l -24 1106 q 33 1232 -10 1188 q 144 1276 76 1276 q 190 1269 167 1276 q 267 1242 214 1263 q 331 1226 308 1226 q 374 1240 360 1226 q 396 1282 389 1253 l 486 1282 q 433 1158 472 1201 q 335 1115 393 1115 z "},"":{"ha":463,"x_min":8,"x_max":454,"o":"m 8 1111 l 8 1271 l 183 1271 l 183 1111 l 8 1111 m 279 1111 l 279 1271 l 454 1271 l 454 1111 l 279 1111 z "},"":{"ha":463,"x_min":-8,"x_max":471,"o":"m -8 1135 l -8 1238 l 471 1238 l 471 1135 l -8 1135 z "},"":{"ha":463,"x_min":-3,"x_max":465,"o":"m 226 1203 q 335 1227 301 1203 q 375 1300 368 1251 l 465 1300 q 390 1149 454 1201 q 219 1097 326 1097 q 63 1151 121 1097 q -3 1300 6 1204 l 89 1300 q 133 1225 99 1247 q 226 1203 167 1203 z "},"":{"ha":463,"x_min":82,"x_max":382,"o":"m 232 1047 q 127 1091 172 1047 q 82 1192 82 1135 q 105 1265 82 1231 q 162 1317 128 1299 q 232 1336 196 1336 q 303 1317 268 1336 q 360 1265 338 1299 q 382 1192 382 1232 q 360 1121 382 1154 q 305 1067 339 1088 q 232 1047 271 1047 m 304 1192 q 283 1243 304 1222 q 232 1264 263 1264 q 181 1243 201 1264 q 160 1192 160 1222 q 181 1140 160 1161 q 232 1119 201 1119 q 283 1140 263 1119 q 304 1192 304 1161 z "},"":{"ha":463,"x_min":13,"x_max":675,"o":"m 13 1097 l 143 1300 l 357 1300 l 153 1097 l 13 1097 m 331 1097 l 461 1300 l 675 1300 l 471 1097 l 331 1097 z "},"":{"ha":463,"x_min":144,"x_max":319,"o":"m 144 1111 l 144 1271 l 319 1271 l 319 1111 l 144 1111 z "},"":{"ha":432,"x_min":181,"x_max":326,"o":"m 181 779 l 181 831 q 263 942 260 851 l 181 942 l 181 1083 l 326 1083 l 326 956 q 288 836 326 882 q 181 779 249 790 z "},"":{"ha":432,"x_min":158,"x_max":304,"o":"m 158 -365 l 158 -314 q 240 -203 238 -290 l 158 -203 l 158 -61 l 304 -61 l 304 -187 q 266 -308 304 -261 q 158 -365 228 -354 z "},"":{"ha":432,"x_min":158,"x_max":304,"o":"m 222 981 l 304 981 l 304 839 l 158 839 l 158 965 q 196 1085 158 1039 q 304 1143 233 1131 l 304 1092 q 222 981 225 1071 z "},"":{"ha":711,"x_min":0,"x_max":711,"o":"m 0 0 l 0 997 l 711 997 l 711 0 l 0 0 m 69 926 l 69 69 l 642 69 l 642 926 l 69 926 m 532 664 q 512 576 532 613 q 442 494 492 540 q 388 433 400 456 q 376 367 376 410 l 376 325 l 313 325 l 311 365 q 324 453 311 417 q 390 542 338 489 q 446 603 431 582 q 461 658 461 625 q 430 742 461 707 q 356 776 399 776 q 279 743 308 776 q 242 644 250 710 l 172 656 q 230 797 181 747 q 360 846 279 846 q 483 795 435 846 q 532 664 532 744 m 386 163 l 308 163 l 308 256 l 386 256 l 386 163 z "},"ﬁ":{"ha":849,"x_min":14,"x_max":753,"o":"m 438 1007 l 438 850 l 386 850 q 341 845 356 850 q 321 826 326 840 q 315 778 315 811 l 315 739 l 442 739 l 442 600 l 315 600 l 315 0 l 121 0 l 121 600 l 14 600 l 14 739 l 121 739 l 121 797 q 175 959 121 908 q 344 1010 229 1010 q 438 1007 374 1010 m 558 826 l 558 1007 l 753 1007 l 753 826 l 558 826 m 558 0 l 558 739 l 753 739 l 753 0 l 558 0 z "},"ﬂ":{"ha":849,"x_min":14,"x_max":753,"o":"m 438 1007 l 438 850 l 386 850 q 341 845 356 850 q 321 826 326 840 q 315 778 315 811 l 315 739 l 442 739 l 442 600 l 315 600 l 315 0 l 121 0 l 121 600 l 14 600 l 14 739 l 121 739 l 121 797 q 175 959 121 908 q 344 1010 229 1010 q 438 1007 374 1010 m 558 0 l 558 997 l 753 997 l 753 0 l 558 0 z "},"₹":{"ha":772,"x_min":85,"x_max":765,"o":"m 313 389 l 657 0 l 417 0 l 85 390 l 85 535 l 249 535 q 381 566 335 535 q 428 672 428 597 l 85 672 l 85 776 l 418 776 q 361 849 403 832 q 249 865 319 865 l 85 865 l 85 969 l 765 969 l 765 865 l 563 865 q 594 830 583 849 q 610 796 604 811 q 618 776 617 781 l 765 776 l 765 672 l 628 672 q 543 461 628 533 q 313 389 458 389 z "},"₺":{"ha":772,"x_min":22,"x_max":760,"o":"m 289 0 l 132 0 l 132 382 l 22 329 l 22 442 l 132 494 l 132 592 l 22 539 l 22 651 l 132 704 l 132 969 l 326 969 l 326 793 l 575 914 l 575 801 l 326 681 l 326 583 l 575 704 l 575 592 l 326 471 l 326 156 q 475 207 425 164 q 542 321 525 250 q 560 511 558 392 l 760 511 q 650 125 760 250 q 289 0 540 0 z "},"ẞ":{"ha":1117,"x_min":99,"x_max":1075,"o":"m 685 697 q 720 637 685 663 q 833 572 756 611 l 892 543 q 1033 424 990 490 q 1075 261 1075 358 q 982 47 1075 121 q 739 -26 889 -26 q 485 51 578 -26 q 392 281 393 128 l 592 281 q 632 179 593 213 q 743 144 671 146 q 840 172 804 144 q 875 257 875 200 q 840 341 875 310 q 728 413 806 372 l 699 428 q 582 498 624 468 q 515 569 540 528 q 490 669 490 610 q 537 786 490 738 q 656 851 583 835 q 549 856 593 856 q 370 812 433 856 q 307 664 307 768 l 307 0 l 99 0 l 99 685 q 217 943 99 863 q 563 1024 335 1024 q 917 996 732 1024 l 917 825 q 759 788 833 821 q 685 697 685 756 z "},"₼":{"ha":1072,"x_min":14,"x_max":1058,"o":"m 439 813 l 439 969 l 633 969 l 633 813 q 874 682 778 793 q 1014 413 969 571 q 1058 89 1058 254 l 1058 0 l 863 0 l 863 64 q 811 460 863 297 q 633 656 760 624 l 633 97 l 439 97 l 439 656 q 260 460 313 624 q 208 64 208 296 l 208 0 l 14 0 l 14 89 q 58 413 14 254 q 199 682 103 571 q 439 813 294 793 z "},"₽":{"ha":772,"x_min":14,"x_max":767,"o":"m 14 332 l 139 332 l 139 418 l 14 418 l 14 543 l 139 543 l 139 969 l 438 969 q 681 900 594 969 q 767 685 767 831 q 681 483 767 549 q 440 418 594 418 l 333 418 l 333 332 l 589 332 l 589 207 l 333 207 l 333 0 l 139 0 l 139 207 l 14 207 l 14 332 m 571 685 q 551 773 571 743 q 492 813 531 803 q 388 824 454 824 l 333 824 l 333 543 l 386 543 q 492 554 453 543 q 551 596 531 565 q 571 685 571 626 z "},"Ё":{"ha":926,"x_min":114,"x_max":869,"o":"m 314 825 l 314 604 l 803 604 l 803 432 l 314 432 l 314 181 l 869 181 l 869 0 l 114 0 l 114 997 l 846 997 l 846 825 l 314 825 m 418 1083 l 238 1083 l 238 1247 l 418 1247 l 418 1083 m 690 1083 l 510 1083 l 510 1247 l 690 1247 l 690 1083 z "},"Ђ":{"ha":1057,"x_min":11,"x_max":1008,"o":"m 796 826 l 476 826 l 476 593 q 587 611 557 607 q 656 615 617 615 q 917 508 825 615 q 1008 219 1008 400 q 951 -51 1008 61 q 788 -224 893 -164 q 542 -287 683 -283 l 542 -119 q 735 -24 671 -107 q 800 208 800 60 q 614 444 800 444 q 476 426 550 444 l 476 0 l 268 0 l 268 826 l 11 826 l 11 997 l 796 997 l 796 826 z "},"Ѓ":{"ha":803,"x_min":114,"x_max":785,"o":"m 785 825 l 322 825 l 322 0 l 114 0 l 114 997 l 785 997 l 785 825 m 449 1083 l 310 1083 l 439 1283 l 654 1283 l 449 1083 z "},"Є":{"ha":1003,"x_min":61,"x_max":942,"o":"m 942 688 l 733 688 q 535 842 685 842 q 404 807 461 842 q 315 713 347 772 q 281 581 283 653 l 578 581 l 578 417 l 278 417 q 346 226 278 296 q 528 156 414 156 q 732 322 676 156 l 940 322 q 794 67 907 160 q 515 -25 682 -25 q 275 38 378 -25 q 117 219 172 100 q 61 504 61 339 q 117 772 61 654 q 276 956 172 890 q 518 1022 379 1022 q 807 934 696 1022 q 942 688 918 846 z "},"Ѕ":{"ha":926,"x_min":53,"x_max":874,"o":"m 842 699 l 642 699 q 588 811 642 772 q 439 850 533 850 q 312 819 363 850 q 261 728 261 788 q 283 663 261 685 q 368 626 306 642 l 613 567 q 744 520 689 547 q 836 438 799 493 q 874 292 874 382 q 765 60 874 146 q 457 -25 657 -25 q 164 60 275 -25 q 53 307 53 144 l 253 307 q 312 188 253 228 q 468 147 371 147 q 615 178 557 147 q 674 275 674 210 q 644 341 674 317 q 585 374 614 365 q 489 399 557 382 l 386 422 q 211 474 275 447 q 108 558 147 501 q 69 713 69 614 q 176 944 69 865 q 456 1022 282 1022 q 656 985 568 1022 q 794 876 744 949 q 842 699 844 803 z "},"І":{"ha":386,"x_min":89,"x_max":297,"o":"m 297 0 l 89 0 l 89 997 l 297 997 l 297 0 z "},"Ї":{"ha":386,"x_min":-33,"x_max":419,"o":"m 297 0 l 89 0 l 89 997 l 297 997 l 297 0 m 147 1083 l -33 1083 l -33 1247 l 147 1247 l 147 1083 m 419 1083 l 239 1083 l 239 1247 l 419 1247 l 419 1083 z "},"Ј":{"ha":772,"x_min":32,"x_max":675,"o":"m 675 269 q 586 51 675 126 q 351 -25 497 -25 q 146 26 215 -25 q 55 160 76 76 q 32 376 33 244 l 232 376 q 236 253 232 294 q 266 180 240 213 q 351 147 292 147 q 428 167 403 147 q 460 215 453 186 q 467 294 467 244 l 467 997 l 675 997 l 675 269 z "},"Љ":{"ha":1389,"x_min":14,"x_max":1342,"o":"m 863 604 l 990 604 q 1253 531 1164 604 q 1342 301 1342 457 q 1253 73 1342 146 q 1019 0 1164 0 l 654 0 l 654 825 l 408 825 l 400 553 q 379 219 394 335 q 309 37 364 99 q 144 -25 254 -25 q 86 -19 114 -25 q 14 0 58 -14 l 14 174 q 99 147 61 147 q 183 260 175 147 q 213 997 190 353 l 863 997 l 863 604 m 1133 306 q 1088 411 1133 382 q 958 440 1043 440 l 863 440 l 863 172 l 967 172 q 1133 306 1133 172 z "},"Њ":{"ha":1374,"x_min":97,"x_max":1328,"o":"m 306 604 l 642 604 l 642 997 l 850 997 l 850 604 l 976 604 q 1239 531 1150 604 q 1328 301 1328 457 q 1240 73 1328 146 q 1006 0 1151 0 l 642 0 l 642 440 l 306 440 l 306 0 l 97 0 l 97 997 l 306 997 l 306 604 m 1119 306 q 1074 412 1119 383 q 944 440 1029 440 l 850 440 l 850 172 l 953 172 q 1119 306 1119 172 z "},"Ћ":{"ha":1110,"x_min":15,"x_max":1010,"o":"m 796 825 l 476 825 l 476 604 l 708 604 q 941 539 872 604 q 1010 332 1010 474 l 1010 0 l 801 0 l 801 314 q 769 405 801 378 q 668 432 736 432 l 476 432 l 476 0 l 268 0 l 268 825 l 15 825 l 15 997 l 796 997 l 796 825 z "},"Ќ":{"ha":1003,"x_min":121,"x_max":1003,"o":"m 710 997 l 979 997 l 572 589 l 1003 0 l 739 0 l 431 442 l 329 338 l 329 0 l 121 0 l 121 997 l 329 997 l 329 592 l 710 997 m 525 1083 l 386 1083 l 515 1283 l 731 1283 l 525 1083 z "},"Ў":{"ha":926,"x_min":33,"x_max":917,"o":"m 493 461 l 692 997 l 917 997 l 601 268 q 522 109 558 168 q 428 13 486 50 q 282 -25 369 -25 q 229 -21 250 -25 q 161 0 208 -17 l 161 203 q 220 181 199 186 q 265 175 242 175 q 338 199 311 175 q 365 257 365 222 q 353 322 365 289 q 317 403 340 356 l 33 997 l 267 997 l 493 461 m 464 1192 q 565 1215 525 1192 q 613 1283 604 1239 l 690 1283 q 632 1133 690 1182 q 464 1083 574 1083 q 296 1133 354 1083 q 238 1283 238 1182 l 315 1283 q 363 1215 324 1239 q 464 1192 403 1192 z "},"Џ":{"ha":1003,"x_min":97,"x_max":906,"o":"m 306 181 l 697 181 l 697 997 l 906 997 l 906 0 l 592 0 l 592 -214 l 411 -214 l 411 0 l 97 0 l 97 997 l 306 997 l 306 181 z "},"А":{"ha":1003,"x_min":28,"x_max":975,"o":"m 975 0 l 749 0 l 685 206 l 317 206 l 247 0 l 28 0 l 385 997 l 622 997 l 975 0 m 626 378 l 503 772 l 500 772 l 372 378 l 626 378 z "},"Б":{"ha":1003,"x_min":114,"x_max":942,"o":"m 806 825 l 322 825 l 322 604 l 590 604 q 853 531 764 604 q 942 301 942 457 q 847 66 942 132 q 619 0 751 0 l 114 0 l 114 997 l 806 997 l 806 825 m 733 306 q 688 412 733 383 q 558 440 643 440 l 322 440 l 322 172 l 567 172 q 733 306 733 172 z "},"В":{"ha":1003,"x_min":114,"x_max":942,"o":"m 910 742 q 881 619 910 667 q 788 538 853 571 q 907 446 872 507 q 942 299 942 385 q 842 78 942 157 q 578 0 743 0 l 114 0 l 114 997 l 610 997 q 830 926 750 997 q 910 742 910 856 m 710 718 q 581 825 710 825 l 314 825 l 314 604 l 575 604 q 672 633 633 604 q 710 718 710 663 m 733 307 q 690 410 733 381 q 574 440 647 440 l 314 440 l 314 172 l 578 172 q 690 207 647 172 q 733 307 733 242 z "},"Г":{"ha":803,"x_min":114,"x_max":785,"o":"m 785 825 l 322 825 l 322 0 l 114 0 l 114 997 l 785 997 l 785 825 z "},"Д":{"ha":1003,"x_min":17,"x_max":986,"o":"m 986 172 l 986 -214 l 806 -214 l 806 0 l 197 0 l 197 -214 l 17 -214 l 17 172 l 104 172 q 201 538 174 350 q 231 997 228 726 l 910 997 l 910 172 l 986 172 m 414 825 q 313 172 407 417 l 701 172 l 701 825 l 414 825 z "},"Е":{"ha":926,"x_min":114,"x_max":869,"o":"m 314 825 l 314 604 l 803 604 l 803 432 l 314 432 l 314 181 l 869 181 l 869 0 l 114 0 l 114 997 l 846 997 l 846 825 l 314 825 z "},"Ж":{"ha":1389,"x_min":17,"x_max":1372,"o":"m 554 597 l 596 597 l 596 997 l 797 997 l 797 597 l 838 597 l 1135 997 l 1372 997 l 1013 542 l 1372 0 l 1124 0 l 838 431 l 797 431 l 797 0 l 596 0 l 596 431 l 554 431 l 265 0 l 17 0 l 382 542 l 25 997 l 257 997 l 554 597 z "},"З":{"ha":849,"x_min":42,"x_max":807,"o":"m 774 747 q 737 624 774 678 q 621 544 700 571 l 621 542 q 761 458 715 519 q 807 292 807 396 q 706 60 807 146 q 422 -25 604 -25 q 173 52 276 -25 q 42 290 69 129 l 233 290 q 306 174 261 208 q 422 139 351 139 q 552 183 506 139 q 599 296 599 228 q 547 415 599 379 q 388 444 496 450 l 388 593 q 431 589 403 589 q 533 624 493 589 q 574 719 574 658 q 530 823 574 788 q 428 858 486 858 q 263 710 281 858 l 71 710 q 444 1022 100 1022 q 688 947 603 1022 q 774 747 774 872 z "},"И":{"ha":1003,"x_min":97,"x_max":906,"o":"m 297 318 l 300 318 l 694 997 l 906 997 l 906 0 l 706 0 l 706 675 l 703 675 l 308 0 l 97 0 l 97 997 l 297 997 l 297 318 z "},"Й":{"ha":1003,"x_min":97,"x_max":906,"o":"m 297 318 l 300 318 l 694 997 l 906 997 l 906 0 l 706 0 l 706 675 l 703 675 l 308 0 l 97 0 l 97 997 l 297 997 l 297 318 m 501 1192 q 602 1215 563 1192 q 650 1283 642 1239 l 728 1283 q 669 1133 728 1182 q 501 1083 611 1083 q 333 1133 392 1083 q 275 1283 275 1182 l 353 1283 q 401 1215 361 1239 q 501 1192 440 1192 z "},"К":{"ha":1003,"x_min":121,"x_max":1003,"o":"m 710 997 l 979 997 l 572 589 l 1003 0 l 739 0 l 431 442 l 329 338 l 329 0 l 121 0 l 121 997 l 329 997 l 329 592 l 710 997 z "},"Л":{"ha":1028,"x_min":53,"x_max":947,"o":"m 739 0 l 739 825 l 447 825 l 439 553 q 422 237 432 338 q 381 81 413 136 q 186 -25 322 -25 q 128 -19 156 -25 q 53 0 100 -14 l 53 174 q 135 147 100 147 q 196 178 174 147 q 224 265 218 208 q 251 997 232 358 l 947 997 l 947 0 l 739 0 z "},"М":{"ha":1157,"x_min":97,"x_max":1060,"o":"m 576 221 l 579 221 l 754 997 l 1060 997 l 1060 0 l 868 0 l 868 833 l 865 833 l 676 0 l 474 0 l 292 833 l 289 833 l 289 0 l 97 0 l 97 997 l 401 997 l 576 221 z "},"Н":{"ha":1003,"x_min":97,"x_max":906,"o":"m 306 618 l 697 618 l 697 997 l 906 997 l 906 0 l 697 0 l 697 446 l 306 446 l 306 0 l 97 0 l 97 997 l 306 997 l 306 618 z "},"О":{"ha":1081,"x_min":61,"x_max":1019,"o":"m 1019 499 q 960 227 1019 346 q 791 42 900 108 q 540 -25 682 -25 q 283 40 392 -25 q 118 222 175 104 q 61 499 61 340 q 118 775 61 657 q 283 958 175 893 q 540 1022 392 1022 q 790 956 681 1022 q 959 769 899 889 q 1019 499 1019 650 m 540 156 q 683 199 622 156 q 778 319 744 242 q 811 499 811 397 q 778 678 811 600 q 683 799 744 756 q 539 842 621 842 q 399 799 460 842 q 303 679 338 757 q 269 499 269 601 q 303 319 269 397 q 397 199 336 242 q 540 156 458 156 z "},"П":{"ha":1003,"x_min":97,"x_max":906,"o":"m 906 0 l 697 0 l 697 825 l 306 825 l 306 0 l 97 0 l 97 997 l 906 997 l 906 0 z "},"Р":{"ha":926,"x_min":114,"x_max":879,"o":"m 879 678 q 838 510 879 583 q 724 398 797 438 q 556 358 650 358 l 322 358 l 322 0 l 114 0 l 114 997 l 574 997 q 799 915 719 997 q 879 678 879 832 m 671 678 q 633 788 671 751 q 524 825 594 825 l 322 825 l 322 531 l 524 531 q 633 567 594 531 q 671 678 671 604 z "},"С":{"ha":1003,"x_min":61,"x_max":950,"o":"m 950 669 l 742 669 q 664 800 719 758 q 515 842 608 842 q 335 749 401 842 q 269 499 269 657 q 335 247 269 338 q 514 156 400 156 q 663 201 607 156 q 743 342 718 246 l 950 342 q 804 69 918 164 q 522 -25 690 -25 q 275 38 379 -25 q 116 219 171 101 q 61 499 61 338 q 122 783 61 665 q 285 962 182 901 q 515 1022 388 1022 q 733 978 638 1022 q 884 853 829 933 q 950 669 939 774 z "},"Т":{"ha":850,"x_min":17,"x_max":833,"o":"m 833 825 l 529 825 l 529 0 l 321 0 l 321 825 l 17 825 l 17 997 l 833 997 l 833 825 z "},"У":{"ha":926,"x_min":33,"x_max":917,"o":"m 493 461 l 692 997 l 917 997 l 601 268 q 522 109 558 168 q 428 13 486 50 q 282 -25 369 -25 q 229 -21 250 -25 q 161 0 208 -17 l 161 203 q 220 181 199 186 q 265 175 242 175 q 338 199 311 175 q 365 257 365 222 q 353 322 365 289 q 317 403 340 356 l 33 997 l 267 997 l 493 461 z "},"Ф":{"ha":1158,"x_min":42,"x_max":1117,"o":"m 679 889 q 928 828 831 883 q 1072 685 1026 772 q 1117 499 1117 599 q 1063 305 1117 392 q 911 166 1010 218 q 679 108 813 114 l 679 0 l 479 0 l 479 108 q 247 166 346 114 q 95 305 149 218 q 42 499 42 392 q 88 685 42 599 q 231 828 133 772 q 479 889 329 885 l 479 997 l 679 997 l 679 889 m 479 253 l 479 744 q 300 674 358 739 q 242 508 242 608 q 308 322 242 390 q 479 253 374 254 m 917 507 q 858 674 917 610 q 679 744 800 739 l 679 254 q 851 325 786 257 q 917 507 917 393 z "},"Х":{"ha":926,"x_min":18,"x_max":908,"o":"m 464 675 l 647 997 l 888 997 l 582 518 l 908 0 l 653 0 l 464 340 l 263 0 l 18 0 l 342 510 l 36 997 l 285 997 l 464 675 z "},"Ц":{"ha":1003,"x_min":97,"x_max":989,"o":"m 306 172 l 697 172 l 697 997 l 906 997 l 906 172 l 989 172 l 989 -214 l 808 -214 l 808 0 l 97 0 l 97 997 l 306 997 l 306 172 z "},"Ч":{"ha":926,"x_min":61,"x_max":838,"o":"m 261 675 q 276 586 261 618 q 328 538 290 554 q 438 522 367 522 q 539 529 483 522 q 629 549 594 536 l 629 997 l 838 997 l 838 0 l 629 0 l 629 399 q 365 367 486 367 q 127 433 193 367 q 61 608 61 500 l 61 997 l 261 997 l 261 675 z "},"Ш":{"ha":1311,"x_min":97,"x_max":1214,"o":"m 289 172 l 560 172 l 560 997 l 751 997 l 751 172 l 1022 172 l 1022 997 l 1214 997 l 1214 0 l 97 0 l 97 997 l 289 997 l 289 172 z "},"Щ":{"ha":1311,"x_min":97,"x_max":1297,"o":"m 289 172 l 560 172 l 560 997 l 751 997 l 751 172 l 1022 172 l 1022 997 l 1214 997 l 1214 172 l 1297 172 l 1297 -214 l 1117 -214 l 1117 0 l 97 0 l 97 997 l 289 997 l 289 172 z "},"Ъ":{"ha":1157,"x_min":32,"x_max":1096,"o":"m 538 604 l 744 604 q 1007 531 918 604 q 1096 301 1096 457 q 1007 73 1096 146 q 774 0 918 0 l 329 0 l 329 825 l 32 825 l 32 997 l 538 997 l 538 604 m 888 306 q 842 412 888 383 q 713 440 797 440 l 538 440 l 538 172 l 721 172 q 888 306 888 172 z "},"Ы":{"ha":1311,"x_min":114,"x_max":1222,"o":"m 322 604 l 528 604 q 790 531 701 604 q 879 301 879 457 q 791 73 879 146 q 557 0 703 0 l 114 0 l 114 997 l 322 997 l 322 604 m 1222 0 l 1014 0 l 1014 997 l 1222 997 l 1222 0 m 671 306 q 626 412 671 383 q 496 440 581 440 l 322 440 l 322 172 l 504 172 q 671 306 671 172 z "},"Ь":{"ha":926,"x_min":114,"x_max":879,"o":"m 322 604 l 528 604 q 790 531 701 604 q 879 301 879 457 q 790 72 879 144 q 557 0 700 0 l 114 0 l 114 997 l 322 997 l 322 604 m 671 306 q 626 412 671 383 q 496 440 581 440 l 322 440 l 322 172 l 504 172 q 671 306 671 172 z "},"Э":{"ha":1003,"x_min":61,"x_max":942,"o":"m 942 504 q 880 206 942 325 q 715 31 818 88 q 488 -25 613 -25 q 208 67 321 -25 q 63 322 96 160 l 271 322 q 475 156 326 156 q 657 226 589 156 q 725 417 725 296 l 425 417 l 425 581 l 722 581 q 688 713 719 653 q 599 807 656 772 q 468 842 542 842 q 269 688 318 842 l 61 688 q 196 934 85 846 q 485 1022 307 1022 q 727 956 624 1022 q 886 772 831 890 q 942 504 942 654 z "},"Ю":{"ha":1389,"x_min":97,"x_max":1328,"o":"m 1328 507 q 1272 227 1328 347 q 1113 41 1215 107 q 872 -25 1010 -25 q 562 94 675 -25 q 426 417 449 214 l 297 417 l 297 0 l 97 0 l 97 997 l 297 997 l 297 581 l 426 581 l 426 582 q 500 813 440 714 q 656 967 560 913 q 872 1022 751 1022 q 1094 970 992 1022 q 1263 803 1197 918 q 1328 507 1328 688 m 872 156 q 1055 243 990 156 q 1119 500 1119 331 q 1054 755 1119 668 q 871 842 989 842 q 691 755 756 842 q 626 500 626 668 q 690 243 626 331 q 872 156 754 156 z "},"Я":{"ha":1006,"x_min":47,"x_max":908,"o":"m 707 0 l 707 393 l 515 393 q 422 390 456 393 q 360 369 389 386 q 314 311 331 351 q 300 256 306 292 q 290 156 294 219 q 281 61 286 96 q 264 0 275 26 l 47 0 q 74 65 67 38 q 85 153 81 93 l 94 244 q 117 358 103 317 q 161 424 132 399 q 243 467 190 449 q 125 553 168 488 q 82 704 82 619 q 140 881 82 808 q 279 978 197 954 q 363 993 318 989 q 479 997 408 997 l 908 997 l 908 0 l 707 0 m 465 557 l 707 557 l 707 822 l 450 822 q 333 789 375 822 q 290 686 290 756 q 332 588 290 619 q 465 557 374 557 z "},"а":{"ha":772,"x_min":39,"x_max":733,"o":"m 689 542 l 689 139 q 733 31 689 42 l 733 0 l 521 0 q 503 86 503 46 q 392 -1 440 19 q 267 -22 343 -22 q 101 38 163 -22 q 39 206 39 97 q 94 358 39 296 q 242 433 149 419 l 424 460 q 483 480 468 467 q 497 522 497 493 q 379 606 497 606 q 286 583 313 606 q 251 504 260 561 l 60 504 q 153 692 68 622 q 378 761 238 761 q 610 704 532 761 q 689 542 689 647 m 328 114 q 403 129 365 114 q 468 181 440 144 q 489 224 481 197 q 497 282 497 251 l 497 361 q 431 333 451 338 q 363 321 424 332 q 264 285 303 310 q 231 206 231 263 q 257 138 231 161 q 328 114 283 114 z "},"б":{"ha":849,"x_min":47,"x_max":803,"o":"m 529 851 q 469 846 513 849 q 415 840 458 844 q 337 821 371 836 q 282 778 303 806 q 233 628 243 725 q 342 706 290 685 q 460 726 394 726 q 642 682 564 726 q 761 556 719 638 q 803 367 803 475 q 763 174 803 264 q 640 31 724 85 q 426 -24 556 -24 q 140 101 232 -24 q 47 475 47 225 q 121 825 47 689 q 363 979 194 960 q 483 986 433 986 q 529 992 519 986 q 543 1008 539 999 l 717 1008 q 675 912 706 944 q 611 868 644 879 q 529 851 578 857 m 426 142 q 561 203 518 142 q 604 369 604 264 q 560 538 604 478 q 425 597 517 597 q 294 534 340 597 q 249 369 249 471 q 294 205 249 268 q 426 142 339 142 z "},"в":{"ha":849,"x_min":97,"x_max":786,"o":"m 760 544 q 738 452 760 486 q 672 396 715 418 q 757 333 728 376 q 786 231 786 290 q 717 63 786 126 q 538 0 647 0 l 97 0 l 97 739 l 507 739 q 694 690 629 739 q 760 544 760 642 m 568 528 q 542 584 568 565 q 467 603 515 603 l 289 603 l 289 449 l 463 449 q 542 467 517 449 q 568 528 568 486 m 586 228 q 558 301 586 281 q 463 321 529 321 l 289 321 l 289 136 l 463 136 q 553 159 521 136 q 586 228 586 182 z "},"г":{"ha":617,"x_min":92,"x_max":589,"o":"m 589 583 l 283 583 l 283 0 l 92 0 l 92 739 l 589 739 l 589 583 z "},"д":{"ha":901,"x_min":21,"x_max":881,"o":"m 881 156 l 881 -178 l 700 -178 l 700 0 l 201 0 l 201 -178 l 21 -178 l 21 156 l 104 156 q 217 739 193 394 l 794 739 l 794 156 l 881 156 m 383 583 q 297 156 357 336 l 603 156 l 603 583 l 383 583 z "},"е":{"ha":772,"x_min":36,"x_max":736,"o":"m 736 310 l 229 310 q 273 183 233 233 q 401 133 313 133 q 481 158 444 133 q 528 219 517 182 l 726 219 q 679 104 722 160 q 561 13 636 49 q 392 -22 486 -22 q 131 78 226 -22 q 36 378 36 179 q 78 579 36 493 q 198 713 119 665 q 386 761 276 761 q 653 647 569 761 q 736 310 736 533 m 385 606 q 280 564 324 606 q 236 438 236 522 l 536 438 q 493 563 536 521 q 385 606 450 606 z "},"ж":{"ha":1158,"x_min":11,"x_max":1147,"o":"m 449 446 l 485 446 l 485 739 l 676 739 l 676 446 l 713 446 l 915 739 l 1135 739 l 886 397 l 1147 0 l 915 0 l 713 314 l 676 314 l 676 0 l 485 0 l 485 314 l 443 314 l 235 0 l 11 0 l 274 397 l 28 739 l 247 739 l 449 446 z "},"з":{"ha":694,"x_min":31,"x_max":664,"o":"m 639 553 q 619 469 639 501 q 542 401 599 438 l 540 399 q 635 326 607 369 q 664 214 664 282 q 577 40 664 103 q 358 -22 490 -22 q 135 41 218 -22 q 31 232 51 104 l 214 232 q 260 142 231 171 q 343 114 290 114 q 433 147 401 114 q 464 225 464 179 q 432 297 464 274 q 343 321 400 321 q 289 315 317 321 l 289 449 q 447 536 447 442 q 343 625 447 625 q 265 603 292 625 q 229 535 238 582 l 49 535 q 144 703 65 644 q 358 761 222 761 q 506 733 443 761 q 604 658 569 706 q 639 553 639 611 z "},"и":{"ha":849,"x_min":92,"x_max":757,"o":"m 283 283 l 286 283 l 556 739 l 757 739 l 757 0 l 565 0 l 565 446 l 563 446 l 301 0 l 92 0 l 92 739 l 283 739 l 283 283 z "},"й":{"ha":849,"x_min":92,"x_max":757,"o":"m 283 283 l 286 283 l 556 739 l 757 739 l 757 0 l 565 0 l 565 446 l 563 446 l 301 0 l 92 0 l 92 739 l 283 739 l 283 283 m 424 958 q 524 982 485 958 q 572 1050 564 1006 l 650 1050 q 592 899 650 949 q 424 850 533 850 q 256 899 314 850 q 197 1050 197 949 l 275 1050 q 323 982 283 1006 q 424 958 363 958 z "},"к":{"ha":849,"x_min":97,"x_max":833,"o":"m 289 458 l 565 739 l 821 739 l 515 432 l 833 0 l 583 0 l 371 293 l 289 214 l 289 0 l 97 0 l 97 739 l 289 739 l 289 458 z "},"л":{"ha":926,"x_min":47,"x_max":817,"o":"m 817 0 l 625 0 l 625 583 l 383 583 l 375 315 q 358 139 372 206 q 294 25 343 72 q 144 -22 246 -22 q 47 -8 81 -22 l 47 153 q 106 142 76 142 q 166 184 150 142 q 182 313 182 226 l 193 739 l 817 739 l 817 0 z "},"м":{"ha":1003,"x_min":92,"x_max":911,"o":"m 506 203 l 508 203 l 631 739 l 911 739 l 911 0 l 731 0 l 731 594 l 728 594 l 589 0 l 414 0 l 275 594 l 272 594 l 272 0 l 92 0 l 92 739 l 381 739 l 506 203 z "},"н":{"ha":849,"x_min":92,"x_max":757,"o":"m 283 472 l 565 472 l 565 739 l 757 739 l 757 0 l 565 0 l 565 317 l 283 317 l 283 0 l 92 0 l 92 739 l 283 739 l 283 472 z "},"о":{"ha":850,"x_min":47,"x_max":803,"o":"m 803 369 q 756 165 803 254 q 624 27 710 76 q 425 -22 538 -22 q 227 26 313 -22 q 94 164 142 75 q 47 369 47 253 q 94 574 47 485 q 227 712 142 663 q 425 761 313 761 q 624 713 539 761 q 756 576 710 664 q 803 369 803 488 m 425 142 q 560 203 517 142 q 603 369 603 264 q 560 536 603 475 q 424 597 517 597 q 293 534 339 597 q 247 369 247 471 q 292 205 247 268 q 425 142 338 142 z "},"п":{"ha":849,"x_min":92,"x_max":757,"o":"m 757 0 l 565 0 l 565 583 l 283 583 l 283 0 l 92 0 l 92 739 l 757 739 l 757 0 z "},"р":{"ha":849,"x_min":86,"x_max":801,"o":"m 801 383 q 720 85 801 193 q 486 -22 639 -22 q 367 6 419 -22 q 281 92 314 33 l 278 92 l 278 -286 l 86 -286 l 86 739 l 269 739 l 269 633 l 272 633 q 365 731 314 701 q 493 761 415 761 q 654 716 585 761 q 763 585 724 671 q 801 383 801 500 m 436 142 q 562 207 522 142 q 601 369 601 272 q 559 528 601 467 q 435 589 517 589 q 313 527 356 589 q 271 369 271 465 q 310 207 271 272 q 436 142 350 142 z "},"с":{"ha":772,"x_min":47,"x_max":725,"o":"m 725 478 l 525 478 q 483 569 513 540 q 394 597 453 597 q 282 535 317 597 q 247 369 247 472 q 279 200 247 258 q 394 142 311 142 q 486 180 450 142 q 525 271 522 218 l 725 271 q 685 138 721 206 q 576 24 650 71 q 394 -22 503 -22 q 137 79 226 -22 q 47 369 47 181 q 140 658 47 554 q 394 761 233 761 q 621 691 529 761 q 725 478 713 621 z "},"т":{"ha":694,"x_min":28,"x_max":667,"o":"m 667 583 l 443 583 l 443 0 l 251 0 l 251 583 l 28 583 l 28 739 l 667 739 l 667 583 z "},"у":{"ha":772,"x_min":19,"x_max":753,"o":"m 393 194 l 396 194 l 547 739 l 753 739 l 514 56 q 424 -182 451 -126 q 358 -262 397 -237 q 201 -294 310 -294 q 158 -293 178 -294 q 125 -290 139 -292 l 125 -135 q 149 -137 135 -136 q 182 -139 163 -139 q 258 -111 228 -139 q 290 -39 288 -83 l 19 739 l 235 739 l 393 194 z "},"ф":{"ha":1156,"x_min":47,"x_max":1108,"o":"m 676 668 q 839 761 728 761 q 979 716 918 761 q 1074 583 1040 671 q 1108 372 1108 494 q 1078 176 1108 265 q 988 32 1047 86 q 843 -22 928 -22 q 747 2 790 -22 q 676 72 704 26 l 674 72 l 674 -286 l 482 -286 l 482 72 l 479 72 q 409 2 453 26 q 313 -22 365 -22 q 158 45 221 -22 q 68 210 94 113 q 47 372 47 282 q 88 597 47 510 q 189 722 128 683 q 318 761 250 761 q 479 667 426 761 l 482 667 l 482 997 l 674 997 l 674 667 l 676 668 m 375 142 q 459 179 436 142 q 482 282 482 217 l 482 468 q 457 562 482 526 q 376 597 432 597 q 269 528 300 597 q 239 364 239 458 q 268 208 239 274 q 375 142 297 142 m 781 142 q 888 208 858 142 q 917 364 917 274 q 776 597 917 597 q 698 561 722 597 q 674 468 674 525 l 674 282 q 697 179 674 217 q 781 142 719 142 z "},"х":{"ha":772,"x_min":21,"x_max":751,"o":"m 389 524 l 513 739 l 742 739 l 500 376 l 751 0 l 511 0 l 389 222 l 256 0 l 21 0 l 272 376 l 32 739 l 268 739 l 389 524 z "},"ц":{"ha":849,"x_min":92,"x_max":833,"o":"m 283 156 l 565 156 l 565 739 l 757 739 l 757 156 l 833 156 l 833 -178 l 656 -178 l 656 0 l 92 0 l 92 739 l 283 739 l 283 156 z "},"ч":{"ha":772,"x_min":43,"x_max":681,"o":"m 235 506 q 247 449 235 468 q 287 425 260 431 q 369 419 314 419 q 489 433 449 419 l 489 739 l 681 739 l 681 0 l 489 0 l 489 292 q 406 281 461 286 q 319 275 351 275 q 111 322 179 275 q 43 467 43 368 l 43 739 l 235 739 l 235 506 z "},"ш":{"ha":1158,"x_min":92,"x_max":1067,"o":"m 283 156 l 483 156 l 483 739 l 675 739 l 675 156 l 875 156 l 875 739 l 1067 739 l 1067 0 l 92 0 l 92 739 l 283 739 l 283 156 z "},"щ":{"ha":1157,"x_min":92,"x_max":1142,"o":"m 283 156 l 483 156 l 483 739 l 675 739 l 675 156 l 875 156 l 875 739 l 1067 739 l 1067 156 l 1142 156 l 1142 -178 l 967 -178 l 967 0 l 92 0 l 92 739 l 283 739 l 283 156 z "},"ъ":{"ha":926,"x_min":28,"x_max":893,"o":"m 425 482 l 610 482 q 819 422 744 482 q 893 240 893 361 q 851 97 893 150 q 748 22 808 43 q 628 0 688 0 l 233 0 l 233 583 l 28 583 l 28 739 l 425 739 l 425 482 m 693 240 q 558 338 693 338 l 425 338 l 425 144 l 574 144 q 662 169 631 144 q 693 240 693 193 z "},"ы":{"ha":1157,"x_min":92,"x_max":1065,"o":"m 283 482 l 485 482 q 694 422 619 482 q 768 240 768 361 q 692 60 768 119 q 500 0 615 0 l 92 0 l 92 739 l 283 739 l 283 482 m 1065 0 l 874 0 l 874 739 l 1065 739 l 1065 0 m 568 240 q 433 338 568 338 l 283 338 l 283 144 l 449 144 q 537 169 506 144 q 568 240 568 193 z "},"ь":{"ha":803,"x_min":90,"x_max":768,"o":"m 282 482 l 485 482 q 694 422 619 482 q 768 240 768 361 q 726 97 768 150 q 623 22 683 43 q 503 0 563 0 l 90 0 l 90 739 l 282 739 l 282 482 m 568 240 q 433 338 568 338 l 282 338 l 282 144 l 449 144 q 537 169 506 144 q 568 240 568 193 z "},"э":{"ha":772,"x_min":47,"x_max":725,"o":"m 725 369 q 635 79 725 181 q 378 -22 546 -22 q 197 24 269 -22 q 88 139 124 71 q 47 271 51 207 l 247 271 q 288 181 250 219 q 378 142 325 142 q 480 185 442 142 q 525 301 518 228 l 342 301 l 342 429 l 525 429 q 483 551 519 504 q 386 597 447 597 q 298 569 328 597 q 256 478 268 540 l 56 478 q 160 691 68 621 q 386 761 251 761 q 635 658 546 761 q 725 369 725 556 z "},"ю":{"ha":1157,"x_min":92,"x_max":1117,"o":"m 1117 371 q 1081 179 1117 268 q 965 34 1044 90 q 761 -22 885 -22 q 519 58 610 -22 q 411 304 428 138 l 283 304 l 283 0 l 92 0 l 92 739 l 283 739 l 283 449 l 411 449 q 525 683 435 604 q 761 761 615 761 q 1024 656 932 761 q 1117 371 1117 550 m 761 142 q 878 202 839 142 q 917 369 917 263 q 878 537 917 476 q 760 597 839 597 q 643 537 683 597 q 603 369 603 476 q 643 203 603 264 q 761 142 683 142 z "},"я":{"ha":849,"x_min":58,"x_max":758,"o":"m 565 0 l 565 272 l 432 272 q 329 260 354 272 q 293 225 303 247 q 279 121 282 203 q 261 0 278 43 l 58 0 q 78 45 74 26 q 88 99 83 64 l 99 200 q 113 272 104 247 q 142 310 122 296 q 203 338 163 325 q 106 403 139 357 q 74 517 74 450 q 347 739 74 739 l 758 739 l 758 0 l 565 0 m 399 408 l 565 408 l 565 594 l 393 594 q 301 572 328 594 q 275 500 275 549 q 302 429 275 450 q 399 408 329 408 z "},"ё":{"ha":772,"x_min":36,"x_max":736,"o":"m 736 310 l 229 310 q 273 183 233 233 q 401 133 313 133 q 481 158 444 133 q 528 219 517 182 l 726 219 q 679 104 722 160 q 561 13 636 49 q 392 -22 486 -22 q 131 78 226 -22 q 36 378 36 179 q 78 579 36 493 q 198 713 119 665 q 386 761 276 761 q 653 647 569 761 q 736 310 736 533 m 385 606 q 280 564 324 606 q 236 438 236 522 l 536 438 q 493 563 536 521 q 385 606 450 606 m 340 850 l 160 850 l 160 1014 l 340 1014 l 340 850 m 613 850 l 432 850 l 432 1014 l 613 1014 l 613 850 z "},"ђ":{"ha":849,"x_min":28,"x_max":764,"o":"m 350 832 l 672 832 l 672 676 l 350 676 l 350 494 q 431 549 392 533 q 528 565 471 565 q 708 474 653 565 q 764 186 764 383 q 740 -53 764 49 q 646 -221 717 -156 q 443 -286 575 -286 l 443 -122 q 508 -103 482 -119 q 544 -54 533 -87 q 564 172 564 1 q 560 291 564 246 q 531 372 556 336 q 451 407 507 407 q 376 376 403 407 q 350 296 350 346 l 350 0 l 158 0 l 158 676 l 28 676 l 28 832 l 158 832 l 158 997 l 350 997 l 350 832 z "},"ѓ":{"ha":617,"x_min":92,"x_max":589,"o":"m 589 583 l 283 583 l 283 0 l 92 0 l 92 739 l 589 739 l 589 583 m 332 850 l 193 850 l 322 1050 l 538 1050 l 332 850 z "},"є":{"ha":772,"x_min":47,"x_max":725,"o":"m 725 478 l 525 478 q 483 569 513 540 q 394 597 453 597 q 292 549 332 597 q 247 429 253 501 l 431 429 l 431 301 l 247 301 q 292 185 254 228 q 394 142 331 142 q 485 181 447 142 q 525 271 522 219 l 725 271 q 678 125 719 192 q 564 18 638 58 q 394 -22 490 -22 q 137 79 226 -22 q 47 369 47 181 q 140 658 47 554 q 394 761 233 761 q 621 691 529 761 q 725 478 713 621 z "},"ѕ":{"ha":772,"x_min":46,"x_max":726,"o":"m 701 515 l 510 515 q 495 567 504 547 q 458 602 486 588 q 382 617 431 617 q 263 543 263 617 q 319 489 263 508 q 499 442 378 469 q 675 364 624 413 q 726 231 726 315 q 635 40 726 101 q 382 -22 544 -22 q 46 236 71 -22 l 246 236 q 394 122 246 122 q 490 140 454 122 q 526 197 526 158 q 494 247 526 231 q 347 289 461 264 q 200 331 257 308 q 107 397 143 354 q 71 511 71 440 q 152 693 71 625 q 382 761 233 761 q 603 704 518 761 q 701 515 689 647 z "},"і":{"ha":386,"x_min":97,"x_max":289,"o":"m 97 849 l 97 1029 l 289 1029 l 289 849 l 97 849 m 97 0 l 97 739 l 289 739 l 289 0 l 97 0 z "},"ї":{"ha":386,"x_min":-33,"x_max":419,"o":"m 147 849 l -33 849 l -33 1013 l 147 1013 l 147 849 m 419 849 l 239 849 l 239 1013 l 419 1013 l 419 849 m 289 0 l 97 0 l 97 739 l 289 739 l 289 0 z "},"ј":{"ha":386,"x_min":3,"x_max":289,"o":"m 97 849 l 97 1029 l 289 1029 l 289 849 l 97 849 m 289 -85 q 244 -244 289 -193 q 88 -294 199 -294 q 4 -290 71 -294 l 3 -290 l 3 -139 l 49 -139 q 97 -75 97 -139 l 97 739 l 289 739 l 289 -85 z "},"љ":{"ha":1269,"x_min":47,"x_max":1236,"o":"m 789 482 l 953 482 q 1162 422 1088 482 q 1236 240 1236 361 q 1192 95 1236 149 q 1087 21 1149 42 q 964 0 1025 0 l 597 0 l 597 583 l 383 583 l 375 311 q 356 134 372 203 q 290 22 340 65 q 140 -22 240 -22 q 47 -8 81 -22 l 47 153 q 103 142 81 142 q 145 153 129 142 q 171 201 161 165 q 182 306 181 236 l 193 739 l 789 739 l 789 482 m 1036 240 q 901 338 1036 338 l 789 338 l 789 144 l 917 144 q 1005 169 974 144 q 1036 240 1036 193 z "},"њ":{"ha":1225,"x_min":92,"x_max":1192,"o":"m 283 482 l 565 482 l 565 739 l 757 739 l 757 482 l 908 482 q 1117 422 1043 482 q 1192 240 1192 361 q 1149 95 1192 149 q 1046 21 1106 42 q 926 0 986 0 l 565 0 l 565 338 l 283 338 l 283 0 l 92 0 l 92 739 l 283 739 l 283 482 m 992 240 q 857 338 992 338 l 757 338 l 757 144 l 872 144 q 960 169 929 144 q 992 240 992 193 z "},"ћ":{"ha":849,"x_min":28,"x_max":751,"o":"m 350 832 l 672 832 l 672 676 l 350 676 l 350 494 q 429 548 388 531 q 532 565 471 565 q 695 510 639 565 q 751 368 751 454 l 751 0 l 560 0 l 560 321 q 535 394 560 368 q 464 421 511 421 q 379 386 408 421 q 350 299 350 351 l 350 0 l 158 0 l 158 676 l 28 676 l 28 832 l 158 832 l 158 997 l 350 997 l 350 832 z "},"ќ":{"ha":849,"x_min":97,"x_max":833,"o":"m 289 458 l 565 739 l 821 739 l 515 432 l 833 0 l 583 0 l 371 293 l 289 214 l 289 0 l 97 0 l 97 739 l 289 739 l 289 458 m 449 850 l 310 850 l 439 1050 l 654 1050 l 449 850 z "},"ў":{"ha":772,"x_min":19,"x_max":753,"o":"m 393 194 l 396 194 l 547 739 l 753 739 l 514 56 q 424 -182 451 -126 q 358 -262 397 -237 q 201 -294 310 -294 q 158 -293 178 -294 q 125 -290 139 -292 l 125 -135 q 149 -137 135 -136 q 182 -139 163 -139 q 258 -111 228 -139 q 290 -39 288 -83 l 19 739 l 235 739 l 393 194 m 386 958 q 487 982 447 958 q 535 1050 526 1006 l 613 1050 q 554 899 613 949 q 386 850 496 850 q 218 899 276 850 q 160 1050 160 949 l 238 1050 q 285 982 246 1006 q 386 958 325 958 z "},"џ":{"ha":849,"x_min":90,"x_max":757,"o":"m 282 156 l 565 156 l 565 739 l 757 739 l 757 0 l 519 0 l 519 -178 l 328 -178 l 328 0 l 90 0 l 90 739 l 282 739 l 282 156 z "},"Ѣ":{"ha":1081,"x_min":122,"x_max":1033,"o":"m 542 896 l 811 896 l 811 732 l 542 732 l 542 604 l 682 604 q 1033 301 1033 604 q 944 72 1033 144 q 711 0 854 0 l 333 0 l 333 732 l 122 732 l 122 896 l 333 896 l 333 997 l 542 997 l 542 896 m 825 306 q 780 412 825 383 q 650 440 735 440 l 542 440 l 542 172 l 658 172 q 825 306 825 172 z "},"ѣ":{"ha":926,"x_min":28,"x_max":893,"o":"m 408 739 l 657 739 l 657 594 l 408 594 l 408 482 l 629 482 q 822 420 751 482 q 893 240 893 358 q 816 58 893 117 q 628 0 739 0 l 217 0 l 217 594 l 28 594 l 28 739 l 217 739 l 217 997 l 408 997 l 408 739 m 693 240 q 663 313 693 289 q 579 338 633 338 l 408 338 l 408 144 l 579 144 q 663 168 633 144 q 693 240 693 192 z "},"Ѳ":{"ha":1081,"x_min":61,"x_max":1019,"o":"m 1019 499 q 960 227 1019 346 q 791 42 900 108 q 540 -25 682 -25 q 283 40 392 -25 q 118 222 175 104 q 61 499 61 340 q 118 775 61 657 q 283 958 175 893 q 540 1022 392 1022 q 790 956 681 1022 q 959 769 899 889 q 1019 499 1019 650 m 538 842 q 408 806 467 842 q 313 710 349 769 q 275 581 276 650 l 804 581 q 767 710 803 650 q 671 806 731 769 q 538 842 611 842 m 811 417 l 269 417 q 307 287 271 347 q 404 191 343 226 q 539 156 465 156 q 674 190 613 156 q 773 285 736 225 q 811 417 810 346 z "},"ѳ":{"ha":850,"x_min":47,"x_max":803,"o":"m 803 369 q 757 165 803 253 q 626 27 711 76 q 425 -22 540 -22 q 227 26 313 -22 q 94 164 142 75 q 47 369 47 253 q 94 574 47 485 q 227 712 142 663 q 425 761 313 761 q 624 712 538 761 q 756 574 710 663 q 803 369 803 485 m 424 597 q 307 553 354 597 q 247 438 260 510 l 603 438 q 547 554 593 511 q 424 597 501 597 m 425 142 q 547 185 501 142 q 603 310 592 228 l 247 310 q 306 187 260 232 q 425 142 353 142 z "},"Ѵ":{"ha":1003,"x_min":39,"x_max":964,"o":"m 964 1006 l 964 850 q 913 858 938 858 q 866 844 883 858 q 841 810 849 829 q 819 744 833 790 l 590 0 l 379 0 l 39 997 l 281 997 l 490 267 l 493 267 l 636 801 q 685 935 660 888 q 748 1002 710 982 q 849 1022 786 1022 q 964 1006 906 1022 z "},"ѵ":{"ha":847,"x_min":19,"x_max":800,"o":"m 800 747 l 800 597 q 744 606 775 606 q 699 586 714 606 q 671 522 683 567 l 521 0 l 272 0 l 19 739 l 235 739 l 393 192 l 396 192 l 506 589 q 569 721 529 681 q 685 761 610 761 q 800 747 743 761 z "},"Ґ":{"ha":849,"x_min":114,"x_max":826,"o":"m 826 825 l 322 825 l 322 0 l 114 0 l 114 997 l 663 997 l 663 1172 l 826 1172 l 826 825 z "},"ґ":{"ha":617,"x_min":92,"x_max":586,"o":"m 586 583 l 283 583 l 283 0 l 92 0 l 92 739 l 442 739 l 442 908 l 586 908 l 586 583 z "},"ә":{"ha":772,"x_min":36,"x_max":736,"o":"m 736 363 q 644 82 736 186 q 386 -22 551 -22 q 119 92 203 -22 q 36 429 36 206 l 543 429 q 501 556 543 506 q 383 606 460 606 q 299 583 338 606 q 244 519 261 560 l 46 519 q 155 695 68 629 q 392 761 242 761 q 646 662 556 761 q 736 363 736 563 m 536 301 l 236 301 q 279 176 236 218 q 386 133 322 133 q 493 176 450 133 q 536 301 536 218 z "},"№":{"ha":1389,"x_min":13,"x_max":1376,"o":"m 574 333 l 576 333 l 576 997 l 768 997 l 768 0 l 564 0 l 207 665 l 204 665 l 204 0 l 13 0 l 13 997 l 222 997 l 574 333 m 1376 531 q 1308 326 1376 400 q 1113 253 1240 253 q 919 327 989 253 q 849 531 849 401 q 920 733 849 657 q 1113 808 992 808 q 1307 733 1238 808 q 1376 531 1376 658 m 1113 408 q 1196 531 1196 408 q 1175 618 1196 583 q 1111 653 1154 653 q 1050 619 1071 653 q 1029 531 1029 585 q 1113 408 1029 408 m 1360 28 l 865 28 l 865 164 l 1360 164 l 1360 28 z "},"":{"ha":849,"x_min":47,"x_max":803,"o":"m 486 833 q 310 822 332 825 q 247 774 247 814 q 290 732 247 738 q 440 728 324 728 q 603 704 539 728 q 711 635 668 681 q 779 519 756 589 q 803 367 803 450 q 756 163 803 251 q 623 26 708 75 q 425 -22 538 -22 q 216 32 301 -22 q 89 173 131 86 q 47 358 47 260 q 183 628 47 539 q 110 683 132 646 q 89 769 89 721 q 151 915 89 867 q 290 968 214 964 l 514 983 q 554 1007 543 985 l 721 1007 q 653 878 706 918 q 486 833 601 839 m 426 142 q 561 203 518 142 q 604 369 604 264 q 561 536 604 475 q 425 597 518 597 q 294 534 340 597 q 249 369 249 471 q 294 205 249 268 q 426 142 339 142 z "},"":{"ha":386,"x_min":78,"x_max":422,"o":"m 217 1083 l 78 1083 l 207 1283 l 422 1283 l 217 1083 z "},"":{"ha":386,"x_min":-51,"x_max":438,"o":"m 193 1169 l 282 1283 l 438 1283 l 279 1083 l 106 1083 l -51 1283 l 104 1283 l 193 1169 z "},"":{"ha":386,"x_min":-33,"x_max":419,"o":"m 147 1083 l -33 1083 l -33 1247 l 147 1247 l 147 1083 m 419 1083 l 239 1083 l 239 1247 l 419 1247 l 419 1083 z "},"":{"ha":386,"x_min":-126,"x_max":513,"o":"m 183 1083 l 69 1083 l 182 1283 l 356 1283 l 183 1083 m 29 1083 l -126 1083 l -126 1239 l 29 1239 l 29 1083 m 513 1083 l 357 1083 l 357 1239 l 513 1239 l 513 1083 z "},"":{"ha":386,"x_min":-126,"x_max":513,"o":"m 317 1083 l 203 1083 l 31 1283 l 204 1283 l 317 1083 m 29 1083 l -126 1083 l -126 1239 l 29 1239 l 29 1083 m 513 1083 l 357 1083 l 357 1239 l 513 1239 l 513 1083 z "},"":{"ha":386,"x_min":-36,"x_max":308,"o":"m 308 1083 l 169 1083 l -36 1283 l 178 1283 l 308 1083 z "},"":{"ha":386,"x_min":-94,"x_max":539,"o":"m 44 1083 l -94 1083 l 35 1283 l 250 1283 l 44 1083 m 333 1083 l 194 1083 l 324 1283 l 539 1283 l 333 1083 z "},"":{"ha":386,"x_min":-46,"x_max":432,"o":"m 432 1083 l -46 1083 l -46 1186 l 432 1186 l 432 1083 z "},"":{"ha":386,"x_min":-33,"x_max":419,"o":"m 193 1192 q 294 1215 254 1192 q 342 1283 333 1239 l 419 1283 q 361 1133 419 1182 q 193 1083 303 1083 q 25 1133 83 1083 q -33 1283 -33 1182 l 44 1283 q 92 1215 53 1239 q 193 1192 132 1192 z "},"":{"ha":386,"x_min":-33,"x_max":419,"o":"m 419 1083 l 342 1083 q 294 1151 333 1128 q 193 1175 254 1175 q 92 1151 132 1175 q 44 1083 53 1128 l -33 1083 q 24 1233 -33 1183 q 193 1283 82 1283 q 361 1234 303 1283 q 419 1083 419 1185 z "},"":{"ha":386,"x_min":-153,"x_max":481,"o":"m 192 1083 l 53 1083 l -153 1283 l 63 1283 l 192 1083 m 481 1083 l 342 1083 l 136 1283 l 351 1283 l 481 1083 z "},"":{"ha":386,"x_min":-33,"x_max":419,"o":"m 193 957 q 294 981 254 957 q 342 1049 333 1004 l 419 1049 q 361 898 419 947 q 193 849 303 849 q 25 898 83 849 q -33 1049 -33 947 l 44 1049 q 92 981 53 1004 q 193 957 132 957 z "},"":{"ha":386,"x_min":-33,"x_max":419,"o":"m 419 849 l 342 849 q 294 917 333 893 q 193 940 254 940 q 92 917 132 940 q 44 849 53 893 l -33 849 q 24 999 -33 949 q 193 1049 82 1049 q 362 999 304 1049 q 419 849 419 949 z "},"":{"ha":386,"x_min":-153,"x_max":481,"o":"m 192 849 l 53 849 l -153 1049 l 63 1049 l 192 849 m 481 849 l 342 849 l 136 1049 l 351 1049 l 481 849 z "},"":{"ha":386,"x_min":-126,"x_max":513,"o":"m 183 849 l 69 849 l 182 1049 l 356 1049 l 183 849 m 29 849 l -126 849 l -126 1004 l 29 1004 l 29 849 m 513 849 l 357 849 l 357 1004 l 513 1004 l 513 849 z "},"":{"ha":386,"x_min":-126,"x_max":513,"o":"m 317 849 l 203 849 l 31 1049 l 204 1049 l 317 849 m 29 849 l -126 849 l -126 1004 l 29 1004 l 29 849 m 513 849 l 357 849 l 357 1004 l 513 1004 l 513 849 z "}}}
